<svg xmlns="http://www.w3.org/2000/svg" xmlns:xlink="http://www.w3.org/1999/xlink" xmlns:lucid="lucid" width="660" height="1213.38"><g transform="translate(17.65473671166012 11.687752611911833)" lucid:page-tab-id="0_0"><path d="M2.35 23.3c0-8.27 6.7-15 15-15h590c8.28 0 15 6.73 15 15v1143.4c0 8.27-6.72 15-15 15h-590c-8.3 0-15-6.73-15-15z" stroke="#666" stroke-width="2" fill="none"/><use xlink:href="#a" transform="matrix(1,0,0,1,10.34526328833988,16.312247388088167) translate(228.88888888888886 21.333333333333336)"/><use xlink:href="#b" transform="matrix(1,0,0,1,10.34526328833988,16.312247388088167) translate(301.25925925925924 21.333333333333336)"/><path d="M49.63 68.3c-4.42 0-8 3.6-8 8v24c0 4.43 3.58 8 8 8h160c4.42 0 8-3.57 8-8v-24c0-4.4-3.58-8-8-8z" stroke="#0b7cba" stroke-width="2" fill="#c9ebff" fill-opacity=".5"/><use xlink:href="#c" transform="matrix(1,0,0,1,49.626749218332975,76.31224738808817) translate(28.209876543209873 17.77777777777778)"/><path d="M49.63 639.02c-4.42 0-8 3.58-8 8v24c0 4.42 3.58 8 8 8h160c4.42 0 8-3.58 8-8v-24c0-4.42-3.58-8-8-8z" stroke="#328220" stroke-width="2" fill="#b5e5aa" fill-opacity=".5"/><use xlink:href="#d" transform="matrix(1,0,0,1,49.626749218332975,647.0210859452451) translate(9.104938271604937 17.77777777777778)"/><use xlink:href="#e" transform="matrix(1,0,0,1,49.626749218332975,647.0210859452451) translate(58.42592592592592 17.77777777777778)"/><path d="M49.63 797.3c-4.42 0-8 3.6-8 8v24c0 4.43 3.58 8 8 8h160c4.42 0 8-3.57 8-8v-24c0-4.4-3.58-8-8-8z" stroke="#328220" stroke-width="2" fill="#b5e5aa" fill-opacity=".5"/><use xlink:href="#f" transform="matrix(1,0,0,1,49.626749218332975,805.312247388088) translate(66.45061728395062 17.77777777777778)"/><path d="M564.18 252.02c0 14.58-46.56 26.4-104 26.4s-104-11.82-104-26.4c0-14.58 46.56-26.4 104-26.4s104 11.82 104 26.4z" stroke="#f08c21" stroke-width="2" fill="#ffdbb6"/><use xlink:href="#g" transform="matrix(1,0,0,1,356.1785966216732,225.62108594524514) translate(47.89388888888889 31.02777777777778)"/><path d="M566.63 904.42c0 14.58-46.57 26.4-104 26.4-57.44 0-104-11.82-104-26.4 0-14.58 46.56-26.4 104-26.4 57.43 0 104 11.82 104 26.4z" stroke="#f08c21" stroke-width="2" fill="#ffdbb6"/><use xlink:href="#h" transform="matrix(1,0,0,1,358.626749218333,878.0210859452452) translate(36.13462962962962 31.02777777777778)"/><use xlink:href="#i" transform="matrix(1,0,0,1,358.626749218333,878.0210859452452) translate(136.0729012345679 31.02777777777778)"/><path d="M564.18 740.02c0 14.58-46.56 26.4-104 26.4s-104-11.82-104-26.4c0-14.58 46.56-26.4 104-26.4s104 11.82 104 26.4z" stroke="#f08c21" stroke-width="2" fill="#ffdbb6"/><use xlink:href="#j" transform="matrix(1,0,0,1,356.1785966216732,713.6210859452451) translate(38.69635802469134 31.02777777777778)"/><use xlink:href="#k" transform="matrix(1,0,0,1,356.1785966216732,713.6210859452451) translate(97.89388888888888 31.02777777777778)"/><path d="M218.63 88.3H327.5v163.72h9.44" stroke="#0b7cba" stroke-width="2" fill="none"/><path d="M218.63 89.3h-1v-2h1zM351.94 252.02l-14.26 4.64v-9.27z" fill="#0b7cba"/><path d="M355.18 252.02l-18.5 6v-12zm-16.5 3.26l10.03-3.26-10.02-3.26z" fill="#0b7cba"/><path d="M218.63 739.86h68.27v.16h50.04" stroke="#328220" stroke-width="2" fill="none"/><path d="M218.63 740.86h-1v-2h1zM351.94 740.02l-14.26 4.64v-9.27z" fill="#328220"/><path d="M355.18 740.02l-18.5 6v-12zm-16.5 3.26l10.03-3.26-10.02-3.26z" fill="#328220"/><path d="M565.18 252.02h21V371.7H129.63v4.1" stroke="#f08c21" stroke-width="2" fill="none"/><path d="M565.18 253.02h-1.07l.05-.34.02-.33V251.47l-.05-.33-.02-.12h1.08zM129.63 390.8L125 376.5h9.26z" fill="#f08c21"/><path d="M129.63 394.02l-6-18.5h12zm-3.26-16.5l3.26 10.03 3.26-10.03z" fill="#f08c21"/><path d="M565.18 740.02h21.52v37H129.63v1.06" stroke="#f08c21" stroke-width="2" fill="none"/><path d="M565.18 741.02h-1.07l.05-.34.02-.33V739.47l-.05-.33-.02-.12h1.08zM129.63 793.08L125 778.8h9.26z" fill="#f08c21"/><path d="M129.63 796.3l-6-18.5h12zm-3.26-16.5l3.26 10.04 3.26-10.03z" fill="#f08c21"/><path d="M218.63 659.02h29.55v-.13h88.77" stroke="#328220" stroke-width="2" fill="none"/><path d="M218.63 660.02h-1v-2h1zM351.95 658.9l-14.27 4.63v-9.27z" fill="#328220"/><path d="M355.18 658.9l-18.5 6V652.9zm-16.5 3.25l10.03-3.26-10.02-3.26z" fill="#328220"/><path d="M49.63 311.3c-4.42 0-8 3.6-8 8v24c0 4.43 3.58 8 8 8h160c4.42 0 8-3.57 8-8v-24c0-4.4-3.58-8-8-8z" stroke="#0b7cba" stroke-width="2" fill="#c9ebff" fill-opacity=".5"/><use xlink:href="#l" transform="matrix(1,0,0,1,49.626749218332975,319.31224738808817) translate(16.04938271604938 17.77777777777778)"/><use xlink:href="#m" transform="matrix(1,0,0,1,49.626749218332975,319.31224738808817) translate(104.81481481481481 17.77777777777778)"/><path d="M49.63 395.02c-4.42 0-8 3.58-8 8v24c0 4.42 3.58 8 8 8h160c4.42 0 8-3.58 8-8v-24c0-4.42-3.58-8-8-8z" stroke="#328220" stroke-width="2" fill="#b5e5aa" fill-opacity=".5"/><use xlink:href="#n" transform="matrix(1,0,0,1,49.626749218332975,403.0210859452452) translate(11.543209876543202 17.77777777777778)"/><path d="M49.63 149.3c-4.42 0-8 3.6-8 8v24c0 4.43 3.58 8 8 8h160c4.42 0 8-3.57 8-8v-24c0-4.4-3.58-8-8-8z" stroke="#328220" stroke-width="2" fill="#b5e5aa" fill-opacity=".5"/><use xlink:href="#o" transform="matrix(1,0,0,1,49.626749218332975,157.31224738808814) translate(38.08641975308642 17.77777777777778)"/><path d="M49.63 232.02c-4.42 0-8 3.58-8 8v24c0 4.42 3.58 8 8 8h160c4.42 0 8-3.58 8-8v-24c0-4.42-3.58-8-8-8z" stroke="#328220" stroke-width="2" fill="#b5e5aa" fill-opacity=".5"/><use xlink:href="#p" transform="matrix(1,0,0,1,49.626749218332975,240.02108594524515) translate(5.370370370370367 17.77777777777778)"/><use xlink:href="#q" transform="matrix(1,0,0,1,49.626749218332975,240.02108594524515) translate(104.07407407407408 17.77777777777778)"/><path d="M564.18 88.02c0 14.58-46.56 26.4-104 26.4s-104-11.82-104-26.4c0-14.58 46.56-26.4 104-26.4s104 11.82 104 26.4z" stroke="#f08c21" stroke-width="2" fill="#ffdbb6"/><use xlink:href="#r" transform="matrix(1,0,0,1,356.1785966216732,61.62108594524518) translate(41.10376543209876 31.02777777777778)"/><use xlink:href="#s" transform="matrix(1,0,0,1,356.1785966216732,61.62108594524518) translate(116.35067901234567 31.02777777777778)"/><path d="M218.63 88.3h118.32" stroke="#0b7cba" stroke-width="2" fill="none"/><path d="M218.63 89.3h-1v-2h1zM351.95 88.3l-14.27 4.65v-9.27z" fill="#0b7cba"/><path d="M355.18 88.3l-18.5 6.02V82.3zm-16.5 3.27l10.03-3.26-10.02-3.25z" fill="#0b7cba"/><path d="M565.18 88.02h21v37H129.63v5.06" stroke="#f08c21" stroke-width="2" fill="none"/><path d="M565.18 89.02h-1.07l.05-.34.02-.33V87.47l-.05-.33-.02-.12h1.08zM129.63 145.08L125 130.8h9.26z" fill="#f08c21"/><path d="M129.63 148.3l-6-18.5h12zm-3.26-16.5l3.26 10.04 3.26-10.03z" fill="#f08c21"/><path d="M565.18 88.02h21v123H129.63v1.77" stroke="#f08c21" stroke-width="2" fill="none"/><path d="M565.18 89.02h-1.07l.05-.34.02-.33V87.47l-.05-.33-.02-.12h1.08zM129.63 227.8L125 213.5h9.26z" fill="#f08c21"/><path d="M129.63 231.02l-6-18.5h12zm-3.26-16.5l3.26 10.03 3.26-10.03z" fill="#f08c21"/><path d="M218.63 331.3H327.5v-79.28h9.44" stroke="#0b7cba" stroke-width="2" fill="none"/><path d="M218.63 332.3h-1v-2h1zM351.94 252.02l-14.26 4.64v-9.27z" fill="#0b7cba"/><path d="M355.18 252.02l-18.5 6v-12zm-16.5 3.26l10.03-3.26-10.02-3.26z" fill="#0b7cba"/><path d="M564.18 415.02c0 14.58-46.56 26.4-104 26.4s-104-11.82-104-26.4c0-14.58 46.56-26.4 104-26.4s104 11.82 104 26.4z" stroke="#f08c21" stroke-width="2" fill="#ffdbb6"/><use xlink:href="#t" transform="matrix(1,0,0,1,356.1785966216732,388.6210859452452) translate(38.665493827160496 31.02777777777778)"/><use xlink:href="#u" transform="matrix(1,0,0,1,356.1785966216732,388.6210859452452) translate(96.56672839506173 31.02777777777778)"/><path d="M218.63 415.02h118.3" stroke="#328220" stroke-width="2" fill="none"/><path d="M218.63 416.02h-1v-2h1zM351.94 415.02l-14.26 4.64v-9.27z" fill="#328220"/><path d="M355.18 415.02l-18.5 6v-12zm-16.5 3.26l10.03-3.26-10.02-3.26z" fill="#328220"/><path d="M49.63 473.3c-4.42 0-8 3.6-8 8v24c0 4.43 3.58 8 8 8h160c4.42 0 8-3.57 8-8v-24c0-4.4-3.58-8-8-8z" stroke="#328220" stroke-width="2" fill="#b5e5aa" fill-opacity=".5"/><use xlink:href="#v" transform="matrix(1,0,0,1,49.626749218332975,481.31224738808817) translate(54.135802469135804 17.77777777777778)"/><path d="M565.18 415.02h22.33v40.37H130.95" stroke="#f08c21" stroke-width="2" fill="none"/><path d="M565.18 416.02h-1.07l.05-.34.02-.33V414.47l-.05-.33-.02-.12h1.08zM135.6 455.22l-5.72 13.87-3.52-14.6z" fill="#f08c21"/><path d="M137.05 454.33l-7.42 17.98-4.57-18.9zm-6.92 11.53l4.02-9.75-6.5-.5z" fill="#f08c21"/><path d="M566.18 578.02c0 14.58-46.56 26.4-104 26.4s-104-11.82-104-26.4c0-14.58 46.56-26.4 104-26.4s104 11.82 104 26.4z" stroke="#f08c21" stroke-width="2" fill="#ffdbb6"/><use xlink:href="#w" transform="matrix(1,0,0,1,358.17859662167314,551.6210859452453) translate(42.369197530864206 31.02777777777778)"/><use xlink:href="#x" transform="matrix(1,0,0,1,358.17859662167314,551.6210859452453) translate(91.69018518518519 31.02777777777778)"/><path d="M49.63 558.02c-4.42 0-8 3.58-8 8v24c0 4.42 3.58 8 8 8h160c4.42 0 8-3.58 8-8v-24c0-4.42-3.58-8-8-8z" stroke="#328220" stroke-width="2" fill="#b5e5aa" fill-opacity=".5"/><use xlink:href="#y" transform="matrix(1,0,0,1,49.626749218332975,566.0210859452453) translate(24.537037037037038 17.77777777777778)"/><use xlink:href="#z" transform="matrix(1,0,0,1,49.626749218332975,566.0210859452453) translate(82.43827160493828 17.77777777777778)"/><path d="M565.18 415.02h22.33V531.7H129.64v7.1" stroke="#f08c21" stroke-width="2" fill="none"/><path d="M565.18 416.02h-1.07l.05-.34.02-.33V414.47l-.05-.33-.02-.12h1.08zM129.63 553.8L125 539.5h9.26z" fill="#f08c21"/><path d="M129.63 557.02l-6-18.5h12zm-3.26-16.5l3.26 10.03 3.26-10.03z" fill="#f08c21"/><path d="M218.63 415.02h38.33v163h81.98" stroke="#328220" stroke-width="2" fill="none"/><path d="M218.63 416.02h-1v-2h1zM353.94 578.02l-14.26 4.64v-9.27z" fill="#328220"/><path d="M357.18 578.02l-18.5 6v-12zm-16.5 3.26l10.03-3.26-10.02-3.26z" fill="#328220"/><path d="M218.63 578.02h120.3" stroke="#328220" stroke-width="2" fill="none"/><path d="M218.63 579.02h-1v-2h1zM353.94 578.02l-14.26 4.64v-9.27z" fill="#328220"/><path d="M357.18 578.02l-18.5 6v-12zm-16.5 3.26l10.03-3.26-10.02-3.26z" fill="#328220"/><path d="M49.63 720.02c-4.42 0-8 3.58-8 8v24c0 4.42 3.58 8 8 8h160c4.42 0 8-3.58 8-8v-24c0-4.42-3.58-8-8-8z" stroke="#328220" stroke-width="2" fill="#b5e5aa" fill-opacity=".5"/><use xlink:href="#A" transform="matrix(1,0,0,1,49.626749218332975,728.0210859452451) translate(46.7283950617284 17.77777777777778)"/><path d="M564.18 659.02c0 14.58-46.56 26.4-104 26.4s-104-11.82-104-26.4c0-14.58 46.56-26.4 104-26.4s104 11.82 104 26.4z" stroke="#f08c21" stroke-width="2" fill="#ffdbb6"/><use xlink:href="#B" transform="matrix(1,0,0,1,356.1785966216732,632.6210859452451) translate(70.7333950617284 31.02777777777778)"/><path d="M567.18 578.02h20.33v35H129.64v6.77" stroke="#f08c21" stroke-width="2" fill="none"/><path d="M567.18 579.02h-1.07l.05-.34.02-.33V577.47l-.05-.33-.02-.12h1.08zM129.63 634.8L125 620.5h9.26z" fill="#f08c21"/><path d="M129.63 638.02l-6-18.5h12zm-3.26-16.5l3.26 10.03 3.26-10.03z" fill="#f08c21"/><path d="M565.18 659.02h22.33v36.13H129.64v5.64" stroke="#f08c21" stroke-width="2" fill="none"/><path d="M565.18 660.02h-1.07l.05-.34.02-.33V658.47l-.05-.33-.02-.12h1.08zM129.63 715.8L125 701.5h9.26z" fill="#f08c21"/><path d="M129.63 719.02l-6-18.5h12zm-3.26-16.5l3.26 10.03 3.26-10.03z" fill="#f08c21"/><path d="M218.63 578.02h94.33v81h23.98" stroke="#328220" stroke-width="2" fill="none"/><path d="M218.63 579.02h-1v-2h1zM351.94 659.02l-14.26 4.64v-9.27z" fill="#328220"/><path d="M355.18 659.02l-18.5 6v-12zm-16.5 3.26l10.03-3.26-10.02-3.26z" fill="#328220"/><path d="M49.63 884.42c-4.42 0-8 3.58-8 8v24c0 4.42 3.58 8 8 8h160c4.42 0 8-3.58 8-8v-24c0-4.42-3.58-8-8-8z" stroke="#328220" stroke-width="2" fill="#b5e5aa" fill-opacity=".5"/><use xlink:href="#C" transform="matrix(1,0,0,1,49.626749218332975,892.4210859452452) translate(56.60493827160494 17.77777777777778)"/><path d="M565.18 740.02h21.52v119.55H129.63v5.62" stroke="#f08c21" stroke-width="2" fill="none"/><path d="M565.18 741.02h-1.07l.05-.34.02-.33V739.47l-.05-.33-.02-.12h1.08zM129.63 880.2L125 865.9h9.26z" fill="#f08c21"/><path d="M129.63 883.42l-6-18.5h12zm-3.26-16.5l3.26 10.03 3.26-10.03z" fill="#f08c21"/><path d="M49.63 959.3c-4.42 0-8 3.6-8 8v24c0 4.43 3.58 8 8 8h160c4.42 0 8-3.57 8-8v-24c0-4.4-3.58-8-8-8z" stroke="#328220" stroke-width="2" fill="#b5e5aa" fill-opacity=".5"/><use xlink:href="#D" transform="matrix(1,0,0,1,49.626749218332975,967.3122473880882) translate(11.574074074074076 17.77777777777778)"/><use xlink:href="#E" transform="matrix(1,0,0,1,49.626749218332975,967.3122473880882) translate(57.129629629629626 17.77777777777778)"/><path d="M218.63 659.02h59.66v245.4h61.1" stroke="#328220" stroke-width="2" fill="none"/><path d="M218.63 660.02h-1v-2h1zM354.4 904.42l-14.28 4.64v-9.27z" fill="#328220"/><path d="M357.63 904.42l-18.5 6v-12zm-16.5 3.26l10.02-3.26-10.03-3.26z" fill="#328220"/><path d="M218.63 578.02h77v326.4h43.76" stroke="#328220" stroke-width="2" fill="none"/><path d="M218.63 579.02h-1v-2h1zM354.4 904.42l-14.28 4.64v-9.27z" fill="#328220"/><path d="M357.63 904.42l-18.5 6v-12zm-16.5 3.26l10.02-3.26-10.03-3.26z" fill="#328220"/><path d="M218.63 169.3h97v245.72h21.3" stroke="#328220" stroke-width="2" fill="none"/><path d="M218.63 170.3h-1v-2h1zM351.94 415.02l-14.26 4.64v-9.27z" fill="#328220"/><path d="M355.18 415.02l-18.5 6v-12zm-16.5 3.26l10.03-3.26-10.02-3.26z" fill="#328220"/><path d="M218.63 252.02h50.33v163h67.98" stroke="#328220" stroke-width="2" fill="none"/><path d="M218.63 253.02h-1v-2h1zM351.94 415.02l-14.26 4.64v-9.27z" fill="#328220"/><path d="M355.18 415.02l-18.5 6v-12zm-16.5 3.26l10.03-3.26-10.02-3.26z" fill="#328220"/><path d="M218.63 169.3h81v408.72h39.3" stroke="#328220" stroke-width="2" fill="none"/><path d="M218.63 170.3h-1v-2h1zM353.94 578.02l-14.26 4.64v-9.27z" fill="#328220"/><path d="M357.18 578.02l-18.5 6v-12zm-16.5 3.26l10.03-3.26-10.02-3.26z" fill="#328220"/><path d="M218.63 252.02h65v326h55.3" stroke="#328220" stroke-width="2" fill="none"/><path d="M218.63 253.02h-1v-2h1zM353.94 578.02l-14.26 4.64v-9.27z" fill="#328220"/><path d="M357.18 578.02l-18.5 6v-12zm-16.5 3.26l10.03-3.26-10.02-3.26z" fill="#328220"/><path d="M567.63 904.42h18.66v36.6H130.56" stroke="#f08c21" stroke-width="2" fill="none"/><path d="M567.63 905.42h-1.08l.04-.34.02-.33v-.55l-.02-.33-.03-.33-.02-.12h1.08zM135.2 941.1l-5.4 13.98-3.85-14.5z" fill="#f08c21"/><path d="M136.64 940.17l-7 18.14-5-18.8zm-6.66 11.68l3.8-9.84-6.5-.34z" fill="#f08c21"/><path d="M49.35 1042.7c-4.42 0-8 3.57-8 8v24c0 4.4 3.58 8 8 8h160c4.4 0 8-3.6 8-8v-24c0-4.43-3.6-8-8-8z" stroke="#328220" stroke-width="2" fill="#b5e5aa" fill-opacity=".5"/><use xlink:href="#F" transform="matrix(1,0,0,1,49.34526328833988,1050.687752611912) translate(28.30246913580247 17.77777777777778)"/><use xlink:href="#G" transform="matrix(1,0,0,1,49.34526328833988,1050.687752611912) translate(84.9074074074074 17.77777777777778)"/><path d="M564.35 979.43c0 14.58-46.57 26.4-104 26.4-57.44 0-104-11.82-104-26.4 0-14.58 46.56-26.4 104-26.4 57.43 0 104 11.82 104 26.4z" stroke="#f08c21" stroke-width="2" fill="#ffdbb6"/><use xlink:href="#H" transform="matrix(1,0,0,1,356.34526328833994,953.0324620605502) translate(80.60993827160493 31.02777777777778)"/><path d="M218.63 979.3H287v.13h50.1" stroke="#328220" stroke-width="2" fill="none"/><path d="M218.63 980.3h-1v-2h1zM352.1 979.43l-14.26 4.64v-9.27z" fill="#328220"/><path d="M355.35 979.43l-18.5 6v-12zm-16.5 3.26l10.02-3.27-10.03-3.26z" fill="#328220"/><path d="M218.63 659.02h43.66v320.4h74.8" stroke="#328220" stroke-width="2" fill="none"/><path d="M218.63 660.02h-1v-2h1zM352.1 979.43l-14.26 4.64v-9.27z" fill="#328220"/><path d="M355.35 979.43l-18.5 6v-12zm-16.5 3.26l10.02-3.27-10.03-3.26z" fill="#328220"/><path d="M565.35 979.43h19.33v40.26H129.35v3.75" stroke="#f08c21" stroke-width="2" fill="none"/><path d="M565.35 980.43h-1.08l.04-.34.04-.34v-.55l-.02-.32-.03-.33-.03-.12h1.08zM129.35 1038.45l-4.64-14.26H134z" fill="#f08c21"/><path d="M129.35 1041.7l-6.02-18.5h12.03zm-3.26-16.5l3.25 10.02 3.25-10.03z" fill="#f08c21"/><path d="M564.35 1062.7c0 14.57-46.57 26.4-104 26.4-57.44 0-104-11.83-104-26.4 0-14.6 46.56-26.4 104-26.4 57.43 0 104 11.8 104 26.4z" stroke="#f08c21" stroke-width="2" fill="#ffdbb6"/><use xlink:href="#I" transform="matrix(1,0,0,1,356.34526328833994,1036.2877526119119) translate(44.22104938271605 31.02777777777778)"/><use xlink:href="#J" transform="matrix(1,0,0,1,356.34526328833994,1036.2877526119119) translate(114.46796296296296 31.02777777777778)"/><path d="M218.63 659.02h14.05v403.67H337.1" stroke="#328220" stroke-width="2" fill="none"/><path d="M218.7 658.02l-.14 2-.93-.06v-2zM352.1 1062.7l-14.26 4.62v-9.27z" fill="#328220"/><path d="M355.35 1062.7l-18.5 6v-12.02zm-16.5 3.25l10.02-3.26-10.03-3.27z" fill="#328220"/><path d="M218.35 1062.7H337.1" stroke="#328220" stroke-width="2" fill="none"/><path d="M218.35 1063.7h-1v-2h1zM352.1 1062.7l-14.26 4.62v-9.27z" fill="#328220"/><path d="M355.35 1062.7l-18.5 6v-12.02zm-16.5 3.25l10.02-3.26-10.03-3.27z" fill="#328220"/><path d="M49.35 1123.9c-4.42 0-8 3.57-8 8v24c0 4.4 3.58 8 8 8h160c4.4 0 8-3.6 8-8v-24c0-4.43-3.6-8-8-8z" stroke="#328220" stroke-width="2" fill="#b5e5aa" fill-opacity=".5"/><g><use xlink:href="#K" transform="matrix(1,0,0,1,49.34526328833988,1131.8905284831858) translate(23.888888888888886 17.77777777777778)"/><use xlink:href="#L" transform="matrix(1,0,0,1,49.34526328833988,1131.8905284831858) translate(76.91358024691358 17.77777777777778)"/></g><path d="M565.35 1062.7h18V1101h-454v3.63" stroke="#f08c21" stroke-width="2" fill="none"/><path d="M565.35 1063.7h-1.08v-.02l.04-.33.04-.33v-.56l-.02-.33-.03-.33-.03-.1h1.08zM129.35 1119.65l-4.64-14.26H134z" fill="#f08c21"/><path d="M129.35 1122.9l-6.02-18.5h12.03zm-3.26-16.5l3.25 10.02 3.25-10.03z" fill="#f08c21"/><defs><path d="M88-194c31-1 46 15 58 34l-1-101h50l1 261h-48c-2-10 0-23-3-31C134-8 116 4 84 4 32 4 16-41 15-95c0-56 19-97 73-99zm17 164c33 0 40-30 41-66 1-37-9-64-41-64s-38 30-39 65c0 43 13 65 39 65" id="M"/><path d="M230 0l2-204L168 0h-37L68-204 70 0H24v-248h70l56 185 57-185h69V0h-46" id="N"/><path d="M240-174c0 40-23 61-54 70L253 0h-59l-57-94H76V0H24v-248c93 4 217-23 216 74zM76-134c48-2 112 12 112-38 0-48-66-32-112-35v73" id="O"/><path d="M24 0v-248h52V0H24" id="P"/><g id="a"><use transform="matrix(0.07407407407407408,0,0,0.07407407407407408,0,0)" xlink:href="#M"/><use transform="matrix(0.07407407407407408,0,0,0.07407407407407408,16.222222222222225,0)" xlink:href="#N"/><use transform="matrix(0.07407407407407408,0,0,0.07407407407407408,38.37037037037038,0)" xlink:href="#O"/><use transform="matrix(0.07407407407407408,0,0,0.07407407407407408,57.55555555555557,0)" xlink:href="#P"/></g><path d="M169-182c-1-43-94-46-97-3 18 66 151 10 154 114 3 95-165 93-204 36-6-8-10-19-12-30l50-8c3 46 112 56 116 5-17-69-150-10-154-114-4-87 153-88 188-35 5 8 8 18 10 28" id="Q"/><path d="M115-3C79 11 28 4 28-45v-112H4v-33h27l15-45h31v45h36v33H77v99c-1 23 16 31 38 25v30" id="R"/><path d="M85 4C-2 5 27-109 22-190h50c7 57-23 150 33 157 60-5 35-97 40-157h50l1 190h-47c-2-12 1-28-3-38-12 25-28 42-61 42" id="S"/><path d="M123 10C108 53 80 86 19 72V37c35 8 53-11 59-39L3-190h52l48 148c12-52 28-100 44-148h51" id="T"/><g id="b"><use transform="matrix(0.07407407407407408,0,0,0.07407407407407408,0,0)" xlink:href="#Q"/><use transform="matrix(0.07407407407407408,0,0,0.07407407407407408,17.77777777777778,0)" xlink:href="#R"/><use transform="matrix(0.07407407407407408,0,0,0.07407407407407408,26.592592592592595,0)" xlink:href="#S"/><use transform="matrix(0.07407407407407408,0,0,0.07407407407407408,42.814814814814824,0)" xlink:href="#M"/><use transform="matrix(0.07407407407407408,0,0,0.07407407407407408,59.03703703703705,0)" xlink:href="#T"/></g><path d="M240 0l2-218c-23 76-54 145-80 218h-23L58-218 59 0H30v-248h44l77 211c21-75 51-140 76-211h43V0h-30" id="U"/><path d="M141-36C126-15 110 5 73 4 37 3 15-17 15-53c-1-64 63-63 125-63 3-35-9-54-41-54-24 1-41 7-42 31l-33-3c5-37 33-52 76-52 45 0 72 20 72 64v82c-1 20 7 32 28 27v20c-31 9-61-2-59-35zM48-53c0 20 12 33 32 33 41-3 63-29 60-74-43 2-92-5-92 41" id="V"/><path d="M177-190C167-65 218 103 67 71c-23-6-38-20-44-43l32-5c15 47 100 32 89-28v-30C133-14 115 1 83 1 29 1 15-40 15-95c0-56 16-97 71-98 29-1 48 16 59 35 1-10 0-23 2-32h30zM94-22c36 0 50-32 50-73 0-42-14-75-50-75-39 0-46 34-46 75s6 73 46 73" id="W"/><path d="M117-194c89-4 53 116 60 194h-32v-121c0-31-8-49-39-48C34-167 62-67 57 0H25l-1-190h30c1 10-1 24 2 32 11-22 29-35 61-36" id="X"/><path d="M24-231v-30h32v30H24zM24 0v-190h32V0H24" id="Y"/><path d="M59-47c-2 24 18 29 38 22v24C64 9 27 4 27-40v-127H5v-23h24l9-43h21v43h35v23H59v120" id="Z"/><path d="M84 4C-5 8 30-112 23-190h32v120c0 31 7 50 39 49 72-2 45-101 50-169h31l1 190h-30c-1-10 1-25-2-33-11 22-28 36-60 37" id="aa"/><path d="M85-194c31 0 48 13 60 33l-1-100h32l1 261h-30c-2-10 0-23-3-31C134-8 116 4 85 4 32 4 16-35 15-94c0-66 23-100 70-100zm9 24c-40 0-46 34-46 75 0 40 6 74 45 74 42 0 51-32 51-76 0-42-9-74-50-73" id="ab"/><path d="M100-194c63 0 86 42 84 106H49c0 40 14 67 53 68 26 1 43-12 49-29l28 8c-11 28-37 45-77 45C44 4 14-33 15-96c1-61 26-98 85-98zm52 81c6-60-76-77-97-28-3 7-6 17-6 28h103" id="ac"/><g id="c"><use transform="matrix(0.06172839506172839,0,0,0.06172839506172839,0,0)" xlink:href="#U"/><use transform="matrix(0.06172839506172839,0,0,0.06172839506172839,18.456790123456788,0)" xlink:href="#V"/><use transform="matrix(0.06172839506172839,0,0,0.06172839506172839,30.80246913580247,0)" xlink:href="#W"/><use transform="matrix(0.06172839506172839,0,0,0.06172839506172839,43.148148148148145,0)" xlink:href="#X"/><use transform="matrix(0.06172839506172839,0,0,0.06172839506172839,55.49382716049382,0)" xlink:href="#Y"/><use transform="matrix(0.06172839506172839,0,0,0.06172839506172839,60.37037037037037,0)" xlink:href="#Z"/><use transform="matrix(0.06172839506172839,0,0,0.06172839506172839,66.5432098765432,0)" xlink:href="#aa"/><use transform="matrix(0.06172839506172839,0,0,0.06172839506172839,78.88888888888889,0)" xlink:href="#ab"/><use transform="matrix(0.06172839506172839,0,0,0.06172839506172839,91.23456790123457,0)" xlink:href="#ac"/></g><path d="M160-131c35 5 61 23 61 61C221 17 115-2 30 0v-248c76 3 177-17 177 60 0 33-19 50-47 57zm-97-11c50-1 110 9 110-42 0-47-63-36-110-37v79zm0 115c55-2 124 14 124-45 0-56-70-42-124-44v89" id="ad"/><path d="M135-143c-3-34-86-38-87 0 15 53 115 12 119 90S17 21 10-45l28-5c4 36 97 45 98 0-10-56-113-15-118-90-4-57 82-63 122-42 12 7 21 19 24 35" id="ae"/><g id="d"><use transform="matrix(0.06172839506172839,0,0,0.06172839506172839,0,0)" xlink:href="#ad"/><use transform="matrix(0.06172839506172839,0,0,0.06172839506172839,14.814814814814813,0)" xlink:href="#Y"/><use transform="matrix(0.06172839506172839,0,0,0.06172839506172839,19.691358024691354,0)" xlink:href="#V"/><use transform="matrix(0.06172839506172839,0,0,0.06172839506172839,32.03703703703703,0)" xlink:href="#ae"/></g><path d="M96-169c-40 0-48 33-48 73s9 75 48 75c24 0 41-14 43-38l32 2c-6 37-31 61-74 61-59 0-76-41-82-99-10-93 101-131 147-64 4 7 5 14 7 22l-32 3c-4-21-16-35-41-35" id="af"/><path d="M100-194c62-1 85 37 85 99 1 63-27 99-86 99S16-35 15-95c0-66 28-99 85-99zM99-20c44 1 53-31 53-75 0-43-8-75-51-75s-53 32-53 75 10 74 51 75" id="ag"/><path d="M114-163C36-179 61-72 57 0H25l-1-190h30c1 12-1 29 2 39 6-27 23-49 58-41v29" id="ah"/><g id="e"><use transform="matrix(0.06172839506172839,0,0,0.06172839506172839,0,0)" xlink:href="#af"/><use transform="matrix(0.06172839506172839,0,0,0.06172839506172839,11.11111111111111,0)" xlink:href="#ag"/><use transform="matrix(0.06172839506172839,0,0,0.06172839506172839,23.45679012345679,0)" xlink:href="#ah"/><use transform="matrix(0.06172839506172839,0,0,0.06172839506172839,30.80246913580247,0)" xlink:href="#ah"/><use transform="matrix(0.06172839506172839,0,0,0.06172839506172839,38.148148148148145,0)" xlink:href="#ac"/><use transform="matrix(0.06172839506172839,0,0,0.06172839506172839,50.49382716049382,0)" xlink:href="#af"/><use transform="matrix(0.06172839506172839,0,0,0.06172839506172839,61.60493827160494,0)" xlink:href="#Z"/><use transform="matrix(0.06172839506172839,0,0,0.06172839506172839,67.77777777777777,0)" xlink:href="#ac"/><use transform="matrix(0.06172839506172839,0,0,0.06172839506172839,80.12345679012346,0)" xlink:href="#ab"/></g><path d="M63-220v92h138v28H63V0H30v-248h175v28H63" id="ai"/><path d="M205 0l-28-72H64L36 0H1l101-248h38L239 0h-34zm-38-99l-47-123c-12 45-31 82-46 123h93" id="aj"/><g id="f"><use transform="matrix(0.06172839506172839,0,0,0.06172839506172839,0,0)" xlink:href="#ai"/><use transform="matrix(0.06172839506172839,0,0,0.06172839506172839,12.28395061728395,0)" xlink:href="#aj"/></g><path d="M30-248c87 1 191-15 191 75 0 78-77 80-158 76V0H30v-248zm33 125c57 0 124 11 124-50 0-59-68-47-124-48v98" id="ak"/><path d="M115-194c55 1 70 41 70 98S169 2 115 4C84 4 66-9 55-30l1 105H24l-1-265h31l2 30c10-21 28-34 59-34zm-8 174c40 0 45-34 45-75s-6-73-45-74c-42 0-51 32-51 76 0 43 10 73 51 73" id="al"/><g id="g"><use transform="matrix(0.06172839506172839,0,0,0.06172839506172839,0,0)" xlink:href="#ak"/><use transform="matrix(0.06172839506172839,0,0,0.06172839506172839,14.814814814814813,0)" xlink:href="#ah"/><use transform="matrix(0.06172839506172839,0,0,0.06172839506172839,22.160493827160494,0)" xlink:href="#ac"/><use transform="matrix(0.06172839506172839,0,0,0.06172839506172839,34.50617283950617,0)" xlink:href="#al"/><use transform="matrix(0.06172839506172839,0,0,0.06172839506172839,46.85185185185185,0)" xlink:href="#ah"/><use transform="matrix(0.06172839506172839,0,0,0.06172839506172839,54.197530864197525,0)" xlink:href="#ag"/><use transform="matrix(0.06172839506172839,0,0,0.06172839506172839,66.5432098765432,0)" xlink:href="#af"/><use transform="matrix(0.06172839506172839,0,0,0.06172839506172839,77.65432098765432,0)" xlink:href="#ac"/><use transform="matrix(0.06172839506172839,0,0,0.06172839506172839,90,0)" xlink:href="#ae"/><use transform="matrix(0.06172839506172839,0,0,0.06172839506172839,101.11111111111111,0)" xlink:href="#ae"/></g><path d="M233-177c-1 41-23 64-60 70L243 0h-38l-65-103H63V0H30v-248c88 3 205-21 203 71zM63-129c60-2 137 13 137-47 0-61-80-42-137-45v92" id="am"/><path d="M33 0v-38h34V0H33" id="an"/><g id="h"><use transform="matrix(0.06172839506172839,0,0,0.06172839506172839,0,0)" xlink:href="#am"/><use transform="matrix(0.06172839506172839,0,0,0.06172839506172839,15.987654320987653,0)" xlink:href="#ac"/><use transform="matrix(0.06172839506172839,0,0,0.06172839506172839,28.333333333333332,0)" xlink:href="#ae"/><use transform="matrix(0.06172839506172839,0,0,0.06172839506172839,39.44444444444444,0)" xlink:href="#al"/><use transform="matrix(0.06172839506172839,0,0,0.06172839506172839,51.79012345679012,0)" xlink:href="#ag"/><use transform="matrix(0.06172839506172839,0,0,0.06172839506172839,64.1358024691358,0)" xlink:href="#X"/><use transform="matrix(0.06172839506172839,0,0,0.06172839506172839,76.48148148148148,0)" xlink:href="#ae"/><use transform="matrix(0.06172839506172839,0,0,0.06172839506172839,87.5925925925926,0)" xlink:href="#an"/></g><g id="i"><use transform="matrix(0.06172839506172839,0,0,0.06172839506172839,0,0)" xlink:href="#ac"/><use transform="matrix(0.06172839506172839,0,0,0.06172839506172839,12.345679012345679,0)" xlink:href="#ae"/><use transform="matrix(0.06172839506172839,0,0,0.06172839506172839,23.45679012345679,0)" xlink:href="#Z"/><use transform="matrix(0.06172839506172839,0,0,0.06172839506172839,29.62962962962963,0)" xlink:href="#an"/></g><path d="M127-220V0H93v-220H8v-28h204v28h-85" id="ao"/><g id="j"><use transform="matrix(0.06172839506172839,0,0,0.06172839506172839,0,0)" xlink:href="#ao"/><use transform="matrix(0.06172839506172839,0,0,0.06172839506172839,11.049382716049381,0)" xlink:href="#ac"/><use transform="matrix(0.06172839506172839,0,0,0.06172839506172839,23.39506172839506,0)" xlink:href="#X"/><use transform="matrix(0.06172839506172839,0,0,0.06172839506172839,35.74074074074074,0)" xlink:href="#ae"/><use transform="matrix(0.06172839506172839,0,0,0.06172839506172839,46.85185185185185,0)" xlink:href="#an"/></g><path d="M210-169c-67 3-38 105-44 169h-31v-121c0-29-5-50-35-48C34-165 62-65 56 0H25l-1-190h30c1 10-1 24 2 32 10-44 99-50 107 0 11-21 27-35 58-36 85-2 47 119 55 194h-31v-121c0-29-5-49-35-48" id="ap"/><g id="k"><use transform="matrix(0.06172839506172839,0,0,0.06172839506172839,0,0)" xlink:href="#ap"/><use transform="matrix(0.06172839506172839,0,0,0.06172839506172839,18.456790123456788,0)" xlink:href="#ac"/><use transform="matrix(0.06172839506172839,0,0,0.06172839506172839,30.80246913580247,0)" xlink:href="#Z"/><use transform="matrix(0.06172839506172839,0,0,0.06172839506172839,36.97530864197531,0)" xlink:href="#ah"/><use transform="matrix(0.06172839506172839,0,0,0.06172839506172839,44.32098765432099,0)" xlink:href="#Y"/><use transform="matrix(0.06172839506172839,0,0,0.06172839506172839,49.19753086419753,0)" xlink:href="#af"/><use transform="matrix(0.06172839506172839,0,0,0.06172839506172839,60.308641975308646,0)" xlink:href="#ae"/></g><path d="M108 0H70L1-190h34L89-25l56-165h34" id="aq"/><g id="l"><use transform="matrix(0.06172839506172839,0,0,0.06172839506172839,0,0)" xlink:href="#am"/><use transform="matrix(0.06172839506172839,0,0,0.06172839506172839,15.987654320987653,0)" xlink:href="#ac"/><use transform="matrix(0.06172839506172839,0,0,0.06172839506172839,28.333333333333332,0)" xlink:href="#aq"/><use transform="matrix(0.06172839506172839,0,0,0.06172839506172839,39.44444444444444,0)" xlink:href="#ac"/><use transform="matrix(0.06172839506172839,0,0,0.06172839506172839,51.79012345679012,0)" xlink:href="#ah"/><use transform="matrix(0.06172839506172839,0,0,0.06172839506172839,59.1358024691358,0)" xlink:href="#ae"/><use transform="matrix(0.06172839506172839,0,0,0.06172839506172839,70.24691358024691,0)" xlink:href="#ac"/></g><path d="M30 0v-248h187v28H63v79h144v27H63v87h162V0H30" id="ar"/><g id="m"><use transform="matrix(0.06172839506172839,0,0,0.06172839506172839,0,0)" xlink:href="#ak"/><use transform="matrix(0.06172839506172839,0,0,0.06172839506172839,11.975308641975307,0)" xlink:href="#an"/><use transform="matrix(0.06172839506172839,0,0,0.06172839506172839,18.148148148148145,0)" xlink:href="#ar"/><use transform="matrix(0.06172839506172839,0,0,0.06172839506172839,32.96296296296296,0)" xlink:href="#an"/></g><g id="n"><use transform="matrix(0.06172839506172839,0,0,0.06172839506172839,0,0)" xlink:href="#ak"/><use transform="matrix(0.06172839506172839,0,0,0.06172839506172839,14.814814814814813,0)" xlink:href="#ah"/><use transform="matrix(0.06172839506172839,0,0,0.06172839506172839,22.160493827160494,0)" xlink:href="#ac"/><use transform="matrix(0.06172839506172839,0,0,0.06172839506172839,34.50617283950617,0)" xlink:href="#al"/><use transform="matrix(0.06172839506172839,0,0,0.06172839506172839,46.85185185185185,0)" xlink:href="#ah"/><use transform="matrix(0.06172839506172839,0,0,0.06172839506172839,54.197530864197525,0)" xlink:href="#ag"/><use transform="matrix(0.06172839506172839,0,0,0.06172839506172839,66.5432098765432,0)" xlink:href="#af"/><use transform="matrix(0.06172839506172839,0,0,0.06172839506172839,77.65432098765432,0)" xlink:href="#ac"/><use transform="matrix(0.06172839506172839,0,0,0.06172839506172839,90,0)" xlink:href="#ae"/><use transform="matrix(0.06172839506172839,0,0,0.06172839506172839,101.11111111111111,0)" xlink:href="#ae"/><use transform="matrix(0.06172839506172839,0,0,0.06172839506172839,112.22222222222223,0)" xlink:href="#ac"/><use transform="matrix(0.06172839506172839,0,0,0.06172839506172839,124.56790123456791,0)" xlink:href="#ab"/></g><path d="M115-194c53 0 69 39 70 98 0 66-23 100-70 100C84 3 66-7 56-30L54 0H23l1-261h32v101c10-23 28-34 59-34zm-8 174c40 0 45-34 45-75 0-40-5-75-45-74-42 0-51 32-51 76 0 43 10 73 51 73" id="as"/><path d="M16-82v-28h88v28H16" id="at"/><path d="M24 0v-261h32V0H24" id="au"/><g id="o"><use transform="matrix(0.06172839506172839,0,0,0.06172839506172839,0,0)" xlink:href="#as"/><use transform="matrix(0.06172839506172839,0,0,0.06172839506172839,12.345679012345679,0)" xlink:href="#at"/><use transform="matrix(0.06172839506172839,0,0,0.06172839506172839,19.691358024691358,0)" xlink:href="#aq"/><use transform="matrix(0.06172839506172839,0,0,0.06172839506172839,30.80246913580247,0)" xlink:href="#V"/><use transform="matrix(0.06172839506172839,0,0,0.06172839506172839,43.148148148148145,0)" xlink:href="#au"/><use transform="matrix(0.06172839506172839,0,0,0.06172839506172839,48.02469135802469,0)" xlink:href="#aa"/><use transform="matrix(0.06172839506172839,0,0,0.06172839506172839,60.37037037037037,0)" xlink:href="#ac"/><use transform="matrix(0.06172839506172839,0,0,0.06172839506172839,72.71604938271605,0)" xlink:href="#ae"/></g><g id="p"><use transform="matrix(0.06172839506172839,0,0,0.06172839506172839,0,0)" xlink:href="#ar"/><use transform="matrix(0.06172839506172839,0,0,0.06172839506172839,14.814814814814813,0)" xlink:href="#X"/><use transform="matrix(0.06172839506172839,0,0,0.06172839506172839,27.160493827160494,0)" xlink:href="#af"/><use transform="matrix(0.06172839506172839,0,0,0.06172839506172839,38.27160493827161,0)" xlink:href="#ag"/><use transform="matrix(0.06172839506172839,0,0,0.06172839506172839,50.617283950617285,0)" xlink:href="#ab"/><use transform="matrix(0.06172839506172839,0,0,0.06172839506172839,62.96296296296296,0)" xlink:href="#Y"/><use transform="matrix(0.06172839506172839,0,0,0.06172839506172839,67.8395061728395,0)" xlink:href="#X"/><use transform="matrix(0.06172839506172839,0,0,0.06172839506172839,80.18518518518519,0)" xlink:href="#W"/></g><g id="q"><use transform="matrix(0.06172839506172839,0,0,0.06172839506172839,0,0)" xlink:href="#W"/><use transform="matrix(0.06172839506172839,0,0,0.06172839506172839,12.345679012345679,0)" xlink:href="#ah"/><use transform="matrix(0.06172839506172839,0,0,0.06172839506172839,19.691358024691358,0)" xlink:href="#V"/><use transform="matrix(0.06172839506172839,0,0,0.06172839506172839,32.03703703703704,0)" xlink:href="#ab"/><use transform="matrix(0.06172839506172839,0,0,0.06172839506172839,44.382716049382715,0)" xlink:href="#an"/></g><path d="M141 0L90-78 38 0H4l68-98-65-92h35l48 74 47-74h35l-64 92 68 98h-35" id="av"/><g id="r"><use transform="matrix(0.06172839506172839,0,0,0.06172839506172839,0,0)" xlink:href="#ar"/><use transform="matrix(0.06172839506172839,0,0,0.06172839506172839,14.814814814814813,0)" xlink:href="#av"/><use transform="matrix(0.06172839506172839,0,0,0.06172839506172839,25.925925925925924,0)" xlink:href="#Z"/><use transform="matrix(0.06172839506172839,0,0,0.06172839506172839,32.098765432098766,0)" xlink:href="#ah"/><use transform="matrix(0.06172839506172839,0,0,0.06172839506172839,39.44444444444444,0)" xlink:href="#V"/><use transform="matrix(0.06172839506172839,0,0,0.06172839506172839,51.79012345679012,0)" xlink:href="#af"/><use transform="matrix(0.06172839506172839,0,0,0.06172839506172839,62.90123456790123,0)" xlink:href="#Z"/></g><g id="s"><use transform="matrix(0.06172839506172839,0,0,0.06172839506172839,0,0)" xlink:href="#W"/><use transform="matrix(0.06172839506172839,0,0,0.06172839506172839,12.345679012345679,0)" xlink:href="#ah"/><use transform="matrix(0.06172839506172839,0,0,0.06172839506172839,19.691358024691358,0)" xlink:href="#V"/><use transform="matrix(0.06172839506172839,0,0,0.06172839506172839,32.03703703703704,0)" xlink:href="#ab"/><use transform="matrix(0.06172839506172839,0,0,0.06172839506172839,44.382716049382715,0)" xlink:href="#an"/></g><g id="t"><use transform="matrix(0.06172839506172839,0,0,0.06172839506172839,0,0)" xlink:href="#ad"/><use transform="matrix(0.06172839506172839,0,0,0.06172839506172839,14.814814814814813,0)" xlink:href="#ah"/><use transform="matrix(0.06172839506172839,0,0,0.06172839506172839,22.160493827160494,0)" xlink:href="#V"/><use transform="matrix(0.06172839506172839,0,0,0.06172839506172839,34.50617283950617,0)" xlink:href="#Y"/><use transform="matrix(0.06172839506172839,0,0,0.06172839506172839,39.382716049382715,0)" xlink:href="#X"/></g><g id="u"><use transform="matrix(0.06172839506172839,0,0,0.06172839506172839,0,0)" xlink:href="#ac"/><use transform="matrix(0.06172839506172839,0,0,0.06172839506172839,12.345679012345679,0)" xlink:href="#av"/><use transform="matrix(0.06172839506172839,0,0,0.06172839506172839,23.45679012345679,0)" xlink:href="#Z"/><use transform="matrix(0.06172839506172839,0,0,0.06172839506172839,29.62962962962963,0)" xlink:href="#ah"/><use transform="matrix(0.06172839506172839,0,0,0.06172839506172839,36.97530864197531,0)" xlink:href="#V"/><use transform="matrix(0.06172839506172839,0,0,0.06172839506172839,49.32098765432099,0)" xlink:href="#af"/><use transform="matrix(0.06172839506172839,0,0,0.06172839506172839,60.4320987654321,0)" xlink:href="#Z"/><use transform="matrix(0.06172839506172839,0,0,0.06172839506172839,66.60493827160494,0)" xlink:href="#an"/></g><g id="v"><use transform="matrix(0.06172839506172839,0,0,0.06172839506172839,0,0)" xlink:href="#ad"/><use transform="matrix(0.06172839506172839,0,0,0.06172839506172839,14.814814814814813,0)" xlink:href="#ah"/><use transform="matrix(0.06172839506172839,0,0,0.06172839506172839,22.160493827160494,0)" xlink:href="#V"/><use transform="matrix(0.06172839506172839,0,0,0.06172839506172839,34.50617283950617,0)" xlink:href="#Y"/><use transform="matrix(0.06172839506172839,0,0,0.06172839506172839,39.382716049382715,0)" xlink:href="#X"/></g><g id="w"><use transform="matrix(0.06172839506172839,0,0,0.06172839506172839,0,0)" xlink:href="#ad"/><use transform="matrix(0.06172839506172839,0,0,0.06172839506172839,14.814814814814813,0)" xlink:href="#Y"/><use transform="matrix(0.06172839506172839,0,0,0.06172839506172839,19.691358024691354,0)" xlink:href="#V"/><use transform="matrix(0.06172839506172839,0,0,0.06172839506172839,32.03703703703703,0)" xlink:href="#ae"/></g><g id="x"><use transform="matrix(0.06172839506172839,0,0,0.06172839506172839,0,0)" xlink:href="#af"/><use transform="matrix(0.06172839506172839,0,0,0.06172839506172839,11.11111111111111,0)" xlink:href="#ag"/><use transform="matrix(0.06172839506172839,0,0,0.06172839506172839,23.45679012345679,0)" xlink:href="#ah"/><use transform="matrix(0.06172839506172839,0,0,0.06172839506172839,30.80246913580247,0)" xlink:href="#ah"/><use transform="matrix(0.06172839506172839,0,0,0.06172839506172839,38.148148148148145,0)" xlink:href="#ac"/><use transform="matrix(0.06172839506172839,0,0,0.06172839506172839,50.49382716049382,0)" xlink:href="#af"/><use transform="matrix(0.06172839506172839,0,0,0.06172839506172839,61.60493827160494,0)" xlink:href="#Z"/><use transform="matrix(0.06172839506172839,0,0,0.06172839506172839,67.77777777777777,0)" xlink:href="#an"/></g><g id="y"><use transform="matrix(0.06172839506172839,0,0,0.06172839506172839,0,0)" xlink:href="#ad"/><use transform="matrix(0.06172839506172839,0,0,0.06172839506172839,14.814814814814813,0)" xlink:href="#ah"/><use transform="matrix(0.06172839506172839,0,0,0.06172839506172839,22.160493827160494,0)" xlink:href="#V"/><use transform="matrix(0.06172839506172839,0,0,0.06172839506172839,34.50617283950617,0)" xlink:href="#Y"/><use transform="matrix(0.06172839506172839,0,0,0.06172839506172839,39.382716049382715,0)" xlink:href="#X"/></g><path d="M143 0L79-87 56-68V0H24v-261h32v163l83-92h37l-77 82L181 0h-38" id="aw"/><g id="z"><use transform="matrix(0.06172839506172839,0,0,0.06172839506172839,0,0)" xlink:href="#ap"/><use transform="matrix(0.06172839506172839,0,0,0.06172839506172839,18.456790123456788,0)" xlink:href="#V"/><use transform="matrix(0.06172839506172839,0,0,0.06172839506172839,30.80246913580247,0)" xlink:href="#ae"/><use transform="matrix(0.06172839506172839,0,0,0.06172839506172839,41.91358024691358,0)" xlink:href="#aw"/></g><g id="A"><use transform="matrix(0.06172839506172839,0,0,0.06172839506172839,0,0)" xlink:href="#ao"/><use transform="matrix(0.06172839506172839,0,0,0.06172839506172839,11.049382716049381,0)" xlink:href="#ac"/><use transform="matrix(0.06172839506172839,0,0,0.06172839506172839,23.39506172839506,0)" xlink:href="#X"/><use transform="matrix(0.06172839506172839,0,0,0.06172839506172839,35.74074074074074,0)" xlink:href="#ae"/><use transform="matrix(0.06172839506172839,0,0,0.06172839506172839,46.85185185185185,0)" xlink:href="#ag"/><use transform="matrix(0.06172839506172839,0,0,0.06172839506172839,59.197530864197525,0)" xlink:href="#ah"/></g><g id="B"><use transform="matrix(0.06172839506172839,0,0,0.06172839506172839,0,0)" xlink:href="#ao"/><use transform="matrix(0.06172839506172839,0,0,0.06172839506172839,11.049382716049381,0)" xlink:href="#ac"/><use transform="matrix(0.06172839506172839,0,0,0.06172839506172839,23.39506172839506,0)" xlink:href="#X"/><use transform="matrix(0.06172839506172839,0,0,0.06172839506172839,35.74074074074074,0)" xlink:href="#ae"/><use transform="matrix(0.06172839506172839,0,0,0.06172839506172839,46.85185185185185,0)" xlink:href="#ag"/><use transform="matrix(0.06172839506172839,0,0,0.06172839506172839,59.197530864197525,0)" xlink:href="#ah"/></g><path d="M30-248c118-7 216 8 213 122C240-48 200 0 122 0H30v-248zM63-27c89 8 146-16 146-99s-60-101-146-95v194" id="ax"/><path d="M212-179c-10-28-35-45-73-45-59 0-87 40-87 99 0 60 29 101 89 101 43 0 62-24 78-52l27 14C228-24 195 4 139 4 59 4 22-46 18-125c-6-104 99-153 187-111 19 9 31 26 39 46" id="ay"/><g id="C"><use transform="matrix(0.06172839506172839,0,0,0.06172839506172839,0,0)" xlink:href="#aj"/><use transform="matrix(0.06172839506172839,0,0,0.06172839506172839,14.814814814814813,0)" xlink:href="#ax"/><use transform="matrix(0.06172839506172839,0,0,0.06172839506172839,30.80246913580247,0)" xlink:href="#ay"/></g><path d="M266 0h-40l-56-210L115 0H75L2-248h35L96-30l15-64 43-154h32l59 218 59-218h35" id="az"/><g id="D"><use transform="matrix(0.06172839506172839,0,0,0.06172839506172839,0,0)" xlink:href="#az"/><use transform="matrix(0.06172839506172839,0,0,0.06172839506172839,20.925925925925924,0)" xlink:href="#U"/></g><g id="E"><use transform="matrix(0.06172839506172839,0,0,0.06172839506172839,0,0)" xlink:href="#ah"/><use transform="matrix(0.06172839506172839,0,0,0.06172839506172839,7.345679012345679,0)" xlink:href="#ac"/><use transform="matrix(0.06172839506172839,0,0,0.06172839506172839,19.691358024691358,0)" xlink:href="#ae"/><use transform="matrix(0.06172839506172839,0,0,0.06172839506172839,30.80246913580247,0)" xlink:href="#al"/><use transform="matrix(0.06172839506172839,0,0,0.06172839506172839,43.148148148148145,0)" xlink:href="#ag"/><use transform="matrix(0.06172839506172839,0,0,0.06172839506172839,55.49382716049382,0)" xlink:href="#X"/><use transform="matrix(0.06172839506172839,0,0,0.06172839506172839,67.8395061728395,0)" xlink:href="#ae"/><use transform="matrix(0.06172839506172839,0,0,0.06172839506172839,78.95061728395062,0)" xlink:href="#ac"/></g><g id="F"><use transform="matrix(0.06172839506172839,0,0,0.06172839506172839,0,0)" xlink:href="#ai"/><use transform="matrix(0.06172839506172839,0,0,0.06172839506172839,13.518518518518517,0)" xlink:href="#Y"/><use transform="matrix(0.06172839506172839,0,0,0.06172839506172839,18.39506172839506,0)" xlink:href="#as"/><use transform="matrix(0.06172839506172839,0,0,0.06172839506172839,30.74074074074074,0)" xlink:href="#ah"/><use transform="matrix(0.06172839506172839,0,0,0.06172839506172839,38.08641975308642,0)" xlink:href="#ac"/></g><path d="M140-251c81 0 123 46 123 126C263-46 219 4 140 4 59 4 17-45 17-125s42-126 123-126zm0 227c63 0 89-41 89-101s-29-99-89-99c-61 0-89 39-89 99S79-25 140-24" id="aA"/><g id="G"><use transform="matrix(0.06172839506172839,0,0,0.06172839506172839,0,0)" xlink:href="#aA"/><use transform="matrix(0.06172839506172839,0,0,0.06172839506172839,17.28395061728395,0)" xlink:href="#ax"/><use transform="matrix(0.06172839506172839,0,0,0.06172839506172839,33.2716049382716,0)" xlink:href="#ai"/></g><path d="M185-189c-5-48-123-54-124 2 14 75 158 14 163 119 3 78-121 87-175 55-17-10-28-26-33-46l33-7c5 56 141 63 141-1 0-78-155-14-162-118-5-82 145-84 179-34 5 7 8 16 11 25" id="aB"/><g id="H"><use transform="matrix(0.06172839506172839,0,0,0.06172839506172839,0,0)" xlink:href="#ay"/><use transform="matrix(0.06172839506172839,0,0,0.06172839506172839,15.987654320987653,0)" xlink:href="#aB"/><use transform="matrix(0.06172839506172839,0,0,0.06172839506172839,30.80246913580247,0)" xlink:href="#ax"/></g><path d="M143 4C61 4 22-44 18-125c-5-107 100-154 193-111 17 8 29 25 37 43l-32 9c-13-25-37-40-76-40-61 0-88 39-88 99 0 61 29 100 91 101 35 0 62-11 79-27v-45h-74v-28h105v86C228-13 192 4 143 4" id="aC"/><g id="I"><use transform="matrix(0.06172839506172839,0,0,0.06172839506172839,0,0)" xlink:href="#aC"/><use transform="matrix(0.06172839506172839,0,0,0.06172839506172839,17.28395061728395,0)" xlink:href="#au"/><use transform="matrix(0.06172839506172839,0,0,0.06172839506172839,22.160493827160494,0)" xlink:href="#ag"/><use transform="matrix(0.06172839506172839,0,0,0.06172839506172839,34.50617283950617,0)" xlink:href="#as"/><use transform="matrix(0.06172839506172839,0,0,0.06172839506172839,46.85185185185185,0)" xlink:href="#V"/><use transform="matrix(0.06172839506172839,0,0,0.06172839506172839,59.197530864197525,0)" xlink:href="#au"/></g><g id="J"><use transform="matrix(0.06172839506172839,0,0,0.06172839506172839,0,0)" xlink:href="#Z"/><use transform="matrix(0.06172839506172839,0,0,0.06172839506172839,6.172839506172839,0)" xlink:href="#ah"/><use transform="matrix(0.06172839506172839,0,0,0.06172839506172839,13.518518518518519,0)" xlink:href="#V"/><use transform="matrix(0.06172839506172839,0,0,0.06172839506172839,25.864197530864196,0)" xlink:href="#af"/><use transform="matrix(0.06172839506172839,0,0,0.06172839506172839,36.9753086419753,0)" xlink:href="#Z"/><use transform="matrix(0.06172839506172839,0,0,0.06172839506172839,43.148148148148145,0)" xlink:href="#an"/></g><g id="K"><use transform="matrix(0.06172839506172839,0,0,0.06172839506172839,0,0)" xlink:href="#az"/><use transform="matrix(0.06172839506172839,0,0,0.06172839506172839,19.691358024691358,0)" xlink:href="#an"/><use transform="matrix(0.06172839506172839,0,0,0.06172839506172839,25.864197530864196,0)" xlink:href="#ad"/><use transform="matrix(0.06172839506172839,0,0,0.06172839506172839,40.67901234567901,0)" xlink:href="#an"/></g><g id="L"><use transform="matrix(0.06172839506172839,0,0,0.06172839506172839,0,0)" xlink:href="#Z"/><use transform="matrix(0.06172839506172839,0,0,0.06172839506172839,6.172839506172839,0)" xlink:href="#ah"/><use transform="matrix(0.06172839506172839,0,0,0.06172839506172839,13.518518518518519,0)" xlink:href="#V"/><use transform="matrix(0.06172839506172839,0,0,0.06172839506172839,25.864197530864196,0)" xlink:href="#af"/><use transform="matrix(0.06172839506172839,0,0,0.06172839506172839,36.9753086419753,0)" xlink:href="#aw"/><use transform="matrix(0.06172839506172839,0,0,0.06172839506172839,48.08641975308642,0)" xlink:href="#ae"/></g></defs></g></svg>