<svg xmlns="http://www.w3.org/2000/svg" xmlns:xlink="http://www.w3.org/1999/xlink" xmlns:lucid="lucid" width="660" height="593.36"><g transform="translate(-0.7185140700069041 2.70883855715698)" lucid:page-tab-id="0_0"><path d="M90.35 335.3c-4.42 0-8 3.57-8 8v24c0 4.4 3.58 8 8 8h160c4.42 0 8-3.6 8-8v-24c0-4.43-3.58-8-8-8z" stroke="#0b7cba" stroke-width="2" fill="#c9ebff" fill-opacity=".5"/><use xlink:href="#a" transform="matrix(1,0,0,1,90.34882845268044,343.291161442843) translate(26.97530864197531 17.77777777777778)"/><use xlink:href="#b" transform="matrix(1,0,0,1,90.34882845268044,343.291161442843) translate(120.67901234567901 17.77777777777778)"/><path d="M89.2 77.3c-4.43 0-8 3.57-8 8v24c0 4.4 3.57 8 8 8h160c4.4 0 8-3.6 8-8v-24c0-4.43-3.6-8-8-8z" stroke="#0b7cba" stroke-width="2" fill="#c9ebff" fill-opacity=".5"/><use xlink:href="#a" transform="matrix(1,0,0,1,89.18541714329291,85.29116144284302) translate(26.97530864197531 17.77777777777778)"/><use xlink:href="#c" transform="matrix(1,0,0,1,89.18541714329291,85.29116144284302) translate(120.67901234567901 17.77777777777778)"/><path d="M90.72 163.3c-4.42 0-8 3.57-8 8v24c0 4.4 3.58 8 8 8h160c4.42 0 8-3.6 8-8v-24c0-4.43-3.58-8-8-8z" stroke="#328220" stroke-width="2" fill="#b5e5aa" fill-opacity=".5"/><use xlink:href="#d" transform="matrix(1,0,0,1,90.71851407000685,171.29116144284302) translate(32.56172839506172 17.77777777777778)"/><use xlink:href="#c" transform="matrix(1,0,0,1,90.71851407000685,171.29116144284302) translate(115.0925925925926 17.77777777777778)"/><path d="M88.72 249.3c-4.42 0-8 3.57-8 8v24c0 4.4 3.58 8 8 8h160c4.42 0 8-3.6 8-8v-24c0-4.43-3.58-8-8-8z" stroke="#328220" stroke-width="2" fill="#b5e5aa" fill-opacity=".5"/><use xlink:href="#d" transform="matrix(1,0,0,1,88.71851407000685,257.2911614428429) translate(32.56172839506172 17.77777777777778)"/><use xlink:href="#b" transform="matrix(1,0,0,1,88.71851407000685,257.2911614428429) translate(115.0925925925926 17.77777777777778)"/><path d="M90.52 421.3c-4.42 0-8 3.57-8 8v24c0 4.4 3.58 8 8 8h160c4.42 0 8-3.6 8-8v-24c0-4.43-3.58-8-8-8z" stroke="#328220" stroke-width="2" fill="#b5e5aa" fill-opacity=".5"/><use xlink:href="#d" transform="matrix(1,0,0,1,90.51875047662617,429.291161442843) translate(32.56172839506172 17.77777777777778)"/><use xlink:href="#e" transform="matrix(1,0,0,1,90.51875047662617,429.291161442843) translate(115.0925925925926 17.77777777777778)"/><path d="M89.2 507.3c-4.43 0-8 3.57-8 8v24c0 4.4 3.57 8 8 8h160c4.4 0 8-3.6 8-8v-24c0-4.43-3.6-8-8-8z" stroke="#328220" stroke-width="2" fill="#b5e5aa" fill-opacity=".5"/><use xlink:href="#d" transform="matrix(1,0,0,1,89.18541714329291,515.2911614428431) translate(32.56172839506172 17.77777777777778)"/><use xlink:href="#f" transform="matrix(1,0,0,1,89.18541714329291,515.2911614428431) translate(115.0925925925926 17.77777777777778)"/><path d="M607.72 97.3c0 14.57-46.56 26.4-104 26.4s-104-11.83-104-26.4c0-14.6 46.56-26.4 104-26.4s104 11.8 104 26.4z" stroke="#f08c21" stroke-width="2" fill="#ffdbb6"/><use xlink:href="#g" transform="matrix(1,0,0,1,399.7185140700069,70.89116144284301) translate(55.33216049382717 31.02777777777778)"/><use xlink:href="#h" transform="matrix(1,0,0,1,399.7185140700069,70.89116144284301) translate(140.33216049382716 31.02777777777778)"/><path d="M607.72 441.3c0 14.57-46.56 26.4-104 26.4s-104-11.83-104-26.4c0-14.6 46.56-26.4 104-26.4s104 11.8 104 26.4z" stroke="#f08c21" stroke-width="2" fill="#ffdbb6"/><use xlink:href="#g" transform="matrix(1,0,0,1,399.7185140700069,414.8911614428429) translate(55.33216049382717 31.02777777777778)"/><use xlink:href="#i" transform="matrix(1,0,0,1,399.7185140700069,414.8911614428429) translate(140.33216049382716 31.02777777777778)"/><path d="M607.72 269.3c0 14.57-46.56 26.4-104 26.4s-104-11.83-104-26.4c0-14.6 46.56-26.4 104-26.4s104 11.8 104 26.4z" stroke="#f08c21" stroke-width="2" fill="#ffdbb6"/><use xlink:href="#g" transform="matrix(1,0,0,1,399.7185140700069,242.891161442843) translate(55.33216049382717 31.02777777777778)"/><use xlink:href="#j" transform="matrix(1,0,0,1,399.7185140700069,242.891161442843) translate(140.33216049382716 31.02777777777778)"/><path d="M258.2 97.3h122.28" stroke="#0b7cba" stroke-width="2" fill="none"/><path d="M258.2 98.3h-1v-2h1zM395.48 97.3l-14.26 4.63v-9.27z" fill="#0b7cba"/><path d="M398.72 97.3l-18.5 6V91.28zm-16.5 3.25l10.03-3.26-10.03-3.27z" fill="#0b7cba"/><path d="M20.72 32.3c0-8.3 6.7-15 15-15h590c8.28 0 15 6.7 15 15v523.35c0 8.3-6.72 15-15 15h-590c-8.3 0-15-6.7-15-15z" stroke="#666" stroke-width="2" fill="none"/><use xlink:href="#k" transform="matrix(1,0,0,1,28.718514070006904,25.29116144284302) translate(206.59259259259258 21.333333333333336)"/><use xlink:href="#l" transform="matrix(1,0,0,1,28.718514070006904,25.29116144284302) translate(323.55555555555554 21.333333333333336)"/><path d="M257.72 269.3H380.48" stroke="#328220" stroke-width="2" fill="none"/><path d="M257.72 270.3h-1v-2h1zM395.48 269.3l-14.26 4.63v-9.27z" fill="#328220"/><path d="M398.72 269.3l-18.5 6v-12.02zm-16.5 3.25l10.03-3.26-10.03-3.27z" fill="#328220"/><path d="M257.72 269.3H330v172h50.48" stroke="#328220" stroke-width="2" fill="none"/><path d="M257.72 270.3h-1v-2h1zM395.48 441.3l-14.26 4.63v-9.27z" fill="#328220"/><path d="M398.72 441.3l-18.5 6v-12.02zm-16.5 3.25l10.03-3.26-10.03-3.27z" fill="#328220"/><path d="M259.35 355.3H310v-86h70.48" stroke="#0b7cba" stroke-width="2" fill="none"/><path d="M259.35 356.3h-1v-2h1zM395.48 269.3l-14.26 4.63v-9.27z" fill="#0b7cba"/><path d="M398.72 269.3l-18.5 6v-12.02zm-16.5 3.25l10.03-3.26-10.03-3.27z" fill="#0b7cba"/><path d="M608.72 97.3H630V140H170.72v4.06" stroke="#f08c21" stroke-width="2" fill="none"/><path d="M608.72 98.3h-1.07v-.02l.04-.33v-.33l.02-.33v-.23l-.02-.33-.04-.33-.02-.1h1.08zM170.72 159.06l-4.64-14.27h9.27z" fill="#f08c21"/><path d="M170.72 162.3l-6-18.5h12zm-3.26-16.5l3.26 10.02 3.26-10.03z" fill="#f08c21"/><path d="M608.72 97.3H630V220H168.72v10.06" stroke="#f08c21" stroke-width="2" fill="none"/><path d="M608.72 98.3h-1.07v-.02l.04-.33v-.33l.02-.33v-.23l-.02-.33-.04-.33-.02-.1h1.08zM168.72 245.06l-4.64-14.27h9.27z" fill="#f08c21"/><path d="M168.72 248.3l-6-18.5h12zm-3.26-16.5l3.26 10.02 3.26-10.03z" fill="#f08c21"/><path d="M608.72 269.3h19.8V390h-458v12.06" stroke="#f08c21" stroke-width="2" fill="none"/><path d="M608.72 270.3h-1.07v-.02l.04-.33v-.33l.02-.33v-.23l-.02-.33-.04-.33-.02-.1h1.08zM170.52 417.06l-4.64-14.27h9.27z" fill="#f08c21"/><path d="M170.52 420.3l-6-18.5h12zm-3.26-16.5l3.26 10.02 3.26-10.03z" fill="#f08c21"/><path d="M608.72 441.3h19.8V480H169.2v8.06" stroke="#f08c21" stroke-width="2" fill="none"/><path d="M608.72 442.3h-1.07v-.02l.04-.33v-.33l.02-.33v-.23l-.02-.33-.04-.33-.02-.1h1.08zM169.2 503.06l-4.65-14.27h9.27z" fill="#f08c21"/><path d="M169.2 506.3l-6.03-18.5h12.03zm-3.27-16.5l3.26 10.02 3.24-10.03z" fill="#f08c21"/><path d="M259.72 183.3H290v258h90.48" stroke="#328220" stroke-width="2" fill="none"/><path d="M259.72 184.3h-1v-2h1zM395.48 441.3l-14.26 4.63v-9.27z" fill="#328220"/><path d="M398.72 441.3l-18.5 6v-12.02zm-16.5 3.25l10.03-3.26-10.03-3.27z" fill="#328220"/><defs><path d="M205 0l-28-72H64L36 0H1l101-248h38L239 0h-34zm-38-99l-47-123c-12 45-31 82-46 123h93" id="m"/><path d="M96-169c-40 0-48 33-48 73s9 75 48 75c24 0 41-14 43-38l32 2c-6 37-31 61-74 61-59 0-76-41-82-99-10-93 101-131 147-64 4 7 5 14 7 22l-32 3c-4-21-16-35-41-35" id="n"/><path d="M145-31C134-9 116 4 85 4 32 4 16-35 15-94c0-59 17-99 70-100 32-1 48 14 60 33 0-11-1-24 2-32h30l-1 268h-32zM93-21c41 0 51-33 51-76s-8-73-50-73c-40 0-46 35-46 75s5 74 45 74" id="o"/><path d="M84 4C-5 8 30-112 23-190h32v120c0 31 7 50 39 49 72-2 45-101 50-169h31l1 190h-30c-1-10 1-25-2-33-11 22-28 36-60 37" id="p"/><path d="M24-231v-30h32v30H24zM24 0v-190h32V0H24" id="q"/><path d="M114-163C36-179 61-72 57 0H25l-1-190h30c1 12-1 29 2 39 6-27 23-49 58-41v29" id="r"/><path d="M100-194c63 0 86 42 84 106H49c0 40 14 67 53 68 26 1 43-12 49-29l28 8c-11 28-37 45-77 45C44 4 14-33 15-96c1-61 26-98 85-98zm52 81c6-60-76-77-97-28-3 7-6 17-6 28h103" id="s"/><path d="M85-194c31 0 48 13 60 33l-1-100h32l1 261h-30c-2-10 0-23-3-31C134-8 116 4 85 4 32 4 16-35 15-94c0-66 23-100 70-100zm9 24c-40 0-46 34-46 75 0 40 6 74 45 74 42 0 51-32 51-76 0-42-9-74-50-73" id="t"/><g id="a"><use transform="matrix(0.06172839506172839,0,0,0.06172839506172839,0,0)" xlink:href="#m"/><use transform="matrix(0.06172839506172839,0,0,0.06172839506172839,14.814814814814813,0)" xlink:href="#n"/><use transform="matrix(0.06172839506172839,0,0,0.06172839506172839,25.925925925925924,0)" xlink:href="#o"/><use transform="matrix(0.06172839506172839,0,0,0.06172839506172839,38.2716049382716,0)" xlink:href="#p"/><use transform="matrix(0.06172839506172839,0,0,0.06172839506172839,50.61728395061728,0)" xlink:href="#q"/><use transform="matrix(0.06172839506172839,0,0,0.06172839506172839,55.49382716049382,0)" xlink:href="#r"/><use transform="matrix(0.06172839506172839,0,0,0.06172839506172839,62.8395061728395,0)" xlink:href="#s"/><use transform="matrix(0.06172839506172839,0,0,0.06172839506172839,75.18518518518518,0)" xlink:href="#t"/></g><path d="M101-251c82-7 93 87 43 132L82-64C71-53 59-42 53-27h129V0H18c2-99 128-94 128-182 0-28-16-43-45-43s-46 15-49 41l-32-3c6-41 34-60 81-64" id="u"/><use transform="matrix(0.06172839506172839,0,0,0.06172839506172839,0,0)" xlink:href="#u" id="b"/><path d="M27 0v-27h64v-190l-56 39v-29l58-41h29v221h61V0H27" id="v"/><use transform="matrix(0.06172839506172839,0,0,0.06172839506172839,0,0)" xlink:href="#v" id="c"/><path d="M30-248c118-7 216 8 213 122C240-48 200 0 122 0H30v-248zM63-27c89 8 146-16 146-99s-60-101-146-95v194" id="w"/><path d="M108 0H70L1-190h34L89-25l56-165h34" id="x"/><g id="d"><use transform="matrix(0.06172839506172839,0,0,0.06172839506172839,0,0)" xlink:href="#w"/><use transform="matrix(0.06172839506172839,0,0,0.06172839506172839,15.987654320987653,0)" xlink:href="#s"/><use transform="matrix(0.06172839506172839,0,0,0.06172839506172839,28.333333333333332,0)" xlink:href="#r"/><use transform="matrix(0.06172839506172839,0,0,0.06172839506172839,35.67901234567901,0)" xlink:href="#q"/><use transform="matrix(0.06172839506172839,0,0,0.06172839506172839,40.55555555555556,0)" xlink:href="#x"/><use transform="matrix(0.06172839506172839,0,0,0.06172839506172839,51.66666666666667,0)" xlink:href="#s"/><use transform="matrix(0.06172839506172839,0,0,0.06172839506172839,64.01234567901236,0)" xlink:href="#t"/></g><path d="M126-127c33 6 58 20 58 59 0 88-139 92-164 29-3-8-5-16-6-25l32-3c6 27 21 44 54 44 32 0 52-15 52-46 0-38-36-46-79-43v-28c39 1 72-4 72-42 0-27-17-43-46-43-28 0-47 15-49 41l-32-3c6-42 35-63 81-64 48-1 79 21 79 65 0 36-21 52-52 59" id="y"/><use transform="matrix(0.06172839506172839,0,0,0.06172839506172839,0,0)" xlink:href="#y" id="e"/><path d="M155-56V0h-30v-56H8v-25l114-167h33v167h35v25h-35zm-30-156c-27 46-58 90-88 131h88v-131" id="z"/><use transform="matrix(0.06172839506172839,0,0,0.06172839506172839,0,0)" xlink:href="#z" id="f"/><path d="M30-248c87 1 191-15 191 75 0 78-77 80-158 76V0H30v-248zm33 125c57 0 124 11 124-50 0-59-68-47-124-48v98" id="A"/><path d="M115-194c55 1 70 41 70 98S169 2 115 4C84 4 66-9 55-30l1 105H24l-1-265h31l2 30c10-21 28-34 59-34zm-8 174c40 0 45-34 45-75s-6-73-45-74c-42 0-51 32-51 76 0 43 10 73 51 73" id="B"/><path d="M24 0v-261h32V0H24" id="C"/><path d="M117-194c89-4 53 116 60 194h-32v-121c0-31-8-49-39-48C34-167 62-67 57 0H25l-1-190h30c1 10-1 24 2 32 11-22 29-35 61-36" id="D"/><g id="g"><use transform="matrix(0.06172839506172839,0,0,0.06172839506172839,0,0)" xlink:href="#A"/><use transform="matrix(0.06172839506172839,0,0,0.06172839506172839,14.814814814814813,0)" xlink:href="#q"/><use transform="matrix(0.06172839506172839,0,0,0.06172839506172839,19.691358024691354,0)" xlink:href="#B"/><use transform="matrix(0.06172839506172839,0,0,0.06172839506172839,32.03703703703703,0)" xlink:href="#s"/><use transform="matrix(0.06172839506172839,0,0,0.06172839506172839,44.38271604938271,0)" xlink:href="#C"/><use transform="matrix(0.06172839506172839,0,0,0.06172839506172839,49.25925925925925,0)" xlink:href="#q"/><use transform="matrix(0.06172839506172839,0,0,0.06172839506172839,54.1358024691358,0)" xlink:href="#D"/><use transform="matrix(0.06172839506172839,0,0,0.06172839506172839,66.48148148148148,0)" xlink:href="#s"/></g><use transform="matrix(0.06172839506172839,0,0,0.06172839506172839,0,0)" xlink:href="#v" id="h"/><use transform="matrix(0.06172839506172839,0,0,0.06172839506172839,0,0)" xlink:href="#y" id="i"/><use transform="matrix(0.06172839506172839,0,0,0.06172839506172839,0,0)" xlink:href="#u" id="j"/><path d="M24 0v-248h195v40H76v63h132v40H76v65h150V0H24" id="E"/><path d="M144 0l-44-69L55 0H2l70-98-66-92h53l41 62 40-62h54l-67 91 71 99h-54" id="F"/><path d="M133-34C117-15 103 5 69 4 32 3 11-16 11-54c-1-60 55-63 116-61 1-26-3-47-28-47-18 1-26 9-28 27l-52-2c7-38 36-58 82-57s74 22 75 68l1 82c-1 14 12 18 25 15v27c-30 8-71 5-69-32zm-48 3c29 0 43-24 42-57-32 0-66-3-65 30 0 17 8 27 23 27" id="G"/><path d="M220-157c-53 9-28 100-34 157h-49v-107c1-27-5-49-29-50C55-147 81-57 75 0H25l-1-190h47c2 12-1 28 3 38 10-53 101-56 108 0 13-22 24-43 59-42 82 1 51 116 57 194h-49v-107c-1-25-5-48-29-50" id="H"/><path d="M135-194c53 0 70 44 70 98 0 56-19 98-73 100-31 1-45-17-59-34 3 33 2 69 2 105H25l-1-265h48c2 10 0 23 3 31 11-24 29-35 60-35zM114-30c33 0 39-31 40-66 0-38-9-64-40-64-56 0-55 130 0 130" id="I"/><path d="M25 0v-261h50V0H25" id="J"/><path d="M185-48c-13 30-37 53-82 52C43 2 14-33 14-96s30-98 90-98c62 0 83 45 84 108H66c0 31 8 55 39 56 18 0 30-7 34-22zm-45-69c5-46-57-63-70-21-2 6-4 13-4 21h74" id="K"/><g id="k"><use transform="matrix(0.07407407407407408,0,0,0.07407407407407408,0,0)" xlink:href="#E"/><use transform="matrix(0.07407407407407408,0,0,0.07407407407407408,17.77777777777778,0)" xlink:href="#F"/><use transform="matrix(0.07407407407407408,0,0,0.07407407407407408,32.592592592592595,0)" xlink:href="#G"/><use transform="matrix(0.07407407407407408,0,0,0.07407407407407408,47.40740740740741,0)" xlink:href="#H"/><use transform="matrix(0.07407407407407408,0,0,0.07407407407407408,71.11111111111111,0)" xlink:href="#I"/><use transform="matrix(0.07407407407407408,0,0,0.07407407407407408,87.33333333333334,0)" xlink:href="#J"/><use transform="matrix(0.07407407407407408,0,0,0.07407407407407408,94.74074074074075,0)" xlink:href="#K"/></g><path d="M169-182c-1-43-94-46-97-3 18 66 151 10 154 114 3 95-165 93-204 36-6-8-10-19-12-30l50-8c3 46 112 56 116 5-17-69-150-10-154-114-4-87 153-88 188-35 5 8 8 18 10 28" id="L"/><path d="M115-3C79 11 28 4 28-45v-112H4v-33h27l15-45h31v45h36v33H77v99c-1 23 16 31 38 25v30" id="M"/><path d="M85 4C-2 5 27-109 22-190h50c7 57-23 150 33 157 60-5 35-97 40-157h50l1 190h-47c-2-12 1-28-3-38-12 25-28 42-61 42" id="N"/><path d="M88-194c31-1 46 15 58 34l-1-101h50l1 261h-48c-2-10 0-23-3-31C134-8 116 4 84 4 32 4 16-41 15-95c0-56 19-97 73-99zm17 164c33 0 40-30 41-66 1-37-9-64-41-64s-38 30-39 65c0 43 13 65 39 65" id="O"/><path d="M123 10C108 53 80 86 19 72V37c35 8 53-11 59-39L3-190h52l48 148c12-52 28-100 44-148h51" id="P"/><g id="l"><use transform="matrix(0.07407407407407408,0,0,0.07407407407407408,0,0)" xlink:href="#L"/><use transform="matrix(0.07407407407407408,0,0,0.07407407407407408,17.77777777777778,0)" xlink:href="#M"/><use transform="matrix(0.07407407407407408,0,0,0.07407407407407408,26.592592592592595,0)" xlink:href="#N"/><use transform="matrix(0.07407407407407408,0,0,0.07407407407407408,42.814814814814824,0)" xlink:href="#O"/><use transform="matrix(0.07407407407407408,0,0,0.07407407407407408,59.03703703703705,0)" xlink:href="#P"/></g></defs></g></svg>