<svg xmlns="http://www.w3.org/2000/svg" xmlns:xlink="http://www.w3.org/1999/xlink" xmlns:lucid="lucid" width="951.31" height="1856.03"><g transform="translate(16.325349843666515 7.281767139479797)" lucid:page-tab-id="0_0"><path d="M348.33 884.67c-4.4 0-8 3.58-8 8v24c0 4.4 3.6 8 8 8h160c4.42 0 8-3.6 8-8v-24c0-4.42-3.58-8-8-8z" fill="#c9ebff" fill-opacity=".5"/><path d="M367.38 924.67h1.9m9.53 0h19.06m9.52 0h1.9m9.53 0h19.06m9.52 0h1.9m9.53 0h19.06m9.52 0h1.9m9.53 0h9.53l3.12-.63 2.54-1.72 1.7-2.54.63-3.1v-24l-.63-3.13L514 887l-2.55-1.7-3.12-.63h-9.52m-9.5 0h-1.92m-9.52 0H458.8m-9.5 0h-1.92m-9.52 0H418.8m-9.5 0h-1.92m-9.52 0H378.8m-9.5 0h-1.92m-9.52 0h-9.53l-3.1.63-2.55 1.7-1.72 2.55-.63 3.12v24l.63 3.1 1.72 2.55 2.54 1.72 3.1.63h9.54" stroke="#0b7cba" stroke-width="2" fill="none"/><use xlink:href="#a" transform="matrix(1,0,0,1,348.33333333333337,892.6666666666666) translate(6.635802469135797 17.77777777777778)"/><use xlink:href="#b" transform="matrix(1,0,0,1,348.33333333333337,892.6666666666666) translate(59.660493827160494 17.77777777777778)"/><path d="M348.33 967.67c-4.4 0-8 3.58-8 8v24c0 4.4 3.6 8 8 8h160c4.42 0 8-3.6 8-8v-24c0-4.42-3.58-8-8-8z" fill="#b5e5aa" fill-opacity=".5"/><path d="M367.38 1007.67h1.9m9.53 0h19.06m9.52 0h1.9m9.53 0h19.06m9.52 0h1.9m9.53 0h19.06m9.52 0h1.9m9.53 0h9.53l3.12-.63 2.54-1.72 1.7-2.54.63-3.1v-24l-.63-3.13L514 970l-2.55-1.7-3.12-.63h-9.52m-9.5 0h-1.92m-9.52 0H458.8m-9.5 0h-1.92m-9.52 0H418.8m-9.5 0h-1.92m-9.52 0H378.8m-9.5 0h-1.92m-9.52 0h-9.53l-3.1.63-2.55 1.7-1.72 2.55-.63 3.12v24l.63 3.1 1.72 2.55 2.54 1.72 3.1.63h9.54" stroke="#328220" stroke-width="2" fill="none"/><use xlink:href="#a" transform="matrix(1,0,0,1,348.33333333333337,975.6666666666666) translate(6.666666666666657 17.77777777777778)"/><use xlink:href="#c" transform="matrix(1,0,0,1,348.33333333333337,975.6666666666666) translate(59.691358024691354 17.77777777777778)"/><path d="M867.17 888.24c0 14.58-46.57 26.4-104 26.4-57.44 0-104-11.82-104-26.4 0-14.58 46.56-26.4 104-26.4 57.43 0 104 11.82 104 26.4z" stroke="#f08c21" stroke-width="2" fill="#ffdbb6"/><use xlink:href="#d" transform="matrix(1,0,0,1,659.1666666666666,861.8399674940899) translate(51.01117283950618 31.02777777777778)"/><use xlink:href="#e" transform="matrix(1,0,0,1,659.1666666666666,861.8399674940899) translate(118.78895061728394 31.02777777777778)"/><path d="M868.17 888.24h14.5v57.68H428.33v2.5" stroke="#f08c21" stroke-width="2" fill="none"/><path d="M868.2 887.24l-.07 2-1.03-.04.03-.3.03-.33v-.55l-.02-.33-.03-.34v-.16zM428.33 963.43l-4.63-14.27h9.27z" fill="#f08c21"/><path d="M428.33 966.67l-6-18.5h12.02zm-3.26-16.5l3.26 10.02 3.26-10.04z" fill="#f08c21"/><path d="M347.83 1293.75c-4.4 0-8 3.58-8 8v24c0 4.4 3.6 8 8 8h160c4.42 0 8-3.6 8-8v-24c0-4.42-3.58-8-8-8z" stroke="#328220" stroke-width="2" fill="#b5e5aa"/><use xlink:href="#f" transform="matrix(1,0,0,1,347.83333333333337,1301.7466016548465) translate(59.043209876543216 17.77777777777778)"/><path d="M348.5 109.77c-4.42 0-8 3.58-8 8v24c0 4.4 3.58 8 8 8h160c4.42 0 8-3.6 8-8v-24c0-4.42-3.58-8-8-8z" fill="#c9ebff" fill-opacity=".5"/><path d="M367.55 149.77h1.9m9.53 0h19.04m9.53 0h1.9m9.53 0h19.04m9.53 0h1.9m9.53 0h19.04m9.53 0h1.9m9.53 0h9.52l3.1-.63 2.56-1.72 1.7-2.54.64-3.1v-24l-.63-3.13-1.7-2.54-2.56-1.7-3.1-.63h-9.52m-9.53 0h-1.9m-9.53 0h-19.04m-9.53 0h-1.9m-9.53 0h-19.04m-9.53 0h-1.9m-9.53 0h-19.04m-9.53 0h-1.9m-9.53 0h-9.52l-3.1.63-2.56 1.7-1.7 2.55-.64 3.12v24l.63 3.1 1.7 2.55 2.56 1.72 3.1.63h9.52" stroke="#0b7cba" stroke-width="2" fill="none"/><use xlink:href="#g" transform="matrix(1,0,0,1,348.5,117.76666666666665) translate(28.209876543209873 17.77777777777778)"/><path d="M348.33 565.8c-4.4 0-8 3.6-8 8v24c0 4.43 3.6 8 8 8h160c4.42 0 8-3.57 8-8v-24c0-4.4-3.58-8-8-8z" fill="#c9ebff" fill-opacity=".5"/><path d="M367.38 605.8h1.9m9.53 0h19.06m9.52 0h1.9m9.53 0h19.06m9.52 0h1.9m9.53 0h19.06m9.52 0h1.9m9.53 0h9.53l3.12-.62 2.54-1.7 1.7-2.55.63-3.12v-24l-.63-3.1-1.7-2.54-2.55-1.72-3.12-.63h-9.52m-9.5 0h-1.92m-9.52 0H458.8m-9.5 0h-1.92m-9.52 0H418.8m-9.5 0h-1.92m-9.52 0H378.8m-9.5 0h-1.92m-9.52 0h-9.53l-3.1.64-2.55 1.72-1.72 2.54-.63 3.1v24l.63 3.13 1.72 2.54 2.54 1.7 3.1.64h9.54" stroke="#0b7cba" stroke-width="2" fill="none"/><use xlink:href="#h" transform="matrix(1,0,0,1,348.33333333333337,573.8132683215131) translate(14.660493827160494 17.77777777777778)"/><use xlink:href="#i" transform="matrix(1,0,0,1,348.33333333333337,573.8132683215131) translate(56.51234567901235 17.77777777777778)"/><path d="M348 189.1c-4.42 0-8 3.58-8 8v24c0 4.42 3.58 8 8 8h160c4.42 0 8-3.58 8-8v-24c0-4.42-3.58-8-8-8z" stroke="#328220" stroke-width="2" fill="#b5e5aa"/><use xlink:href="#j" transform="matrix(1,0,0,1,348,197.09999999999997) translate(54.135802469135804 17.77777777777778)"/><path d="M348.33 805.4c-4.4 0-8 3.6-8 8v24c0 4.43 3.6 8 8 8h160c4.42 0 8-3.57 8-8v-24c0-4.4-3.58-8-8-8z" stroke="#328220" stroke-width="2" fill="#b5e5aa"/><use xlink:href="#g" transform="matrix(1,0,0,1,348.33333333333337,813.4132683215131) translate(28.209876543209873 17.77777777777778)"/><path d="M347.83 1122c-4.4 0-8 3.58-8 8v24c0 4.42 3.6 8 8 8h160c4.42 0 8-3.58 8-8v-24c0-4.42-3.58-8-8-8z" stroke="#328220" stroke-width="2" fill="#b5e5aa"/><use xlink:href="#j" transform="matrix(1,0,0,1,347.83333333333337,1130) translate(54.135802469135804 17.77777777777778)"/><path d="M347.18 351.1c-4.4 0-8 3.58-8 8v24c0 4.42 3.6 8 8 8h160c4.42 0 8-3.58 8-8v-24c0-4.42-3.58-8-8-8z" fill="#b5e5aa" fill-opacity=".5"/><path d="M366.23 391.1h1.9m9.53 0h19.05m9.53 0h1.9m9.53 0h19.05m9.53 0h1.9m9.53 0h19.05m9.53 0h1.9m9.53 0h9.52l3.12-.63 2.54-1.7 1.72-2.56.62-3.1v-24l-.62-3.1-1.72-2.56-2.54-1.7-3.12-.64h-9.52m-9.52 0h-1.9m-9.53 0h-19.04m-9.52 0h-1.9m-9.53 0h-19.04m-9.52 0h-1.9m-9.53 0h-19.04m-9.52 0h-1.9m-9.53 0h-9.52l-3.1.63-2.55 1.7-1.72 2.56-.62 3.1v24l.63 3.1 1.73 2.56 2.54 1.7 3.1.64h9.54" stroke="#328220" stroke-width="2" fill="none"/><use xlink:href="#k" transform="matrix(1,0,0,1,347.1848428086631,359.09999999999997) translate(5.432098765432102 17.77777777777778)"/><use xlink:href="#c" transform="matrix(1,0,0,1,347.1848428086631,359.09999999999997) translate(60.92592592592593 17.77777777777778)"/><path d="M347.83 436.72c-4.4 0-8 3.58-8 8v24c0 4.42 3.6 8 8 8h160c4.42 0 8-3.58 8-8v-24c0-4.42-3.58-8-8-8z" fill="#b5e5aa" fill-opacity=".5"/><path d="M366.88 476.72h1.9m9.53 0h19.06m9.52 0h1.9m9.53 0h19.06m9.52 0h1.9m9.53 0h19.06m9.52 0h1.9m9.53 0h9.53l3.12-.63 2.54-1.72 1.7-2.55.63-3.1v-24l-.63-3.13-1.7-2.54-2.55-1.7-3.12-.64h-9.52m-9.5 0h-1.92m-9.52 0H458.3m-9.5 0h-1.92m-9.52 0H418.3m-9.5 0h-1.92m-9.52 0H378.3m-9.5 0h-1.92m-9.52 0h-9.53l-3.1.63-2.55 1.7-1.72 2.55-.63 3.12v24l.63 3.1 1.72 2.56 2.54 1.7 3.1.64h9.54" stroke="#328220" stroke-width="2" fill="none"/><use xlink:href="#k" transform="matrix(1,0,0,1,347.83333333333337,444.71823286052046) translate(28.24074074074074 17.77777777777778)"/><use xlink:href="#l" transform="matrix(1,0,0,1,347.83333333333337,444.71823286052046) translate(83.73456790123457 17.77777777777778)"/><path d="M347.83 1210.75c-4.4 0-8 3.58-8 8v24c0 4.4 3.6 8 8 8h160c4.42 0 8-3.6 8-8v-24c0-4.42-3.58-8-8-8z" stroke="#328220" stroke-width="2" fill="#b5e5aa"/><use xlink:href="#m" transform="matrix(1,0,0,1,347.83333333333337,1218.7466016548465) translate(54.72222222222223 17.77777777777778)"/><path d="M867.17 585.8c0 14.6-46.57 26.4-104 26.4-57.44 0-104-11.8-104-26.4 0-14.57 46.56-26.4 104-26.4 57.43 0 104 11.83 104 26.4z" stroke="#f08c21" stroke-width="2" fill="#ffdbb6"/><use xlink:href="#n" transform="matrix(1,0,0,1,659.1666666666666,559.4132683215131) translate(39.31364197530865 31.02777777777778)"/><use xlink:href="#o" transform="matrix(1,0,0,1,659.1666666666666,559.4132683215131) translate(124.37537037037036 31.02777777777778)"/><path d="M866.67 1142c0 14.58-46.57 26.4-104 26.4-57.44 0-104-11.82-104-26.4 0-14.58 46.56-26.4 104-26.4 57.43 0 104 11.82 104 26.4z" stroke="#f08c21" stroke-width="2" fill="#ffdbb6"/><use xlink:href="#p" transform="matrix(1,0,0,1,658.6666666666666,1115.6) translate(78.72722222222222 31.02777777777778)"/><path d="M867.17 129.6c0 14.58-46.57 26.4-104 26.4-57.44 0-104-11.82-104-26.4 0-14.58 46.56-26.4 104-26.4 57.43 0 104 11.82 104 26.4z" stroke="#f08c21" stroke-width="2" fill="#ffdbb6"/><use xlink:href="#q" transform="matrix(1,0,0,1,659.1666666666666,103.20000000000002) translate(38.665493827160496 31.02777777777778)"/><use xlink:href="#r" transform="matrix(1,0,0,1,659.1666666666666,103.20000000000002) translate(96.56672839506173 31.02777777777778)"/><path d="M867.67 819c0 14.6-46.57 26.4-104 26.4-57.44 0-104-11.8-104-26.4 0-14.57 46.56-26.4 104-26.4 57.43 0 104 11.83 104 26.4z" stroke="#f08c21" stroke-width="2" fill="#ffdbb6"/><use xlink:href="#q" transform="matrix(1,0,0,1,659.6666666666666,792.6132683215131) translate(38.665493827160496 31.02777777777778)"/><use xlink:href="#r" transform="matrix(1,0,0,1,659.6666666666666,792.6132683215131) translate(96.56672839506173 31.02777777777778)"/><path d="M517.33 585.8h122.6" stroke="#0b7cba" stroke-width="2" fill="none"/><path d="M517.33 586.8h-1v-2h1zM654.93 585.8l-14.27 4.65v-9.27z" fill="#0b7cba"/><path d="M658.17 585.8l-18.5 6.02V579.8zm-16.5 3.27l10.02-3.26-10.04-3.25z" fill="#0b7cba"/><path d="M517.5 129.77h70.33v-.17h52.1" stroke="#0b7cba" stroke-width="2" fill="none"/><path d="M517.5 130.77h-1v-2h1zM654.93 129.6l-14.27 4.64v-9.28z" fill="#0b7cba"/><path d="M658.17 129.6l-18.5 6v-12zm-16.5 3.26l10.02-3.26-10.04-3.26z" fill="#0b7cba"/><path d="M300 81.05c0-8.28 6.72-15 15-15h566.5c8.3 0 15 6.72 15 15V484.4c0 8.3-6.7 15-15 15H315c-8.28 0-15-6.7-15-15z" stroke="#666" fill="none"/><use xlink:href="#s" transform="matrix(1,0,0,1,308,74.05156619385356) translate(234.35185185185185 21.333333333333336)"/><use xlink:href="#t" transform="matrix(1,0,0,1,308,74.05156619385356) translate(272.7962962962963 21.333333333333336)"/><path d="M300.37 533.08c0-8.28 6.72-15 15-15h566c8.28 0 15 6.72 15 15v1266.65c0 8.3-6.72 15-15 15h-566c-8.28 0-15-6.7-15-15z" stroke="#666" fill="none"/><use xlink:href="#u" transform="matrix(1,0,0,1,308.36968561732647,526.0799349881798) translate(228.66666666666666 21.333333333333336)"/><use xlink:href="#t" transform="matrix(1,0,0,1,308.36968561732647,526.0799349881798) translate(277.48148148148147 21.333333333333336)"/><path d="M3.67 27.72c0-8.3 6.72-15 15-15H900c8.27 0 15 6.7 15 15v1786.03c0 8.28-6.73 15-15 15H18.66c-8.28 0-15-6.72-15-15z" stroke="#666" stroke-width="2" fill="none"/><use xlink:href="#v" transform="matrix(1,0,0,1,11.674650156333485,20.718232860520203) translate(335.74074074074076 21.333333333333336)"/><use xlink:href="#w" transform="matrix(1,0,0,1,11.674650156333485,20.718232860520203) translate(424.40740740740745 21.333333333333336)"/><path d="M28 110.02c-4.42 0-8 3.58-8 8v24c0 4.42 3.58 8 8 8h160c4.42 0 8-3.58 8-8v-24c0-4.42-3.58-8-8-8z" stroke="#0b7cba" stroke-width="2" fill="#c9ebff"/><use xlink:href="#x" transform="matrix(1,0,0,1,28,118.02006501182018) translate(67.0679012345679 17.77777777777778)"/><path d="M28 566.07c-4.42 0-8 3.58-8 8v24c0 4.4 3.58 8 8 8h160c4.42 0 8-3.6 8-8v-24c0-4.42-3.58-8-8-8z" stroke="#0b7cba" stroke-width="2" fill="#c9ebff"/><use xlink:href="#y" transform="matrix(1,0,0,1,28,574.0666666666666) translate(15.246913580246911 17.77777777777778)"/><use xlink:href="#z" transform="matrix(1,0,0,1,28,574.0666666666666) translate(55.925925925925924 17.77777777777778)"/><path d="M28 351.33c-4.42 0-8 3.6-8 8v24c0 4.42 3.58 8 8 8h160c4.42 0 8-3.58 8-8v-24c0-4.4-3.58-8-8-8z" stroke="#328220" stroke-width="2" fill="#b5e5aa"/><use xlink:href="#k" transform="matrix(1,0,0,1,28,359.3333333333333) translate(5.432098765432102 17.77777777777778)"/><use xlink:href="#c" transform="matrix(1,0,0,1,28,359.3333333333333) translate(60.92592592592593 17.77777777777778)"/><path d="M27.5 436.97c-4.42 0-8 3.58-8 8v24c0 4.42 3.58 8 8 8h160c4.42 0 8-3.58 8-8v-24c0-4.42-3.58-8-8-8z" stroke="#328220" stroke-width="2" fill="#b5e5aa"/><use xlink:href="#k" transform="matrix(1,0,0,1,27.5,444.971631205674) translate(28.24074074074074 17.77777777777778)"/><use xlink:href="#l" transform="matrix(1,0,0,1,27.5,444.971631205674) translate(83.73456790123457 17.77777777777778)"/><path d="M867 290.33c0 14.58-46.56 26.4-104 26.4s-104-11.82-104-26.4c0-14.58 46.56-26.4 104-26.4s104 11.82 104 26.4z" stroke="#f08c21" stroke-width="2" fill="#ffdbb6"/><use xlink:href="#A" transform="matrix(1,0,0,1,659,263.93333333333334) translate(64.56055555555555 31.02777777777778)"/><use xlink:href="#B" transform="matrix(1,0,0,1,659,263.93333333333334) translate(111.41240740740741 31.02777777777778)"/><path d="M197 130.02h71.25v-.25h51.4" fill="none"/><path d="M198.5 130.02c0 .83-.67 1.5-1.5 1.5s-1.5-.67-1.5-1.5.67-1.5 1.5-1.5 1.5.67 1.5 1.5zm6.14 0c0 .83-.67 1.5-1.5 1.5-.82 0-1.5-.67-1.5-1.5s.68-1.5 1.5-1.5c.83 0 1.5.67 1.5 1.5zm6.15 0c0 .83-.68 1.5-1.5 1.5-.84 0-1.5-.67-1.5-1.5s.66-1.5 1.5-1.5c.82 0 1.5.67 1.5 1.5zm6.13 0c0 .83-.67 1.5-1.5 1.5-.82 0-1.5-.67-1.5-1.5s.68-1.5 1.5-1.5c.83 0 1.5.67 1.5 1.5zm6.15 0c0 .83-.67 1.5-1.5 1.5s-1.5-.67-1.5-1.5.67-1.5 1.5-1.5 1.5.67 1.5 1.5zm6.14 0c0 .83-.67 1.5-1.5 1.5-.82 0-1.5-.67-1.5-1.5s.68-1.5 1.5-1.5c.83 0 1.5.67 1.5 1.5zm6.15 0c0 .83-.67 1.5-1.5 1.5s-1.5-.67-1.5-1.5.67-1.5 1.5-1.5 1.5.67 1.5 1.5zm6.14 0c0 .83-.66 1.5-1.5 1.5-.8 0-1.5-.67-1.5-1.5s.7-1.5 1.5-1.5c.84 0 1.5.67 1.5 1.5zm6.16 0c0 .83-.67 1.5-1.5 1.5s-1.5-.67-1.5-1.5.67-1.5 1.5-1.5 1.5.67 1.5 1.5zm6.14 0c0 .83-.67 1.5-1.5 1.5-.82 0-1.5-.67-1.5-1.5s.68-1.5 1.5-1.5c.83 0 1.5.67 1.5 1.5zm6.15 0c0 .83-.67 1.5-1.5 1.5s-1.5-.67-1.5-1.5.67-1.5 1.5-1.5 1.5.67 1.5 1.5zm6.14 0c0 .83-.68 1.5-1.5 1.5-.83 0-1.5-.67-1.5-1.5s.67-1.5 1.5-1.5c.82 0 1.5.67 1.5 1.5zm5.9-.25c0 .83-.7 1.5-1.5 1.5-.84 0-1.5-.67-1.5-1.5s.66-1.5 1.5-1.5c.8 0 1.5.67 1.5 1.5zm6.13 0c0 .83-.67 1.5-1.5 1.5s-1.5-.67-1.5-1.5.67-1.5 1.5-1.5 1.5.67 1.5 1.5zm6.15 0c0 .83-.68 1.5-1.5 1.5-.83 0-1.5-.67-1.5-1.5s.67-1.5 1.5-1.5c.82 0 1.5.67 1.5 1.5zm6.14 0c0 .83-.67 1.5-1.5 1.5s-1.5-.67-1.5-1.5.67-1.5 1.5-1.5 1.5.67 1.5 1.5zm6.15 0c0 .83-.68 1.5-1.5 1.5-.83 0-1.5-.67-1.5-1.5s.67-1.5 1.5-1.5c.82 0 1.5.67 1.5 1.5zm6.14 0c0 .83-.66 1.5-1.5 1.5-.82 0-1.5-.67-1.5-1.5s.68-1.5 1.5-1.5c.84 0 1.5.67 1.5 1.5zm6.16 0c0 .83-.68 1.5-1.5 1.5-.83 0-1.5-.67-1.5-1.5s.67-1.5 1.5-1.5c.82 0 1.5.67 1.5 1.5zm6.14 0c0 .83-.67 1.5-1.5 1.5s-1.5-.67-1.5-1.5.67-1.5 1.5-1.5 1.5.67 1.5 1.5z" fill="#666"/><path d="M197 131.52h-1v-3h1z" fill="#666"/><path d="M334.65 129.77l-14.27 4.63v-9.27z" fill="#fff"/><path d="M339.5 129.77l-20.62 6.7v-13.4zm-17.62 2.57l7.9-2.57-7.9-2.57z" fill="#666"/><path d="M197 371.33h70.6v-.23h50.73" fill="none"/><path d="M198.5 371.33c0 .83-.67 1.5-1.5 1.5s-1.5-.67-1.5-1.5.67-1.5 1.5-1.5 1.5.67 1.5 1.5zm6.08 0c0 .83-.67 1.5-1.5 1.5s-1.5-.67-1.5-1.5.67-1.5 1.5-1.5 1.5.67 1.5 1.5zm6.08 0c0 .83-.68 1.5-1.5 1.5-.83 0-1.5-.67-1.5-1.5s.67-1.5 1.5-1.5c.82 0 1.5.67 1.5 1.5zm6.07 0c0 .83-.67 1.5-1.5 1.5-.82 0-1.5-.67-1.5-1.5s.68-1.5 1.5-1.5c.83 0 1.5.67 1.5 1.5zm6.08 0c0 .83-.66 1.5-1.5 1.5-.82 0-1.5-.67-1.5-1.5s.68-1.5 1.5-1.5c.84 0 1.5.67 1.5 1.5zm6.1 0c0 .83-.68 1.5-1.5 1.5-.84 0-1.5-.67-1.5-1.5s.66-1.5 1.5-1.5c.82 0 1.5.67 1.5 1.5zm6.07 0c0 .83-.67 1.5-1.5 1.5s-1.5-.67-1.5-1.5.67-1.5 1.5-1.5 1.5.67 1.5 1.5zm6.08 0c0 .83-.67 1.5-1.5 1.5s-1.5-.67-1.5-1.5.67-1.5 1.5-1.5 1.5.67 1.5 1.5zm6.08 0c0 .83-.68 1.5-1.5 1.5-.83 0-1.5-.67-1.5-1.5s.67-1.5 1.5-1.5c.82 0 1.5.67 1.5 1.5zm6.07 0c0 .83-.67 1.5-1.5 1.5-.82 0-1.5-.67-1.5-1.5s.68-1.5 1.5-1.5c.83 0 1.5.67 1.5 1.5zm6.08 0c0 .83-.67 1.5-1.5 1.5s-1.5-.67-1.5-1.5.67-1.5 1.5-1.5 1.5.67 1.5 1.5zm6.08 0c0 .83-.67 1.5-1.5 1.5s-1.5-.67-1.5-1.5.67-1.5 1.5-1.5 1.5.67 1.5 1.5zm5.85-.23c0 .83-.67 1.5-1.5 1.5-.82 0-1.5-.67-1.5-1.5s.68-1.5 1.5-1.5c.83 0 1.5.67 1.5 1.5zm6.08 0c0 .83-.67 1.5-1.5 1.5s-1.5-.67-1.5-1.5.67-1.5 1.5-1.5 1.5.67 1.5 1.5zm6.08 0c0 .83-.67 1.5-1.5 1.5s-1.5-.67-1.5-1.5.67-1.5 1.5-1.5 1.5.67 1.5 1.5zm6.08 0c0 .83-.67 1.5-1.5 1.5s-1.5-.67-1.5-1.5.67-1.5 1.5-1.5 1.5.67 1.5 1.5zm6.08 0c0 .83-.67 1.5-1.5 1.5s-1.5-.67-1.5-1.5.67-1.5 1.5-1.5 1.5.67 1.5 1.5zm6.08 0c0 .83-.68 1.5-1.5 1.5-.83 0-1.5-.67-1.5-1.5s.67-1.5 1.5-1.5c.82 0 1.5.67 1.5 1.5zm6.07 0c0 .83-.67 1.5-1.5 1.5-.82 0-1.5-.67-1.5-1.5s.68-1.5 1.5-1.5c.83 0 1.5.67 1.5 1.5zm6.08 0c0 .83-.67 1.5-1.5 1.5s-1.5-.67-1.5-1.5.67-1.5 1.5-1.5 1.5.67 1.5 1.5zm6.08 0c0 .83-.67 1.5-1.5 1.5s-1.5-.67-1.5-1.5.67-1.5 1.5-1.5 1.5.67 1.5 1.5z" fill="#666"/><path d="M197 372.83h-1v-3h1z" fill="#666"/><path d="M333.33 371.1l-14.27 4.64v-9.28z" fill="#fff"/><path d="M338.18 371.1l-20.62 6.7v-13.4zm-17.62 2.57l7.92-2.57-7.92-2.57z" fill="#666"/><path d="M196.5 456.97h71.17v-.25h51.3" fill="none"/><path d="M198 456.97c0 .83-.67 1.5-1.5 1.5s-1.5-.67-1.5-1.5.67-1.5 1.5-1.5 1.5.67 1.5 1.5zm6.14 0c0 .83-.67 1.5-1.5 1.5s-1.5-.67-1.5-1.5.67-1.5 1.5-1.5 1.5.67 1.5 1.5zm6.13 0c0 .83-.67 1.5-1.5 1.5s-1.5-.67-1.5-1.5.67-1.5 1.5-1.5 1.5.67 1.5 1.5zm6.14 0c0 .83-.66 1.5-1.5 1.5-.82 0-1.5-.67-1.5-1.5s.68-1.5 1.5-1.5c.84 0 1.5.67 1.5 1.5zm6.15 0c0 .83-.68 1.5-1.5 1.5-.83 0-1.5-.67-1.5-1.5s.67-1.5 1.5-1.5c.82 0 1.5.67 1.5 1.5zm6.13 0c0 .83-.67 1.5-1.5 1.5s-1.5-.67-1.5-1.5.67-1.5 1.5-1.5 1.5.67 1.5 1.5zm6.14 0c0 .83-.67 1.5-1.5 1.5s-1.5-.67-1.5-1.5.67-1.5 1.5-1.5 1.5.67 1.5 1.5zm6.14 0c0 .83-.68 1.5-1.5 1.5-.83 0-1.5-.67-1.5-1.5s.67-1.5 1.5-1.5c.82 0 1.5.67 1.5 1.5zm6.13 0c0 .83-.68 1.5-1.5 1.5-.84 0-1.5-.67-1.5-1.5s.66-1.5 1.5-1.5c.82 0 1.5.67 1.5 1.5zm6.13 0c0 .83-.67 1.5-1.5 1.5s-1.5-.67-1.5-1.5.67-1.5 1.5-1.5 1.5.67 1.5 1.5zm6.14 0c0 .83-.68 1.5-1.5 1.5-.83 0-1.5-.67-1.5-1.5s.67-1.5 1.5-1.5c.82 0 1.5.67 1.5 1.5zm6.13 0c0 .83-.67 1.5-1.5 1.5s-1.5-.67-1.5-1.5.67-1.5 1.5-1.5 1.5.67 1.5 1.5zm5.9-.25c0 .83-.7 1.5-1.5 1.5-.84 0-1.5-.67-1.5-1.5s.66-1.5 1.5-1.5c.8 0 1.5.67 1.5 1.5zm6.12 0c0 .83-.67 1.5-1.5 1.5s-1.5-.67-1.5-1.5.67-1.5 1.5-1.5 1.5.67 1.5 1.5zm6.14 0c0 .83-.67 1.5-1.5 1.5s-1.5-.67-1.5-1.5.67-1.5 1.5-1.5 1.5.67 1.5 1.5zm6.14 0c0 .83-.68 1.5-1.5 1.5-.83 0-1.5-.67-1.5-1.5s.67-1.5 1.5-1.5c.82 0 1.5.67 1.5 1.5zm6.13 0c0 .83-.67 1.5-1.5 1.5s-1.5-.67-1.5-1.5.67-1.5 1.5-1.5 1.5.67 1.5 1.5zm6.14 0c0 .83-.67 1.5-1.5 1.5s-1.5-.67-1.5-1.5.67-1.5 1.5-1.5 1.5.67 1.5 1.5zm6.14 0c0 .83-.67 1.5-1.5 1.5-.82 0-1.5-.67-1.5-1.5s.68-1.5 1.5-1.5c.83 0 1.5.67 1.5 1.5zm6.14 0c0 .83-.67 1.5-1.5 1.5s-1.5-.67-1.5-1.5.67-1.5 1.5-1.5 1.5.67 1.5 1.5zm6.14 0c0 .83-.67 1.5-1.5 1.5s-1.5-.67-1.5-1.5.67-1.5 1.5-1.5 1.5.67 1.5 1.5z" fill="#666"/><path d="M196.5 458.47h-1v-3h1z" fill="#666"/><path d="M333.98 456.72l-14.27 4.63v-9.27z" fill="#fff"/><path d="M338.83 456.72l-20.62 6.7v-13.4zm-17.62 2.57l7.93-2.58-7.92-2.57z" fill="#666"/><path d="M197 584.07h71.17v-.26h51.3" fill="none"/><path d="M198.5 584.07c0 .83-.67 1.5-1.5 1.5s-1.5-.67-1.5-1.5.67-1.5 1.5-1.5 1.5.67 1.5 1.5zm6.14 0c0 .83-.67 1.5-1.5 1.5s-1.5-.67-1.5-1.5.67-1.5 1.5-1.5 1.5.67 1.5 1.5zm6.13 0c0 .83-.67 1.5-1.5 1.5s-1.5-.67-1.5-1.5.67-1.5 1.5-1.5 1.5.67 1.5 1.5zm6.14 0c0 .83-.66 1.5-1.5 1.5-.82 0-1.5-.67-1.5-1.5s.68-1.5 1.5-1.5c.84 0 1.5.67 1.5 1.5zm6.15 0c0 .83-.68 1.5-1.5 1.5-.83 0-1.5-.67-1.5-1.5s.67-1.5 1.5-1.5c.82 0 1.5.67 1.5 1.5zm6.13 0c0 .83-.67 1.5-1.5 1.5s-1.5-.67-1.5-1.5.67-1.5 1.5-1.5 1.5.67 1.5 1.5zm6.14 0c0 .83-.67 1.5-1.5 1.5s-1.5-.67-1.5-1.5.67-1.5 1.5-1.5 1.5.67 1.5 1.5zm6.14 0c0 .83-.68 1.5-1.5 1.5-.83 0-1.5-.67-1.5-1.5s.67-1.5 1.5-1.5c.82 0 1.5.67 1.5 1.5zm6.13 0c0 .83-.68 1.5-1.5 1.5-.84 0-1.5-.67-1.5-1.5s.66-1.5 1.5-1.5c.82 0 1.5.67 1.5 1.5zm6.13 0c0 .83-.67 1.5-1.5 1.5s-1.5-.67-1.5-1.5.67-1.5 1.5-1.5 1.5.67 1.5 1.5zm6.14 0c0 .83-.68 1.5-1.5 1.5-.83 0-1.5-.67-1.5-1.5s.67-1.5 1.5-1.5c.82 0 1.5.67 1.5 1.5zm6.13 0c0 .83-.67 1.5-1.5 1.5s-1.5-.67-1.5-1.5.67-1.5 1.5-1.5 1.5.67 1.5 1.5zm5.9-.26c0 .84-.7 1.5-1.5 1.5-.84 0-1.5-.66-1.5-1.5 0-.82.66-1.5 1.5-1.5.8 0 1.5.68 1.5 1.5zm6.12 0c0 .84-.67 1.5-1.5 1.5s-1.5-.66-1.5-1.5c0-.82.67-1.5 1.5-1.5s1.5.68 1.5 1.5zm6.14 0c0 .84-.67 1.5-1.5 1.5s-1.5-.66-1.5-1.5c0-.82.67-1.5 1.5-1.5s1.5.68 1.5 1.5zm6.14 0c0 .84-.68 1.5-1.5 1.5-.83 0-1.5-.66-1.5-1.5 0-.82.67-1.5 1.5-1.5.82 0 1.5.68 1.5 1.5zm6.13 0c0 .84-.67 1.5-1.5 1.5s-1.5-.66-1.5-1.5c0-.82.67-1.5 1.5-1.5s1.5.68 1.5 1.5zm6.14 0c0 .84-.67 1.5-1.5 1.5s-1.5-.66-1.5-1.5c0-.82.67-1.5 1.5-1.5s1.5.68 1.5 1.5zm6.14 0c0 .84-.67 1.5-1.5 1.5-.82 0-1.5-.66-1.5-1.5 0-.82.68-1.5 1.5-1.5.83 0 1.5.68 1.5 1.5zm6.14 0c0 .84-.67 1.5-1.5 1.5s-1.5-.66-1.5-1.5c0-.82.67-1.5 1.5-1.5s1.5.68 1.5 1.5zm6.14 0c0 .84-.67 1.5-1.5 1.5s-1.5-.66-1.5-1.5c0-.82.67-1.5 1.5-1.5s1.5.68 1.5 1.5z" fill="#666"/><path d="M197 585.57h-1v-3h1z" fill="#666"/><path d="M334.48 583.8l-14.27 4.65v-9.27z" fill="#fff"/><path d="M339.33 583.8l-20.62 6.7v-13.4zm-17.62 2.58l7.93-2.57-7.92-2.56z" fill="#666"/><path d="M517.33 825.4H614V819h26.43" stroke="#328220" stroke-width="2" fill="none"/><path d="M517.33 826.4h-1v-2h1zM655.43 819l-14.27 4.65v-9.27z" fill="#328220"/><path d="M658.67 819l-18.5 6.02V813zm-16.5 3.27l10.02-3.26-10.04-3.25z" fill="#328220"/><path d="M516.83 1142h122.6" stroke="#328220" stroke-width="2" fill="none"/><path d="M516.83 1143h-1v-2h1zM654.43 1142l-14.27 4.64v-9.28z" fill="#328220"/><path d="M657.67 1142l-18.5 6v-12zm-16.5 3.26l10.02-3.26-10.04-3.26z" fill="#328220"/><path d="M868.67 819h20v283H427.83v.76" stroke="#f08c21" stroke-width="2" fill="none"/><path d="M868.67 820h-1.08l.03-.33.03-.33v-.53l-.02-.34-.03-.33V818h1.07zM427.83 1117.76l-4.63-14.26h9.27z" fill="#f08c21"/><path d="M427.83 1121l-6-18.5h12.02zm-3.26-16.5l3.26 10.03 3.26-10.03z" fill="#f08c21"/><path d="M867.67 1142h13v42.67H427.83v6.84" stroke="#f08c21" stroke-width="2" fill="none"/><path d="M867.82 1141l-.3 2-.9-.15v-.2l.04-.32v-.55l-.02-.33-.03-.33-.04-.3zM427.83 1206.5l-4.63-14.26h9.27z" fill="#f08c21"/><path d="M427.83 1209.75l-6-18.5h12.02zm-3.26-16.5l3.26 10.02 3.26-10.03z" fill="#f08c21"/><path d="M868.17 129.6H880V166H428v3.86" stroke="#f08c21" stroke-width="2" fill="none"/><path d="M868.43 128.63l-.52 1.94-.78-.2v-.1l.04-.34v-.55l-.02-.33-.03-.33-.04-.33-.03-.14zM428 184.86l-4.64-14.26h9.28z" fill="#f08c21"/><path d="M428 188.1l-6-18.5h12zm-3.26-16.5l3.26 10.03 3.26-10.03z" fill="#f08c21"/><path d="M868 290.33h12.67v38.34H108v3.43" stroke="#f08c21" stroke-width="2" fill="none"/><path d="M868.18 289.35l-.36 1.97-.87-.16.02-.17.02-.34v-.55l-.02-.32-.04-.33-.05-.33zM108 347.1l-4.64-14.27h9.28z" fill="#f08c21"/><path d="M108 350.33l-6-18.5h12zm-3.26-16.5l3.26 10.03 3.26-10.03z" fill="#f08c21"/><path d="M868 290.33h12.67v122.34H107.5v5.07" stroke="#f08c21" stroke-width="2" fill="none"/><path d="M868.18 289.35l-.36 1.97-.87-.16.02-.17.02-.34v-.55l-.02-.32-.04-.33-.05-.33zM107.5 432.74l-4.64-14.27h9.28z" fill="#f08c21"/><path d="M107.5 435.97l-6-18.5h12zm-3.26-16.5l3.26 10.03 3.26-10.03z" fill="#f08c21"/><path d="M197 130.02h12.33v774.65h110.15" fill="none"/><path d="M198.5 130.02c0 .83-.67 1.5-1.5 1.5s-1.5-.67-1.5-1.5.67-1.5 1.5-1.5 1.5.67 1.5 1.5zm5.98 0c0 .83-.67 1.5-1.5 1.5s-1.5-.67-1.5-1.5.67-1.5 1.5-1.5 1.5.67 1.5 1.5zm5.98 0c0 .83-.67 1.5-1.5 1.5s-1.5-.67-1.5-1.5.67-1.5 1.5-1.5 1.5.67 1.5 1.5zm.37 5.6c0 .84-.67 1.5-1.5 1.5s-1.5-.66-1.5-1.5c0-.82.67-1.5 1.5-1.5s1.5.68 1.5 1.5zm0 6c0 .82-.67 1.5-1.5 1.5s-1.5-.68-1.5-1.5c0-.84.67-1.5 1.5-1.5s1.5.66 1.5 1.5zm0 5.97c0 .82-.67 1.5-1.5 1.5s-1.5-.68-1.5-1.5c0-.84.67-1.5 1.5-1.5s1.5.66 1.5 1.5zm0 5.97c0 .83-.67 1.5-1.5 1.5s-1.5-.67-1.5-1.5.67-1.5 1.5-1.5 1.5.67 1.5 1.5zm0 5.98c0 .83-.67 1.5-1.5 1.5s-1.5-.67-1.5-1.5.67-1.5 1.5-1.5 1.5.67 1.5 1.5zm0 5.98c0 .83-.67 1.5-1.5 1.5s-1.5-.67-1.5-1.5c0-.82.67-1.5 1.5-1.5s1.5.68 1.5 1.5zm0 5.98c0 .84-.67 1.5-1.5 1.5s-1.5-.66-1.5-1.5c0-.8.67-1.5 1.5-1.5s1.5.7 1.5 1.5zm0 6c0 .82-.67 1.5-1.5 1.5s-1.5-.68-1.5-1.5c0-.83.67-1.5 1.5-1.5s1.5.67 1.5 1.5zm0 5.98c0 .82-.67 1.5-1.5 1.5s-1.5-.68-1.5-1.5c0-.83.67-1.5 1.5-1.5s1.5.67 1.5 1.5zm0 5.98c0 .83-.67 1.5-1.5 1.5s-1.5-.67-1.5-1.5.67-1.5 1.5-1.5 1.5.67 1.5 1.5zm0 5.98c0 .83-.67 1.5-1.5 1.5s-1.5-.67-1.5-1.5.67-1.5 1.5-1.5 1.5.67 1.5 1.5zm0 5.98c0 .83-.67 1.5-1.5 1.5s-1.5-.67-1.5-1.5.67-1.5 1.5-1.5 1.5.67 1.5 1.5zm0 5.98c0 .83-.67 1.5-1.5 1.5s-1.5-.67-1.5-1.5.67-1.5 1.5-1.5 1.5.67 1.5 1.5zm0 5.98c0 .83-.67 1.5-1.5 1.5s-1.5-.67-1.5-1.5.67-1.5 1.5-1.5 1.5.67 1.5 1.5zm0 5.98c0 .83-.67 1.5-1.5 1.5s-1.5-.67-1.5-1.5.67-1.5 1.5-1.5 1.5.67 1.5 1.5zm0 5.98c0 .83-.67 1.5-1.5 1.5s-1.5-.67-1.5-1.5.67-1.5 1.5-1.5 1.5.67 1.5 1.5zm0 5.98c0 .83-.67 1.5-1.5 1.5s-1.5-.67-1.5-1.5.67-1.5 1.5-1.5 1.5.67 1.5 1.5zm0 5.98c0 .83-.67 1.5-1.5 1.5s-1.5-.67-1.5-1.5c0-.82.67-1.5 1.5-1.5s1.5.68 1.5 1.5zm0 5.98c0 .83-.67 1.5-1.5 1.5s-1.5-.67-1.5-1.5c0-.82.67-1.5 1.5-1.5s1.5.68 1.5 1.5zm0 6c0 .8-.67 1.5-1.5 1.5s-1.5-.7-1.5-1.5c0-.84.67-1.5 1.5-1.5s1.5.66 1.5 1.5zm0 5.97c0 .82-.67 1.5-1.5 1.5s-1.5-.68-1.5-1.5c0-.83.67-1.5 1.5-1.5s1.5.67 1.5 1.5zm0 5.98c0 .83-.67 1.5-1.5 1.5s-1.5-.67-1.5-1.5.67-1.5 1.5-1.5 1.5.67 1.5 1.5zm0 5.98c0 .84-.67 1.5-1.5 1.5s-1.5-.66-1.5-1.5c0-.82.67-1.5 1.5-1.5s1.5.68 1.5 1.5zm0 6c0 .82-.67 1.5-1.5 1.5s-1.5-.68-1.5-1.5c0-.84.67-1.5 1.5-1.5s1.5.66 1.5 1.5zm0 5.97c0 .83-.67 1.5-1.5 1.5s-1.5-.67-1.5-1.5.67-1.5 1.5-1.5 1.5.67 1.5 1.5zm0 5.98c0 .83-.67 1.5-1.5 1.5s-1.5-.67-1.5-1.5.67-1.5 1.5-1.5 1.5.67 1.5 1.5zm0 5.98c0 .83-.67 1.5-1.5 1.5s-1.5-.67-1.5-1.5.67-1.5 1.5-1.5 1.5.67 1.5 1.5zm0 5.98c0 .84-.67 1.5-1.5 1.5s-1.5-.66-1.5-1.5c0-.82.67-1.5 1.5-1.5s1.5.68 1.5 1.5zm0 6c0 .82-.67 1.5-1.5 1.5s-1.5-.68-1.5-1.5c0-.84.67-1.5 1.5-1.5s1.5.66 1.5 1.5zm0 5.97c0 .83-.67 1.5-1.5 1.5s-1.5-.67-1.5-1.5c0-.82.67-1.5 1.5-1.5s1.5.68 1.5 1.5zm0 5.98c0 .83-.67 1.5-1.5 1.5s-1.5-.67-1.5-1.5c0-.82.67-1.5 1.5-1.5s1.5.68 1.5 1.5zm0 6c0 .8-.67 1.5-1.5 1.5s-1.5-.7-1.5-1.5c0-.84.67-1.5 1.5-1.5s1.5.66 1.5 1.5zm0 5.97c0 .82-.67 1.5-1.5 1.5s-1.5-.68-1.5-1.5c0-.83.67-1.5 1.5-1.5s1.5.67 1.5 1.5zm0 5.98c0 .83-.67 1.5-1.5 1.5s-1.5-.67-1.5-1.5.67-1.5 1.5-1.5 1.5.67 1.5 1.5zm0 5.98c0 .83-.67 1.5-1.5 1.5s-1.5-.67-1.5-1.5.67-1.5 1.5-1.5 1.5.67 1.5 1.5zm0 5.98c0 .83-.67 1.5-1.5 1.5s-1.5-.67-1.5-1.5.67-1.5 1.5-1.5 1.5.67 1.5 1.5zm0 5.98c0 .83-.67 1.5-1.5 1.5s-1.5-.67-1.5-1.5.67-1.5 1.5-1.5 1.5.67 1.5 1.5zm0 5.98c0 .83-.67 1.5-1.5 1.5s-1.5-.67-1.5-1.5.67-1.5 1.5-1.5 1.5.67 1.5 1.5zm0 5.98c0 .83-.67 1.5-1.5 1.5s-1.5-.67-1.5-1.5.67-1.5 1.5-1.5 1.5.67 1.5 1.5zm0 5.98c0 .83-.67 1.5-1.5 1.5s-1.5-.67-1.5-1.5.67-1.5 1.5-1.5 1.5.67 1.5 1.5zm0 5.98c0 .83-.67 1.5-1.5 1.5s-1.5-.67-1.5-1.5.67-1.5 1.5-1.5 1.5.67 1.5 1.5zm0 5.98c0 .83-.67 1.5-1.5 1.5s-1.5-.67-1.5-1.5c0-.82.67-1.5 1.5-1.5s1.5.68 1.5 1.5zm0 5.98c0 .83-.67 1.5-1.5 1.5s-1.5-.67-1.5-1.5c0-.82.67-1.5 1.5-1.5s1.5.68 1.5 1.5zm0 6c0 .8-.67 1.5-1.5 1.5s-1.5-.7-1.5-1.5c0-.84.67-1.5 1.5-1.5s1.5.66 1.5 1.5zm0 5.97c0 .8-.67 1.5-1.5 1.5s-1.5-.7-1.5-1.5c0-.84.67-1.5 1.5-1.5s1.5.66 1.5 1.5zm0 5.97c0 .83-.67 1.5-1.5 1.5s-1.5-.67-1.5-1.5.67-1.5 1.5-1.5 1.5.67 1.5 1.5zm0 5.98c0 .83-.67 1.5-1.5 1.5s-1.5-.67-1.5-1.5.67-1.5 1.5-1.5 1.5.67 1.5 1.5zm0 5.98c0 .83-.67 1.5-1.5 1.5s-1.5-.67-1.5-1.5.67-1.5 1.5-1.5 1.5.67 1.5 1.5zm0 5.98c0 .84-.67 1.5-1.5 1.5s-1.5-.66-1.5-1.5c0-.82.67-1.5 1.5-1.5s1.5.68 1.5 1.5zm0 6c0 .82-.67 1.5-1.5 1.5s-1.5-.68-1.5-1.5c0-.84.67-1.5 1.5-1.5s1.5.66 1.5 1.5zm0 5.97c0 .83-.67 1.5-1.5 1.5s-1.5-.67-1.5-1.5.67-1.5 1.5-1.5 1.5.67 1.5 1.5zm0 5.98c0 .83-.67 1.5-1.5 1.5s-1.5-.67-1.5-1.5.67-1.5 1.5-1.5 1.5.67 1.5 1.5zm0 5.98c0 .83-.67 1.5-1.5 1.5s-1.5-.67-1.5-1.5.67-1.5 1.5-1.5 1.5.67 1.5 1.5zm0 5.98c0 .84-.67 1.5-1.5 1.5s-1.5-.66-1.5-1.5c0-.8.67-1.5 1.5-1.5s1.5.7 1.5 1.5zm0 6c0 .82-.67 1.5-1.5 1.5s-1.5-.68-1.5-1.5c0-.83.67-1.5 1.5-1.5s1.5.67 1.5 1.5zm0 5.98c0 .82-.67 1.5-1.5 1.5s-1.5-.68-1.5-1.5c0-.83.67-1.5 1.5-1.5s1.5.67 1.5 1.5zm0 5.98c0 .82-.67 1.5-1.5 1.5s-1.5-.68-1.5-1.5c0-.83.67-1.5 1.5-1.5s1.5.67 1.5 1.5zm0 5.98c0 .83-.67 1.5-1.5 1.5s-1.5-.67-1.5-1.5.67-1.5 1.5-1.5 1.5.67 1.5 1.5zm0 5.98c0 .83-.67 1.5-1.5 1.5s-1.5-.67-1.5-1.5.67-1.5 1.5-1.5 1.5.67 1.5 1.5zm0 5.98c0 .83-.67 1.5-1.5 1.5s-1.5-.67-1.5-1.5.67-1.5 1.5-1.5 1.5.67 1.5 1.5zm0 5.98c0 .83-.67 1.5-1.5 1.5s-1.5-.67-1.5-1.5.67-1.5 1.5-1.5 1.5.67 1.5 1.5zm0 5.98c0 .83-.67 1.5-1.5 1.5s-1.5-.67-1.5-1.5.67-1.5 1.5-1.5 1.5.67 1.5 1.5zm0 5.98c0 .83-.67 1.5-1.5 1.5s-1.5-.67-1.5-1.5.67-1.5 1.5-1.5 1.5.67 1.5 1.5zm0 5.98c0 .83-.67 1.5-1.5 1.5s-1.5-.67-1.5-1.5.67-1.5 1.5-1.5 1.5.67 1.5 1.5zm0 5.98c0 .83-.67 1.5-1.5 1.5s-1.5-.67-1.5-1.5.67-1.5 1.5-1.5 1.5.67 1.5 1.5zm0 5.98c0 .83-.67 1.5-1.5 1.5s-1.5-.67-1.5-1.5c0-.82.67-1.5 1.5-1.5s1.5.68 1.5 1.5zm0 5.98c0 .83-.67 1.5-1.5 1.5s-1.5-.67-1.5-1.5c0-.82.67-1.5 1.5-1.5s1.5.68 1.5 1.5zm0 6c0 .8-.67 1.5-1.5 1.5s-1.5-.7-1.5-1.5c0-.84.67-1.5 1.5-1.5s1.5.66 1.5 1.5zm0 5.97c0 .82-.67 1.5-1.5 1.5s-1.5-.68-1.5-1.5c0-.83.67-1.5 1.5-1.5s1.5.67 1.5 1.5zm0 5.98c0 .84-.67 1.5-1.5 1.5s-1.5-.66-1.5-1.5c0-.82.67-1.5 1.5-1.5s1.5.68 1.5 1.5zm0 6c0 .82-.67 1.5-1.5 1.5s-1.5-.68-1.5-1.5c0-.84.67-1.5 1.5-1.5s1.5.66 1.5 1.5zm0 5.97c0 .83-.67 1.5-1.5 1.5s-1.5-.67-1.5-1.5.67-1.5 1.5-1.5 1.5.67 1.5 1.5zm0 5.98c0 .83-.67 1.5-1.5 1.5s-1.5-.67-1.5-1.5.67-1.5 1.5-1.5 1.5.67 1.5 1.5zm0 5.98c0 .83-.67 1.5-1.5 1.5s-1.5-.67-1.5-1.5.67-1.5 1.5-1.5 1.5.67 1.5 1.5zm0 5.98c0 .84-.67 1.5-1.5 1.5s-1.5-.66-1.5-1.5c0-.82.67-1.5 1.5-1.5s1.5.68 1.5 1.5zm0 6c0 .82-.67 1.5-1.5 1.5s-1.5-.68-1.5-1.5c0-.84.67-1.5 1.5-1.5s1.5.66 1.5 1.5zm0 5.97c0 .83-.67 1.5-1.5 1.5s-1.5-.67-1.5-1.5.67-1.5 1.5-1.5 1.5.67 1.5 1.5zm0 5.98c0 .83-.67 1.5-1.5 1.5s-1.5-.67-1.5-1.5c0-.82.67-1.5 1.5-1.5s1.5.68 1.5 1.5zm0 5.98c0 .83-.67 1.5-1.5 1.5s-1.5-.67-1.5-1.5c0-.82.67-1.5 1.5-1.5s1.5.68 1.5 1.5zm0 6c0 .8-.67 1.5-1.5 1.5s-1.5-.7-1.5-1.5c0-.84.67-1.5 1.5-1.5s1.5.66 1.5 1.5zm0 5.97c0 .82-.67 1.5-1.5 1.5s-1.5-.68-1.5-1.5c0-.83.67-1.5 1.5-1.5s1.5.67 1.5 1.5zm0 5.98c0 .83-.67 1.5-1.5 1.5s-1.5-.67-1.5-1.5.67-1.5 1.5-1.5 1.5.67 1.5 1.5zm0 5.98c0 .83-.67 1.5-1.5 1.5s-1.5-.67-1.5-1.5.67-1.5 1.5-1.5 1.5.67 1.5 1.5zm0 5.98c0 .83-.67 1.5-1.5 1.5s-1.5-.67-1.5-1.5.67-1.5 1.5-1.5 1.5.67 1.5 1.5zm0 5.98c0 .83-.67 1.5-1.5 1.5s-1.5-.67-1.5-1.5.67-1.5 1.5-1.5 1.5.67 1.5 1.5zm0 5.98c0 .83-.67 1.5-1.5 1.5s-1.5-.67-1.5-1.5.67-1.5 1.5-1.5 1.5.67 1.5 1.5zm0 5.98c0 .83-.67 1.5-1.5 1.5s-1.5-.67-1.5-1.5.67-1.5 1.5-1.5 1.5.67 1.5 1.5zm0 5.98c0 .83-.67 1.5-1.5 1.5s-1.5-.67-1.5-1.5.67-1.5 1.5-1.5 1.5.67 1.5 1.5zm0 5.98c0 .83-.67 1.5-1.5 1.5s-1.5-.67-1.5-1.5.67-1.5 1.5-1.5 1.5.67 1.5 1.5zm0 5.98c0 .83-.67 1.5-1.5 1.5s-1.5-.67-1.5-1.5c0-.82.67-1.5 1.5-1.5s1.5.68 1.5 1.5zm0 5.98c0 .83-.67 1.5-1.5 1.5s-1.5-.67-1.5-1.5c0-.82.67-1.5 1.5-1.5s1.5.68 1.5 1.5zm0 6c0 .8-.67 1.5-1.5 1.5s-1.5-.7-1.5-1.5c0-.84.67-1.5 1.5-1.5s1.5.66 1.5 1.5zm0 5.97c0 .82-.67 1.5-1.5 1.5s-1.5-.68-1.5-1.5c0-.83.67-1.5 1.5-1.5s1.5.67 1.5 1.5zm0 5.98c0 .83-.67 1.5-1.5 1.5s-1.5-.67-1.5-1.5.67-1.5 1.5-1.5 1.5.67 1.5 1.5zm0 5.98c0 .83-.67 1.5-1.5 1.5s-1.5-.67-1.5-1.5.67-1.5 1.5-1.5 1.5.67 1.5 1.5zm0 5.98c0 .84-.67 1.5-1.5 1.5s-1.5-.66-1.5-1.5c0-.82.67-1.5 1.5-1.5s1.5.68 1.5 1.5zm0 6c0 .82-.67 1.5-1.5 1.5s-1.5-.68-1.5-1.5c0-.84.67-1.5 1.5-1.5s1.5.66 1.5 1.5zm0 5.97c0 .83-.67 1.5-1.5 1.5s-1.5-.67-1.5-1.5.67-1.5 1.5-1.5 1.5.67 1.5 1.5zm0 5.98c0 .83-.67 1.5-1.5 1.5s-1.5-.67-1.5-1.5.67-1.5 1.5-1.5 1.5.67 1.5 1.5zm0 5.98c0 .83-.67 1.5-1.5 1.5s-1.5-.67-1.5-1.5.67-1.5 1.5-1.5 1.5.67 1.5 1.5zm0 5.98c0 .84-.67 1.5-1.5 1.5s-1.5-.66-1.5-1.5c0-.82.67-1.5 1.5-1.5s1.5.68 1.5 1.5zm0 6c0 .82-.67 1.5-1.5 1.5s-1.5-.68-1.5-1.5c0-.83.67-1.5 1.5-1.5s1.5.67 1.5 1.5zm0 5.97c0 .83-.67 1.5-1.5 1.5s-1.5-.67-1.5-1.5c0-.82.67-1.5 1.5-1.5s1.5.68 1.5 1.5zm0 6c0 .8-.67 1.5-1.5 1.5s-1.5-.7-1.5-1.5c0-.84.67-1.5 1.5-1.5s1.5.66 1.5 1.5zm0 5.97c0 .82-.67 1.5-1.5 1.5s-1.5-.68-1.5-1.5c0-.83.67-1.5 1.5-1.5s1.5.67 1.5 1.5zm0 5.98c0 .83-.67 1.5-1.5 1.5s-1.5-.67-1.5-1.5.67-1.5 1.5-1.5 1.5.67 1.5 1.5zm0 5.98c0 .83-.67 1.5-1.5 1.5s-1.5-.67-1.5-1.5.67-1.5 1.5-1.5 1.5.67 1.5 1.5zm0 5.98c0 .83-.67 1.5-1.5 1.5s-1.5-.67-1.5-1.5.67-1.5 1.5-1.5 1.5.67 1.5 1.5zm0 5.98c0 .83-.67 1.5-1.5 1.5s-1.5-.67-1.5-1.5.67-1.5 1.5-1.5 1.5.67 1.5 1.5zm0 5.98c0 .83-.67 1.5-1.5 1.5s-1.5-.67-1.5-1.5.67-1.5 1.5-1.5 1.5.67 1.5 1.5zm0 5.98c0 .83-.67 1.5-1.5 1.5s-1.5-.67-1.5-1.5.67-1.5 1.5-1.5 1.5.67 1.5 1.5zm0 5.98c0 .83-.67 1.5-1.5 1.5s-1.5-.67-1.5-1.5.67-1.5 1.5-1.5 1.5.67 1.5 1.5zm0 5.98c0 .83-.67 1.5-1.5 1.5s-1.5-.67-1.5-1.5.67-1.5 1.5-1.5 1.5.67 1.5 1.5zm0 5.98c0 .83-.67 1.5-1.5 1.5s-1.5-.67-1.5-1.5c0-.82.67-1.5 1.5-1.5s1.5.68 1.5 1.5zm0 5.98c0 .83-.67 1.5-1.5 1.5s-1.5-.67-1.5-1.5c0-.82.67-1.5 1.5-1.5s1.5.68 1.5 1.5zm0 6c0 .8-.67 1.5-1.5 1.5s-1.5-.7-1.5-1.5c0-.84.67-1.5 1.5-1.5s1.5.66 1.5 1.5zm0 5.97c0 .84-.67 1.5-1.5 1.5s-1.5-.66-1.5-1.5c0-.82.67-1.5 1.5-1.5s1.5.68 1.5 1.5zm0 6c0 .82-.67 1.5-1.5 1.5s-1.5-.68-1.5-1.5c0-.84.67-1.5 1.5-1.5s1.5.66 1.5 1.5zm0 5.97c0 .83-.67 1.5-1.5 1.5s-1.5-.67-1.5-1.5.67-1.5 1.5-1.5 1.5.67 1.5 1.5zm0 5.98c0 .83-.67 1.5-1.5 1.5s-1.5-.67-1.5-1.5.67-1.5 1.5-1.5 1.5.67 1.5 1.5zm0 5.98c0 .83-.67 1.5-1.5 1.5s-1.5-.67-1.5-1.5.67-1.5 1.5-1.5 1.5.67 1.5 1.5zm0 5.98c0 .84-.67 1.5-1.5 1.5s-1.5-.66-1.5-1.5c0-.82.67-1.5 1.5-1.5s1.5.68 1.5 1.5zm0 6c0 .82-.67 1.5-1.5 1.5s-1.5-.68-1.5-1.5c0-.84.67-1.5 1.5-1.5s1.5.66 1.5 1.5zm0 5.97c0 .83-.67 1.5-1.5 1.5s-1.5-.67-1.5-1.5.67-1.5 1.5-1.5 1.5.67 1.5 1.5zm0 5.98c0 .83-.67 1.5-1.5 1.5s-1.5-.67-1.5-1.5.67-1.5 1.5-1.5 1.5.67 1.5 1.5zm0 5.98c0 .83-.67 1.5-1.5 1.5s-1.5-.67-1.5-1.5c0-.82.67-1.5 1.5-1.5s1.5.68 1.5 1.5zm0 5.98c0 .84-.67 1.5-1.5 1.5s-1.5-.66-1.5-1.5c0-.8.67-1.5 1.5-1.5s1.5.7 1.5 1.5zm0 6c0 .82-.67 1.5-1.5 1.5s-1.5-.68-1.5-1.5c0-.83.67-1.5 1.5-1.5s1.5.67 1.5 1.5zm0 5.98c0 .83-.67 1.5-1.5 1.5s-1.5-.67-1.5-1.5.67-1.5 1.5-1.5 1.5.67 1.5 1.5zm2.5 3.5c0 .82-.68 1.5-1.5 1.5-.83 0-1.5-.68-1.5-1.5 0-.84.67-1.5 1.5-1.5.82 0 1.5.66 1.5 1.5zm5.98 0c0 .82-.67 1.5-1.5 1.5-.82 0-1.5-.68-1.5-1.5 0-.84.68-1.5 1.5-1.5.83 0 1.5.66 1.5 1.5zm6 0c0 .82-.7 1.5-1.5 1.5-.84 0-1.5-.68-1.5-1.5 0-.84.66-1.5 1.5-1.5.8 0 1.5.66 1.5 1.5zm5.97 0c0 .82-.67 1.5-1.5 1.5s-1.5-.68-1.5-1.5c0-.84.67-1.5 1.5-1.5s1.5.66 1.5 1.5zm5.98 0c0 .82-.67 1.5-1.5 1.5s-1.5-.68-1.5-1.5c0-.84.67-1.5 1.5-1.5s1.5.66 1.5 1.5zm5.98 0c0 .82-.67 1.5-1.5 1.5s-1.5-.68-1.5-1.5c0-.84.67-1.5 1.5-1.5s1.5.66 1.5 1.5zm5.98 0c0 .82-.66 1.5-1.5 1.5-.82 0-1.5-.68-1.5-1.5 0-.84.68-1.5 1.5-1.5.84 0 1.5.66 1.5 1.5zm6 0c0 .82-.68 1.5-1.5 1.5-.84 0-1.5-.68-1.5-1.5 0-.84.66-1.5 1.5-1.5.82 0 1.5.66 1.5 1.5zm5.97 0c0 .82-.67 1.5-1.5 1.5s-1.5-.68-1.5-1.5c0-.84.67-1.5 1.5-1.5s1.5.66 1.5 1.5zm5.98 0c0 .82-.67 1.5-1.5 1.5s-1.5-.68-1.5-1.5c0-.84.67-1.5 1.5-1.5s1.5.66 1.5 1.5zm5.98 0c0 .82-.67 1.5-1.5 1.5s-1.5-.68-1.5-1.5c0-.84.67-1.5 1.5-1.5s1.5.66 1.5 1.5zm5.98 0c0 .82-.66 1.5-1.5 1.5-.82 0-1.5-.68-1.5-1.5 0-.84.68-1.5 1.5-1.5.84 0 1.5.66 1.5 1.5zm6 0c0 .82-.68 1.5-1.5 1.5-.83 0-1.5-.68-1.5-1.5 0-.84.67-1.5 1.5-1.5.82 0 1.5.66 1.5 1.5zm5.98 0c0 .82-.68 1.5-1.5 1.5-.83 0-1.5-.68-1.5-1.5 0-.84.67-1.5 1.5-1.5.82 0 1.5.66 1.5 1.5zm5.98 0c0 .82-.68 1.5-1.5 1.5-.83 0-1.5-.68-1.5-1.5 0-.84.67-1.5 1.5-1.5.82 0 1.5.66 1.5 1.5zm5.98 0c0 .82-.67 1.5-1.5 1.5s-1.5-.68-1.5-1.5c0-.84.67-1.5 1.5-1.5s1.5.66 1.5 1.5zm5.98 0c0 .82-.67 1.5-1.5 1.5s-1.5-.68-1.5-1.5c0-.84.67-1.5 1.5-1.5s1.5.66 1.5 1.5zm5.98 0c0 .82-.67 1.5-1.5 1.5s-1.5-.68-1.5-1.5c0-.84.67-1.5 1.5-1.5s1.5.66 1.5 1.5zm5.98 0c0 .82-.67 1.5-1.5 1.5s-1.5-.68-1.5-1.5c0-.84.67-1.5 1.5-1.5s1.5.66 1.5 1.5z" fill="#666"/><path d="M197.32 128.55l-.64 2.94-.68-.16v-3.07z" fill="#666"/><path d="M334.48 904.67l-14.27 4.63v-9.27z" fill="#fff"/><path d="M339.33 904.67l-20.62 6.7v-13.4zm-17.62 2.57l7.93-2.57-7.92-2.57z" fill="#666"/><path d="M28 1554.1c-4.42 0-8 3.6-8 8v24c0 4.43 3.58 8 8 8h160c4.42 0 8-3.57 8-8v-24c0-4.4-3.58-8-8-8z" stroke="#0b7cba" stroke-width="2" fill="#c9ebff"/><use xlink:href="#C" transform="matrix(1,0,0,1,28,1562.1092832494478) translate(30.679012345679013 17.77777777777778)"/><use xlink:href="#D" transform="matrix(1,0,0,1,28,1562.1092832494478) translate(80 17.77777777777778)"/><path d="M518 1574.1h123.77" stroke="#0b7cba" stroke-width="2" fill="none"/><path d="M518 1575.1h-1v-2h1zM656.77 1574.1l-14.27 4.64v-9.27z" fill="#0b7cba"/><path d="M660 1574.1l-18.5 6.02v-12.02zm-16.5 3.27l10.03-3.26-10.03-3.25z" fill="#0b7cba"/><path d="M196.5 456.97h46.83v1025.4h78.58" stroke="#328220" stroke-width="2" fill="none"/><path d="M196.5 457.97h-1v-2h1zM336.9 1482.36l-14.25 4.64v-9.27z" fill="#328220"/><path d="M340.15 1482.36l-18.5 6.02v-12.03zm-16.5 3.26l10.03-3.26-10.03-3.25z" fill="#328220"/><path d="M197 371.33h58.33v1025.42h65.93" stroke="#328220" stroke-width="2" fill="none"/><path d="M197 372.33h-1v-2h1zM336.26 1396.75l-14.26 4.63v-9.27z" fill="#328220"/><path d="M339.5 1396.75l-18.5 6v-12.02zM323 1400l10.03-3.25-10.03-3.26z" fill="#328220"/><path d="M347.18 270.1c-4.4 0-8 3.58-8 8v24c0 4.42 3.6 8 8 8h160c4.42 0 8-3.58 8-8v-24c0-4.42-3.58-8-8-8z" fill="#c9ebff" fill-opacity=".5"/><path d="M366.23 310.1h1.9m9.53 0h19.05m9.53 0h1.9m9.53 0h19.05m9.53 0h1.9m9.53 0h19.05m9.53 0h1.9m9.53 0h9.52l3.12-.63 2.54-1.7 1.72-2.56.62-3.1v-24l-.62-3.1-1.72-2.56-2.54-1.7-3.12-.64h-9.52m-9.52 0h-1.9m-9.53 0h-19.04m-9.52 0h-1.9m-9.53 0h-19.04m-9.52 0h-1.9m-9.53 0h-19.04m-9.52 0h-1.9m-9.53 0h-9.52l-3.1.63-2.55 1.7-1.72 2.56-.62 3.1v24l.63 3.1 1.73 2.56 2.54 1.7 3.1.64h9.54" stroke="#0b7cba" stroke-width="2" fill="none"/><use xlink:href="#E" transform="matrix(1,0,0,1,347.1848428086631,278.09999999999997) translate(55.339506172839506 17.77777777777778)"/><path d="M28 270.33c-4.42 0-8 3.6-8 8v24c0 4.42 3.58 8 8 8h160c4.42 0 8-3.58 8-8v-24c0-4.4-3.58-8-8-8z" stroke="#0b7cba" stroke-width="2" fill="#c9ebff"/><use xlink:href="#E" transform="matrix(1,0,0,1,28,278.3333333333333) translate(55.339506172839506 17.77777777777778)"/><path d="M197 290.33h70.6v-.23h50.73" fill="none"/><path d="M198.5 290.33c0 .83-.67 1.5-1.5 1.5s-1.5-.67-1.5-1.5.67-1.5 1.5-1.5 1.5.67 1.5 1.5zm6.08 0c0 .83-.67 1.5-1.5 1.5s-1.5-.67-1.5-1.5.67-1.5 1.5-1.5 1.5.67 1.5 1.5zm6.08 0c0 .83-.68 1.5-1.5 1.5-.83 0-1.5-.67-1.5-1.5s.67-1.5 1.5-1.5c.82 0 1.5.67 1.5 1.5zm6.07 0c0 .83-.67 1.5-1.5 1.5-.82 0-1.5-.67-1.5-1.5s.68-1.5 1.5-1.5c.83 0 1.5.67 1.5 1.5zm6.08 0c0 .83-.66 1.5-1.5 1.5-.82 0-1.5-.67-1.5-1.5s.68-1.5 1.5-1.5c.84 0 1.5.67 1.5 1.5zm6.1 0c0 .83-.68 1.5-1.5 1.5-.84 0-1.5-.67-1.5-1.5s.66-1.5 1.5-1.5c.82 0 1.5.67 1.5 1.5zm6.07 0c0 .83-.67 1.5-1.5 1.5s-1.5-.67-1.5-1.5.67-1.5 1.5-1.5 1.5.67 1.5 1.5zm6.08 0c0 .83-.67 1.5-1.5 1.5s-1.5-.67-1.5-1.5.67-1.5 1.5-1.5 1.5.67 1.5 1.5zm6.08 0c0 .83-.68 1.5-1.5 1.5-.83 0-1.5-.67-1.5-1.5s.67-1.5 1.5-1.5c.82 0 1.5.67 1.5 1.5zm6.07 0c0 .83-.67 1.5-1.5 1.5-.82 0-1.5-.67-1.5-1.5s.68-1.5 1.5-1.5c.83 0 1.5.67 1.5 1.5zm6.08 0c0 .83-.67 1.5-1.5 1.5s-1.5-.67-1.5-1.5.67-1.5 1.5-1.5 1.5.67 1.5 1.5zm6.08 0c0 .83-.67 1.5-1.5 1.5s-1.5-.67-1.5-1.5.67-1.5 1.5-1.5 1.5.67 1.5 1.5zm5.85-.23c0 .83-.67 1.5-1.5 1.5-.82 0-1.5-.67-1.5-1.5s.68-1.5 1.5-1.5c.83 0 1.5.67 1.5 1.5zm6.08 0c0 .83-.67 1.5-1.5 1.5s-1.5-.67-1.5-1.5.67-1.5 1.5-1.5 1.5.67 1.5 1.5zm6.08 0c0 .83-.67 1.5-1.5 1.5s-1.5-.67-1.5-1.5.67-1.5 1.5-1.5 1.5.67 1.5 1.5zm6.08 0c0 .83-.67 1.5-1.5 1.5s-1.5-.67-1.5-1.5.67-1.5 1.5-1.5 1.5.67 1.5 1.5zm6.08 0c0 .83-.67 1.5-1.5 1.5s-1.5-.67-1.5-1.5.67-1.5 1.5-1.5 1.5.67 1.5 1.5zm6.08 0c0 .83-.68 1.5-1.5 1.5-.83 0-1.5-.67-1.5-1.5s.67-1.5 1.5-1.5c.82 0 1.5.67 1.5 1.5zm6.07 0c0 .83-.67 1.5-1.5 1.5-.82 0-1.5-.67-1.5-1.5s.68-1.5 1.5-1.5c.83 0 1.5.67 1.5 1.5zm6.08 0c0 .83-.67 1.5-1.5 1.5s-1.5-.67-1.5-1.5.67-1.5 1.5-1.5 1.5.67 1.5 1.5zm6.08 0c0 .83-.67 1.5-1.5 1.5s-1.5-.67-1.5-1.5.67-1.5 1.5-1.5 1.5.67 1.5 1.5z" fill="#666"/><path d="M197 291.83h-1v-3h1z" fill="#666"/><path d="M333.33 290.1l-14.27 4.64v-9.28z" fill="#fff"/><path d="M338.18 290.1l-20.62 6.7v-13.4zm-17.62 2.57l7.92-2.57-7.92-2.57z" fill="#666"/><path d="M517 209.1h43.84v81.23h78.92" stroke="#328220" stroke-width="2" fill="none"/><path d="M517 210.1h-1v-2h1zM654.76 290.33l-14.26 4.64v-9.27z" fill="#328220"/><path d="M658 290.33l-18.5 6.02v-12.03zm-16.5 3.26l10.03-3.27-10.03-3.26z" fill="#328220"/><path d="M516.18 290.1h70.9v.2h52.68" stroke="#0b7cba" stroke-width="2" fill="none"/><path d="M516.18 291.1h-1v-2h1zM654.76 290.3l-14.26 4.64v-9.27z" fill="#0b7cba"/><path d="M658 290.3l-18.5 6.02V284.3zm-16.5 3.26l10.03-3.26-10.03-3.25z" fill="#0b7cba"/><path d="M349 646c-4.42 0-8 3.57-8 8v24c0 4.4 3.58 8 8 8h160c4.42 0 8-3.6 8-8v-24c0-4.43-3.58-8-8-8z" stroke="#328220" stroke-width="2" fill="#b5e5aa"/><use xlink:href="#F" transform="matrix(1,0,0,1,349,653.9865691489364) translate(5.339506172839521 17.77777777777778)"/><use xlink:href="#G" transform="matrix(1,0,0,1,349,653.9865691489364) translate(83.05555555555556 17.77777777777778)"/><path d="M868.17 585.8h12.5V782H428.33v4.18" stroke="#f08c21" stroke-width="2" fill="none"/><path d="M868.36 584.83l-.4 1.96-.84-.18v-.15l.04-.33v-.53l-.02-.34-.03-.33-.04-.33v-.03zM428.33 801.18l-4.63-14.27h9.27z" fill="#f08c21"/><path d="M428.33 804.4l-6-18.5h12.02zm-3.26-16.5l3.26 10.04 3.26-10.03z" fill="#f08c21"/><path d="M868.17 585.8h12.5v33.53H429v7.42" stroke="#f08c21" stroke-width="2" fill="none"/><path d="M868.36 584.83l-.4 1.96-.84-.18v-.15l.04-.33v-.53l-.02-.34-.03-.33-.04-.33v-.03zM429 641.75l-4.64-14.27h9.28z" fill="#f08c21"/><path d="M429 645l-6-18.52h12zm-3.26-16.52L429 638.5l3.26-10.02z" fill="#f08c21"/><path d="M517.33 904.67H630v-16.43h9.93" stroke="#0b7cba" stroke-width="2" fill="none"/><path d="M517.33 905.67h-1v-2h1zM654.93 888.24l-14.27 4.64v-9.28z" fill="#0b7cba"/><path d="M658.17 888.24l-18.5 6v-12zm-16.5 3.26l10.02-3.26-10.04-3.26z" fill="#0b7cba"/><path d="M517.33 825.4h12V1142h110.1" stroke="#328220" stroke-width="2" fill="none"/><path d="M517.58 824.44l-.5 1.94-.75-.2v-2.05zM654.43 1142l-14.27 4.64v-9.28z" fill="#328220"/><path d="M657.67 1142l-18.5 6v-12zm-16.5 3.26l10.02-3.26-10.04-3.26z" fill="#328220"/><path d="M518 666h76.67v476h44.76" stroke="#328220" stroke-width="2" fill="none"/><path d="M518 667h-1v-2h1zM654.43 1142l-14.27 4.64v-9.28z" fill="#328220"/><path d="M657.67 1142l-18.5 6v-12zm-16.5 3.26l10.02-3.26-10.04-3.26z" fill="#328220"/><path d="M517.33 825.4H630v62.84h9.93" stroke="#328220" stroke-width="2" fill="none"/><path d="M517.33 826.4h-1v-2h1zM654.93 888.24l-14.27 4.64v-9.28z" fill="#328220"/><path d="M658.17 888.24l-18.5 6v-12zm-16.5 3.26l10.02-3.26-10.04-3.26z" fill="#328220"/><path d="M866.67 1231c0 14.58-46.57 26.4-104 26.4-57.44 0-104-11.82-104-26.4 0-14.58 46.56-26.4 104-26.4 57.43 0 104 11.82 104 26.4z" stroke="#f08c21" stroke-width="2" fill="#ffdbb6"/><use xlink:href="#H" transform="matrix(1,0,0,1,658.6666666666666,1204.6) translate(83.04820987654321 31.02777777777778)"/><path d="M867.67 1231h13.83v39H427.83v4.5" stroke="#f08c21" stroke-width="2" fill="none"/><path d="M867.75 1230l-.17 2-.98-.1.03-.24.03-.33v-.55l-.02-.33-.03-.33-.02-.22zM427.83 1289.5l-4.63-14.26h9.27z" fill="#f08c21"/><path d="M427.83 1292.75l-6-18.5h12.02zm-3.26-16.5l3.26 10.02 3.26-10.03z" fill="#f08c21"/><path d="M518 666h90v565h31.43" stroke="#328220" stroke-width="2" fill="none"/><path d="M518 667h-1v-2h1zM654.43 1231l-14.27 4.64v-9.28z" fill="#328220"/><path d="M657.67 1231l-18.5 6v-12zm-16.5 3.26l10.02-3.26-10.04-3.26z" fill="#328220"/><path d="M517.33 825.4H544V1231h95.43" stroke="#328220" stroke-width="2" fill="none"/><path d="M517.33 826.4h-1v-2h1zM654.43 1231l-14.27 4.64v-9.28z" fill="#328220"/><path d="M657.67 1231l-18.5 6v-12zm-16.5 3.26l10.02-3.26-10.04-3.26z" fill="#328220"/><path d="M869 1574.38c0 14.58-46.56 26.4-104 26.4s-104-11.82-104-26.4c0-14.58 46.56-26.4 104-26.4s104 11.82 104 26.4z" stroke="#f08c21" stroke-width="2" fill="#ffdbb6"/><use xlink:href="#I" transform="matrix(1,0,0,1,661,1547.9830673758875) translate(41.13462962962965 31.02777777777778)"/><use xlink:href="#J" transform="matrix(1,0,0,1,661,1547.9830673758875) translate(112.61611111111111 31.02777777777778)"/><path d="M517.33 987.67h111.34v586.7h13.1" stroke="#328220" stroke-width="2" fill="none"/><path d="M517.33 988.67h-1v-2h1zM656.76 1574.38l-14.26 4.64v-9.27z" fill="#328220"/><path d="M660 1574.38l-18.5 6v-12zm-16.5 3.26l10.03-3.26-10.03-3.26z" fill="#328220"/><path d="M348.5 1651.82c-4.42 0-8 3.58-8 8v24c0 4.42 3.58 8 8 8h160c4.42 0 8-3.58 8-8v-24c0-4.42-3.58-8-8-8z" stroke="#328220" stroke-width="2" fill="#b5e5aa"/><use xlink:href="#K" transform="matrix(1,0,0,1,348.5,1659.8217167600865) translate(25.524691358024697 17.77777777777778)"/><use xlink:href="#L" transform="matrix(1,0,0,1,348.5,1659.8217167600865) translate(72.80864197530865 17.77777777777778)"/><path d="M870 1574.38h13.33v50.3H428.5v7.9" stroke="#f08c21" stroke-width="2" fill="none"/><path d="M870.12 1573.4l-.24 1.98-.94-.12.03-.22.02-.33v-.54l-.02-.33-.04-.33-.04-.26zM428.5 1647.6l-4.64-14.28h9.28z" fill="#f08c21"/><path d="M428.5 1650.82l-6-18.5h12zm-3.26-16.5l3.26 10.03 3.26-10.03z" fill="#f08c21"/><path d="M516.83 1313.75h62.5v260.63h62.43" stroke="#328220" stroke-width="2" fill="none"/><path d="M516.83 1314.75h-1v-2h1zM656.76 1574.38l-14.26 4.64v-9.27z" fill="#328220"/><path d="M660 1574.38l-18.5 6v-12zm-16.5 3.26l10.03-3.26-10.03-3.26z" fill="#328220"/><path d="M516.83 1230.75h14.5v343.63h110.43" stroke="#328220" stroke-width="2" fill="none"/><path d="M516.87 1229.75l-.07 2-.97-.04v-2zM656.76 1574.38l-14.26 4.64v-9.27z" fill="#328220"/><path d="M660 1574.38l-18.5 6v-12zm-16.5 3.26l10.03-3.26-10.03-3.26z" fill="#328220"/><path d="M348.33 726.16c-4.4 0-8 3.58-8 8v24c0 4.42 3.6 8 8 8h160c4.42 0 8-3.58 8-8v-24c0-4.42-3.58-8-8-8z" stroke="#328220" stroke-width="2" fill="#b5e5aa"/><use xlink:href="#F" transform="matrix(1,0,0,1,348.33333333333337,734.1598699763596) translate(10.925925925925938 17.77777777777778)"/><use xlink:href="#M" transform="matrix(1,0,0,1,348.33333333333337,734.1598699763596) translate(88.64197530864197 17.77777777777778)"/><path d="M517.33 746.16H560V1142h79.43" stroke="#328220" stroke-width="2" fill="none"/><path d="M517.33 747.16h-1v-2h1zM654.43 1142l-14.27 4.64v-9.28z" fill="#328220"/><path d="M657.67 1142l-18.5 6v-12zm-16.5 3.26l10.02-3.26-10.04-3.26z" fill="#328220"/><path d="M517.33 746.16h60V1231h62.1" stroke="#328220" stroke-width="2" fill="none"/><path d="M517.33 747.16h-1v-2h1zM654.43 1231l-14.27 4.64v-9.28z" fill="#328220"/><path d="M657.67 1231l-18.5 6v-12zm-16.5 3.26l10.02-3.26-10.04-3.26z" fill="#328220"/><path d="M868.17 585.8h12.52V702H428.32v4.92" stroke="#f08c21" stroke-width="2" fill="none"/><path d="M868.36 584.83l-.4 1.96-.84-.18v-.15l.04-.33v-.53l-.02-.34-.03-.33-.04-.33v-.03zM428.33 721.92l-4.63-14.26h9.27z" fill="#f08c21"/><path d="M428.33 725.16l-6-18.5h12.02zm-3.26-16.5l3.26 10.03 3.26-10.04z" fill="#f08c21"/><path d="M869 1674.38c0 14.58-46.56 26.4-104 26.4s-104-11.82-104-26.4c0-14.58 46.56-26.4 104-26.4s104 11.82 104 26.4z" stroke="#f08c21" stroke-width="2" fill="#ffdbb6"/><use xlink:href="#N" transform="matrix(1,0,0,1,661,1647.9830673758875) translate(52.83216049382717 31.02777777777778)"/><use xlink:href="#O" transform="matrix(1,0,0,1,661,1647.9830673758875) translate(102.15314814814815 31.02777777777778)"/><path d="M349 1749.26c-4.42 0-8 3.58-8 8v24c0 4.42 3.58 8 8 8h160c4.42 0 8-3.58 8-8v-24c0-4.42-3.58-8-8-8z" stroke="#328220" stroke-width="2" fill="#b5e5aa"/><use xlink:href="#P" transform="matrix(1,0,0,1,349,1757.2603661442854) translate(28.827160493827158 17.77777777777778)"/><use xlink:href="#Q" transform="matrix(1,0,0,1,349,1757.2603661442854) translate(78.14814814814815 17.77777777777778)"/><path d="M870 1674.38h13.83V1722H429v8.02" stroke="#f08c21" stroke-width="2" fill="none"/><path d="M870.08 1673.4l-.16 1.98-.98-.08.03-.26.02-.33v-.54l-.02-.33-.04-.33-.03-.2zM429 1745.02l-4.64-14.26h9.28z" fill="#f08c21"/><path d="M429 1748.26l-6-18.5h12zm-3.26-16.5l3.26 10.03 3.26-10.04z" fill="#f08c21"/><path d="M517.5 1674.38h124.26" stroke="#328220" stroke-width="2" fill="none"/><path d="M517.5 1675.38h-1v-2h1zM656.76 1674.38l-14.26 4.64v-9.27z" fill="#328220"/><path d="M660 1674.38l-18.5 6v-12zm-16.5 3.26l10.03-3.26-10.03-3.26z" fill="#328220"/><path d="M349 1554.38c-4.42 0-8 3.58-8 8v24c0 4.42 3.58 8 8 8h160c4.42 0 8-3.58 8-8v-24c0-4.42-3.58-8-8-8z" fill="#c9ebff" fill-opacity=".5"/><path d="M368.05 1594.38h1.9m9.53 0h19.04m9.53 0h1.9m9.53 0h19.04m9.53 0h1.9m9.53 0h19.04m9.53 0h1.9m9.53 0H509l3.1-.63 2.56-1.7 1.7-2.55.64-3.12v-24l-.63-3.1-1.7-2.55-2.56-1.72-3.1-.62h-9.52m-9.53 0h-1.9m-9.53 0h-19.04m-9.53 0h-1.9m-9.53 0h-19.04m-9.53 0h-1.9m-9.53 0h-19.04m-9.53 0h-1.9m-9.53 0H349l-3.1.63-2.56 1.73-1.7 2.54-.64 3.1v24l.63 3.13 1.7 2.54 2.56 1.7 3.1.64h9.52" stroke="#0b7cba" stroke-width="2" fill="none"/><use xlink:href="#P" transform="matrix(1,0,0,1,349,1562.3830673758875) translate(30.679012345679013 17.77777777777778)"/><use xlink:href="#R" transform="matrix(1,0,0,1,349,1562.3830673758875) translate(80 17.77777777777778)"/><path d="M197 1575.26h123.15" fill="none"/><path d="M198.5 1575.26c0 .82-.67 1.5-1.5 1.5s-1.5-.68-1.5-1.5c0-.83.67-1.5 1.5-1.5s1.5.67 1.5 1.5zm5.86 0c0 .82-.67 1.5-1.5 1.5-.82 0-1.5-.68-1.5-1.5 0-.83.68-1.5 1.5-1.5.83 0 1.5.67 1.5 1.5zm5.87 0c0 .82-.67 1.5-1.5 1.5s-1.5-.68-1.5-1.5c0-.83.67-1.5 1.5-1.5s1.5.67 1.5 1.5zm5.86 0c0 .82-.68 1.5-1.5 1.5-.84 0-1.5-.68-1.5-1.5 0-.83.66-1.5 1.5-1.5.82 0 1.5.67 1.5 1.5zm5.86 0c0 .82-.68 1.5-1.5 1.5-.83 0-1.5-.68-1.5-1.5 0-.83.67-1.5 1.5-1.5.82 0 1.5.67 1.5 1.5zm5.86 0c0 .82-.67 1.5-1.5 1.5s-1.5-.68-1.5-1.5c0-.83.67-1.5 1.5-1.5s1.5.67 1.5 1.5zm5.86 0c0 .82-.67 1.5-1.5 1.5-.82 0-1.5-.68-1.5-1.5 0-.83.68-1.5 1.5-1.5.83 0 1.5.67 1.5 1.5zm5.87 0c0 .82-.67 1.5-1.5 1.5s-1.5-.68-1.5-1.5c0-.83.67-1.5 1.5-1.5s1.5.67 1.5 1.5zm5.86 0c0 .82-.66 1.5-1.5 1.5-.82 0-1.5-.68-1.5-1.5 0-.83.68-1.5 1.5-1.5.84 0 1.5.67 1.5 1.5zm5.88 0c0 .82-.67 1.5-1.5 1.5s-1.5-.68-1.5-1.5c0-.83.67-1.5 1.5-1.5s1.5.67 1.5 1.5zm5.86 0c0 .82-.67 1.5-1.5 1.5s-1.5-.68-1.5-1.5c0-.83.67-1.5 1.5-1.5s1.5.67 1.5 1.5zm5.87 0c0 .82-.67 1.5-1.5 1.5-.82 0-1.5-.68-1.5-1.5 0-.83.68-1.5 1.5-1.5.83 0 1.5.67 1.5 1.5zm5.87 0c0 .82-.67 1.5-1.5 1.5s-1.5-.68-1.5-1.5c0-.83.67-1.5 1.5-1.5s1.5.67 1.5 1.5zm5.86 0c0 .82-.67 1.5-1.5 1.5s-1.5-.68-1.5-1.5c0-.83.67-1.5 1.5-1.5s1.5.67 1.5 1.5zm5.87 0c0 .82-.67 1.5-1.5 1.5s-1.5-.68-1.5-1.5c0-.83.67-1.5 1.5-1.5s1.5.67 1.5 1.5zm5.86 0c0 .82-.67 1.5-1.5 1.5s-1.5-.68-1.5-1.5c0-.83.67-1.5 1.5-1.5s1.5.67 1.5 1.5zm5.87 0c0 .82-.68 1.5-1.5 1.5-.83 0-1.5-.68-1.5-1.5 0-.83.67-1.5 1.5-1.5.82 0 1.5.67 1.5 1.5zm5.86 0c0 .82-.68 1.5-1.5 1.5-.84 0-1.5-.68-1.5-1.5 0-.83.66-1.5 1.5-1.5.82 0 1.5.67 1.5 1.5zm5.85 0c0 .82-.67 1.5-1.5 1.5-.82 0-1.5-.68-1.5-1.5 0-.83.68-1.5 1.5-1.5.83 0 1.5.67 1.5 1.5zm5.87 0c0 .82-.67 1.5-1.5 1.5s-1.5-.68-1.5-1.5c0-.83.67-1.5 1.5-1.5s1.5.67 1.5 1.5zm5.86 0c0 .82-.67 1.5-1.5 1.5s-1.5-.68-1.5-1.5c0-.83.67-1.5 1.5-1.5s1.5.67 1.5 1.5zm5.87 0c0 .82-.68 1.5-1.5 1.5-.83 0-1.5-.68-1.5-1.5 0-.83.67-1.5 1.5-1.5.82 0 1.5.67 1.5 1.5z" fill="#666"/><path d="M197 1576.76h-1v-3h1z" fill="#666"/><path d="M335.15 1575.26l-14.27 4.63v-9.28z" fill="#fff"/><path d="M340 1575.26l-20.62 6.7v-13.4zm-17.62 2.57l7.9-2.57-7.9-2.57z" fill="#666"/><path d="M348.5 1376.75c-4.42 0-8 3.58-8 8v24c0 4.4 3.58 8 8 8h160c4.42 0 8-3.6 8-8v-24c0-4.42-3.58-8-8-8z" fill="#b5e5aa" fill-opacity=".5"/><path d="M367.55 1416.75h1.9m9.53 0h19.04m9.53 0h1.9m9.53 0h19.04m9.53 0h1.9m9.53 0h19.04m9.53 0h1.9m9.53 0h9.52l3.1-.63 2.56-1.72 1.7-2.54.64-3.1v-24l-.63-3.13-1.7-2.54-2.56-1.72-3.1-.63h-9.52m-9.53 0h-1.9m-9.53 0h-19.04m-9.53 0h-1.9m-9.53 0h-19.04m-9.53 0h-1.9m-9.53 0h-19.04m-9.53 0h-1.9m-9.53 0h-9.52l-3.1.63-2.56 1.7-1.7 2.55-.64 3.12v24l.63 3.1 1.7 2.55 2.56 1.72 3.1.63h9.52" stroke="#328220" stroke-width="2" fill="none"/><g><use xlink:href="#S" transform="matrix(1,0,0,1,348.5,1384.7466016548465) translate(5.432098765432102 17.77777777777778)"/><use xlink:href="#T" transform="matrix(1,0,0,1,348.5,1384.7466016548465) translate(60.92592592592593 17.77777777777778)"/></g><path d="M349.15 1462.36c-4.42 0-8 3.6-8 8v24c0 4.42 3.58 8 8 8h160c4.42 0 8-3.58 8-8v-24c0-4.4-3.58-8-8-8z" fill="#b5e5aa" fill-opacity=".5"/><path d="M368.2 1502.36h1.9m9.52 0h19.05m9.53 0h1.9m9.52 0h19.05m9.53 0h1.9m9.52 0h19.05m9.53 0h1.9m9.52 0h9.53l3.1-.62 2.56-1.72 1.72-2.54.63-3.12v-24l-.63-3.1-1.7-2.55-2.56-1.7-3.1-.64h-9.54m-9.52 0h-1.9m-9.53 0h-19.05m-9.52 0h-1.9m-9.53 0h-19.05m-9.52 0h-1.9m-9.53 0h-19.05m-9.52 0h-1.9m-9.53 0h-9.52l-3.12.63-2.54 1.7-1.72 2.55-.63 3.1v24l.63 3.13 1.7 2.54 2.55 1.72 3.12.62h9.52" stroke="#328220" stroke-width="2" fill="none"/><g><use xlink:href="#S" transform="matrix(1,0,0,1,349.14849052467025,1470.364834515367) translate(28.24074074074074 17.77777777777778)"/><use xlink:href="#U" transform="matrix(1,0,0,1,349.14849052467025,1470.364834515367) translate(83.73456790123457 17.77777777777778)"/></g><path d="M347.83 1042c-4.4 0-8 3.58-8 8v24c0 4.42 3.6 8 8 8h160c4.42 0 8-3.58 8-8v-24c0-4.42-3.58-8-8-8z" stroke="#328220" stroke-width="2" fill="#b5e5aa"/><g><use xlink:href="#V" transform="matrix(1,0,0,1,347.83333333333337,1050) translate(24.537037037037038 17.77777777777778)"/><use xlink:href="#Q" transform="matrix(1,0,0,1,347.83333333333337,1050) translate(82.43827160493828 17.77777777777778)"/></g><path d="M868.67 819h20v203H427.83v.76" stroke="#f08c21" stroke-width="2" fill="none"/><path d="M868.67 820h-1.08l.03-.33.03-.33v-.53l-.02-.34-.03-.33V818h1.07zM427.83 1037.76l-4.63-14.26h9.27z" fill="#f08c21"/><path d="M427.83 1041l-6-18.5h12.02zm-3.26-16.5l3.26 10.03 3.26-10.03z" fill="#f08c21"/><path d="M516.83 1062H618v612.38h23.76" stroke="#328220" stroke-width="2" fill="none"/><path d="M516.83 1063h-1v-2h1zM656.76 1674.38l-14.26 4.64v-9.27z" fill="#328220"/><path d="M660 1674.38l-18.5 6v-12zm-16.5 3.26l10.03-3.26-10.03-3.26z" fill="#328220"/><path d="M517.5 1396.75h45.83v177.63h78.43" stroke="#328220" stroke-width="2" fill="none"/><path d="M517.5 1397.75h-1v-2h1zM656.76 1574.38l-14.26 4.64v-9.27z" fill="#328220"/><path d="M660 1574.38l-18.5 6v-12zm-16.5 3.26l10.03-3.26-10.03-3.26z" fill="#328220"/><path d="M518.15 1482.36h29.18v92.02h94.43" stroke="#328220" stroke-width="2" fill="none"/><path d="M518.15 1483.36h-1v-2h1zM656.76 1574.38l-14.26 4.64v-9.27z" fill="#328220"/><path d="M660 1574.38l-18.5 6v-12zm-16.5 3.26l10.03-3.26-10.03-3.26z" fill="#328220"/><defs><path d="M233-177c-1 41-23 64-60 70L243 0h-38l-65-103H63V0H30v-248c88 3 205-21 203 71zM63-129c60-2 137 13 137-47 0-61-80-42-137-45v92" id="W"/><path d="M100-194c63 0 86 42 84 106H49c0 40 14 67 53 68 26 1 43-12 49-29l28 8c-11 28-37 45-77 45C44 4 14-33 15-96c1-61 26-98 85-98zm52 81c6-60-76-77-97-28-3 7-6 17-6 28h103" id="X"/><path d="M177-190C167-65 218 103 67 71c-23-6-38-20-44-43l32-5c15 47 100 32 89-28v-30C133-14 115 1 83 1 29 1 15-40 15-95c0-56 16-97 71-98 29-1 48 16 59 35 1-10 0-23 2-32h30zM94-22c36 0 50-32 50-73 0-42-14-75-50-75-39 0-46 34-46 75s6 73 46 73" id="Y"/><path d="M33 0v-38h34V0H33" id="Z"/><g id="a"><use transform="matrix(0.06172839506172839,0,0,0.06172839506172839,0,0)" xlink:href="#W"/><use transform="matrix(0.06172839506172839,0,0,0.06172839506172839,15.987654320987653,0)" xlink:href="#X"/><use transform="matrix(0.06172839506172839,0,0,0.06172839506172839,28.333333333333332,0)" xlink:href="#Y"/><use transform="matrix(0.06172839506172839,0,0,0.06172839506172839,40.67901234567901,0)" xlink:href="#Z"/></g><path d="M114-163C36-179 61-72 57 0H25l-1-190h30c1 12-1 29 2 39 6-27 23-49 58-41v29" id="aa"/><path d="M101-234c-31-9-42 10-38 44h38v23H63V0H32v-167H5v-23h27c-7-52 17-82 69-68v24" id="ab"/><path d="M117-194c89-4 53 116 60 194h-32v-121c0-31-8-49-39-48C34-167 62-67 57 0H25l-1-190h30c1 10-1 24 2 32 11-22 29-35 61-36" id="ac"/><path d="M96-169c-40 0-48 33-48 73s9 75 48 75c24 0 41-14 43-38l32 2c-6 37-31 61-74 61-59 0-76-41-82-99-10-93 101-131 147-64 4 7 5 14 7 22l-32 3c-4-21-16-35-41-35" id="ad"/><g id="b"><use transform="matrix(0.06172839506172839,0,0,0.06172839506172839,0,0)" xlink:href="#aa"/><use transform="matrix(0.06172839506172839,0,0,0.06172839506172839,7.345679012345679,0)" xlink:href="#X"/><use transform="matrix(0.06172839506172839,0,0,0.06172839506172839,19.691358024691358,0)" xlink:href="#ab"/><use transform="matrix(0.06172839506172839,0,0,0.06172839506172839,25.864197530864196,0)" xlink:href="#X"/><use transform="matrix(0.06172839506172839,0,0,0.06172839506172839,38.20987654320987,0)" xlink:href="#aa"/><use transform="matrix(0.06172839506172839,0,0,0.06172839506172839,45.55555555555555,0)" xlink:href="#X"/><use transform="matrix(0.06172839506172839,0,0,0.06172839506172839,57.90123456790123,0)" xlink:href="#ac"/><use transform="matrix(0.06172839506172839,0,0,0.06172839506172839,70.24691358024691,0)" xlink:href="#ad"/><use transform="matrix(0.06172839506172839,0,0,0.06172839506172839,81.35802469135803,0)" xlink:href="#X"/></g><path d="M59-47c-2 24 18 29 38 22v24C64 9 27 4 27-40v-127H5v-23h24l9-43h21v43h35v23H59v120" id="ae"/><path d="M141-36C126-15 110 5 73 4 37 3 15-17 15-53c-1-64 63-63 125-63 3-35-9-54-41-54-24 1-41 7-42 31l-33-3c5-37 33-52 76-52 45 0 72 20 72 64v82c-1 20 7 32 28 27v20c-31 9-61-2-59-35zM48-53c0 20 12 33 32 33 41-3 63-29 60-74-43 2-92-5-92 41" id="af"/><path d="M135-143c-3-34-86-38-87 0 15 53 115 12 119 90S17 21 10-45l28-5c4 36 97 45 98 0-10-56-113-15-118-90-4-57 82-63 122-42 12 7 21 19 24 35" id="ag"/><path d="M100-194c62-1 85 37 85 99 1 63-27 99-86 99S16-35 15-95c0-66 28-99 85-99zM99-20c44 1 53-31 53-75 0-43-8-75-51-75s-53 32-53 75 10 74 51 75" id="ah"/><path d="M210-169c-67 3-38 105-44 169h-31v-121c0-29-5-50-35-48C34-165 62-65 56 0H25l-1-190h30c1 10-1 24 2 32 10-44 99-50 107 0 11-21 27-35 58-36 85-2 47 119 55 194h-31v-121c0-29-5-49-35-48" id="ai"/><g id="c"><use transform="matrix(0.06172839506172839,0,0,0.06172839506172839,0,0)" xlink:href="#ae"/><use transform="matrix(0.06172839506172839,0,0,0.06172839506172839,6.172839506172839,0)" xlink:href="#aa"/><use transform="matrix(0.06172839506172839,0,0,0.06172839506172839,13.518518518518519,0)" xlink:href="#af"/><use transform="matrix(0.06172839506172839,0,0,0.06172839506172839,25.864197530864196,0)" xlink:href="#ac"/><use transform="matrix(0.06172839506172839,0,0,0.06172839506172839,38.20987654320987,0)" xlink:href="#ag"/><use transform="matrix(0.06172839506172839,0,0,0.06172839506172839,49.32098765432099,0)" xlink:href="#ab"/><use transform="matrix(0.06172839506172839,0,0,0.06172839506172839,55.49382716049383,0)" xlink:href="#ah"/><use transform="matrix(0.06172839506172839,0,0,0.06172839506172839,67.8395061728395,0)" xlink:href="#aa"/><use transform="matrix(0.06172839506172839,0,0,0.06172839506172839,75.18518518518519,0)" xlink:href="#ai"/></g><path d="M30 0v-248h33v221h125V0H30" id="aj"/><path d="M24-231v-30h32v30H24zM24 0v-190h32V0H24" id="ak"/><g id="d"><use transform="matrix(0.06172839506172839,0,0,0.06172839506172839,0,0)" xlink:href="#aj"/><use transform="matrix(0.06172839506172839,0,0,0.06172839506172839,12.345679012345679,0)" xlink:href="#ak"/><use transform="matrix(0.06172839506172839,0,0,0.06172839506172839,17.22222222222222,0)" xlink:href="#ac"/><use transform="matrix(0.06172839506172839,0,0,0.06172839506172839,29.5679012345679,0)" xlink:href="#X"/><use transform="matrix(0.06172839506172839,0,0,0.06172839506172839,41.913580246913575,0)" xlink:href="#af"/><use transform="matrix(0.06172839506172839,0,0,0.06172839506172839,54.25925925925925,0)" xlink:href="#aa"/></g><g id="e"><use transform="matrix(0.06172839506172839,0,0,0.06172839506172839,0,0)" xlink:href="#aa"/><use transform="matrix(0.06172839506172839,0,0,0.06172839506172839,7.345679012345679,0)" xlink:href="#X"/><use transform="matrix(0.06172839506172839,0,0,0.06172839506172839,19.691358024691358,0)" xlink:href="#Y"/><use transform="matrix(0.06172839506172839,0,0,0.06172839506172839,32.03703703703704,0)" xlink:href="#Z"/></g><path d="M185-189c-5-48-123-54-124 2 14 75 158 14 163 119 3 78-121 87-175 55-17-10-28-26-33-46l33-7c5 56 141 63 141-1 0-78-155-14-162-118-5-82 145-84 179-34 5 7 8 16 11 25" id="al"/><path d="M266 0h-40l-56-210L115 0H75L2-248h35L96-30l15-64 43-154h32l59 218 59-218h35" id="am"/><path d="M33 0v-248h34V0H33" id="an"/><g id="f"><use transform="matrix(0.06172839506172839,0,0,0.06172839506172839,0,0)" xlink:href="#al"/><use transform="matrix(0.06172839506172839,0,0,0.06172839506172839,14.814814814814813,0)" xlink:href="#am"/><use transform="matrix(0.06172839506172839,0,0,0.06172839506172839,35.74074074074073,0)" xlink:href="#an"/></g><path d="M240 0l2-218c-23 76-54 145-80 218h-23L58-218 59 0H30v-248h44l77 211c21-75 51-140 76-211h43V0h-30" id="ao"/><path d="M84 4C-5 8 30-112 23-190h32v120c0 31 7 50 39 49 72-2 45-101 50-169h31l1 190h-30c-1-10 1-25-2-33-11 22-28 36-60 37" id="ap"/><path d="M85-194c31 0 48 13 60 33l-1-100h32l1 261h-30c-2-10 0-23-3-31C134-8 116 4 85 4 32 4 16-35 15-94c0-66 23-100 70-100zm9 24c-40 0-46 34-46 75 0 40 6 74 45 74 42 0 51-32 51-76 0-42-9-74-50-73" id="aq"/><g id="g"><use transform="matrix(0.06172839506172839,0,0,0.06172839506172839,0,0)" xlink:href="#ao"/><use transform="matrix(0.06172839506172839,0,0,0.06172839506172839,18.456790123456788,0)" xlink:href="#af"/><use transform="matrix(0.06172839506172839,0,0,0.06172839506172839,30.80246913580247,0)" xlink:href="#Y"/><use transform="matrix(0.06172839506172839,0,0,0.06172839506172839,43.148148148148145,0)" xlink:href="#ac"/><use transform="matrix(0.06172839506172839,0,0,0.06172839506172839,55.49382716049382,0)" xlink:href="#ak"/><use transform="matrix(0.06172839506172839,0,0,0.06172839506172839,60.37037037037037,0)" xlink:href="#ae"/><use transform="matrix(0.06172839506172839,0,0,0.06172839506172839,66.5432098765432,0)" xlink:href="#ap"/><use transform="matrix(0.06172839506172839,0,0,0.06172839506172839,78.88888888888889,0)" xlink:href="#aq"/><use transform="matrix(0.06172839506172839,0,0,0.06172839506172839,91.23456790123457,0)" xlink:href="#X"/></g><path d="M206 0h-36l-40-164L89 0H53L-1-190h32L70-26l43-164h34l41 164 42-164h31" id="ar"/><g id="h"><use transform="matrix(0.06172839506172839,0,0,0.06172839506172839,0,0)" xlink:href="#aa"/><use transform="matrix(0.06172839506172839,0,0,0.06172839506172839,7.345679012345679,0)" xlink:href="#af"/><use transform="matrix(0.06172839506172839,0,0,0.06172839506172839,19.691358024691358,0)" xlink:href="#ar"/></g><path d="M106-169C34-169 62-67 57 0H25v-261h32l-1 103c12-21 28-36 61-36 89 0 53 116 60 194h-32v-121c2-32-8-49-39-48" id="as"/><path d="M24 0v-261h32V0H24" id="at"/><g id="i"><use transform="matrix(0.06172839506172839,0,0,0.06172839506172839,0,0)" xlink:href="#ad"/><use transform="matrix(0.06172839506172839,0,0,0.06172839506172839,11.11111111111111,0)" xlink:href="#as"/><use transform="matrix(0.06172839506172839,0,0,0.06172839506172839,23.45679012345679,0)" xlink:href="#af"/><use transform="matrix(0.06172839506172839,0,0,0.06172839506172839,35.80246913580247,0)" xlink:href="#ac"/><use transform="matrix(0.06172839506172839,0,0,0.06172839506172839,48.148148148148145,0)" xlink:href="#ac"/><use transform="matrix(0.06172839506172839,0,0,0.06172839506172839,60.49382716049382,0)" xlink:href="#X"/><use transform="matrix(0.06172839506172839,0,0,0.06172839506172839,72.8395061728395,0)" xlink:href="#at"/><use transform="matrix(0.06172839506172839,0,0,0.06172839506172839,77.71604938271605,0)" xlink:href="#ag"/></g><path d="M160-131c35 5 61 23 61 61C221 17 115-2 30 0v-248c76 3 177-17 177 60 0 33-19 50-47 57zm-97-11c50-1 110 9 110-42 0-47-63-36-110-37v79zm0 115c55-2 124 14 124-45 0-56-70-42-124-44v89" id="au"/><g id="j"><use transform="matrix(0.06172839506172839,0,0,0.06172839506172839,0,0)" xlink:href="#au"/><use transform="matrix(0.06172839506172839,0,0,0.06172839506172839,14.814814814814813,0)" xlink:href="#aa"/><use transform="matrix(0.06172839506172839,0,0,0.06172839506172839,22.160493827160494,0)" xlink:href="#af"/><use transform="matrix(0.06172839506172839,0,0,0.06172839506172839,34.50617283950617,0)" xlink:href="#ak"/><use transform="matrix(0.06172839506172839,0,0,0.06172839506172839,39.382716049382715,0)" xlink:href="#ac"/></g><path d="M205 0l-28-72H64L36 0H1l101-248h38L239 0h-34zm-38-99l-47-123c-12 45-31 82-46 123h93" id="av"/><g id="k"><use transform="matrix(0.06172839506172839,0,0,0.06172839506172839,0,0)" xlink:href="#av"/><use transform="matrix(0.06172839506172839,0,0,0.06172839506172839,14.814814814814813,0)" xlink:href="#ae"/><use transform="matrix(0.06172839506172839,0,0,0.06172839506172839,20.98765432098765,0)" xlink:href="#at"/><use transform="matrix(0.06172839506172839,0,0,0.06172839506172839,25.864197530864196,0)" xlink:href="#af"/><use transform="matrix(0.06172839506172839,0,0,0.06172839506172839,38.20987654320987,0)" xlink:href="#ag"/></g><path d="M115-194c55 1 70 41 70 98S169 2 115 4C84 4 66-9 55-30l1 105H24l-1-265h31l2 30c10-21 28-34 59-34zm-8 174c40 0 45-34 45-75s-6-73-45-74c-42 0-51 32-51 76 0 43 10 73 51 73" id="aw"/><g id="l"><use transform="matrix(0.06172839506172839,0,0,0.06172839506172839,0,0)" xlink:href="#ar"/><use transform="matrix(0.06172839506172839,0,0,0.06172839506172839,15.987654320987653,0)" xlink:href="#af"/><use transform="matrix(0.06172839506172839,0,0,0.06172839506172839,28.333333333333332,0)" xlink:href="#aa"/><use transform="matrix(0.06172839506172839,0,0,0.06172839506172839,35.67901234567901,0)" xlink:href="#aw"/></g><path d="M140-251c81 0 123 46 123 126C263-53 228-8 163 1c7 30 30 48 69 40v23c-55 16-95-15-103-61C56-3 17-48 17-125c0-80 42-126 123-126zm0 227c63 0 89-41 89-101s-29-99-89-99c-61 0-89 39-89 99S79-25 140-24" id="ax"/><g id="m"><use transform="matrix(0.06172839506172839,0,0,0.06172839506172839,0,0)" xlink:href="#ax"/><use transform="matrix(0.06172839506172839,0,0,0.06172839506172839,17.28395061728395,0)" xlink:href="#al"/><use transform="matrix(0.06172839506172839,0,0,0.06172839506172839,32.09876543209876,0)" xlink:href="#ao"/></g><path d="M30-248c87 1 191-15 191 75 0 78-77 80-158 76V0H30v-248zm33 125c57 0 124 11 124-50 0-59-68-47-124-48v98" id="ay"/><g id="n"><use transform="matrix(0.06172839506172839,0,0,0.06172839506172839,0,0)" xlink:href="#ay"/><use transform="matrix(0.06172839506172839,0,0,0.06172839506172839,14.814814814814813,0)" xlink:href="#aa"/><use transform="matrix(0.06172839506172839,0,0,0.06172839506172839,22.160493827160494,0)" xlink:href="#X"/><use transform="matrix(0.06172839506172839,0,0,0.06172839506172839,34.50617283950617,0)" xlink:href="#aw"/><use transform="matrix(0.06172839506172839,0,0,0.06172839506172839,46.85185185185185,0)" xlink:href="#af"/><use transform="matrix(0.06172839506172839,0,0,0.06172839506172839,59.197530864197525,0)" xlink:href="#aa"/><use transform="matrix(0.06172839506172839,0,0,0.06172839506172839,66.5432098765432,0)" xlink:href="#X"/></g><g id="o"><use transform="matrix(0.06172839506172839,0,0,0.06172839506172839,0,0)" xlink:href="#ad"/><use transform="matrix(0.06172839506172839,0,0,0.06172839506172839,11.11111111111111,0)" xlink:href="#ah"/><use transform="matrix(0.06172839506172839,0,0,0.06172839506172839,23.45679012345679,0)" xlink:href="#ak"/><use transform="matrix(0.06172839506172839,0,0,0.06172839506172839,28.333333333333336,0)" xlink:href="#at"/><use transform="matrix(0.06172839506172839,0,0,0.06172839506172839,33.20987654320988,0)" xlink:href="#ag"/></g><g id="p"><use transform="matrix(0.06172839506172839,0,0,0.06172839506172839,0,0)" xlink:href="#ax"/><use transform="matrix(0.06172839506172839,0,0,0.06172839506172839,17.28395061728395,0)" xlink:href="#al"/><use transform="matrix(0.06172839506172839,0,0,0.06172839506172839,32.09876543209876,0)" xlink:href="#ao"/></g><g id="q"><use transform="matrix(0.06172839506172839,0,0,0.06172839506172839,0,0)" xlink:href="#au"/><use transform="matrix(0.06172839506172839,0,0,0.06172839506172839,14.814814814814813,0)" xlink:href="#aa"/><use transform="matrix(0.06172839506172839,0,0,0.06172839506172839,22.160493827160494,0)" xlink:href="#af"/><use transform="matrix(0.06172839506172839,0,0,0.06172839506172839,34.50617283950617,0)" xlink:href="#ak"/><use transform="matrix(0.06172839506172839,0,0,0.06172839506172839,39.382716049382715,0)" xlink:href="#ac"/></g><path d="M141 0L90-78 38 0H4l68-98-65-92h35l48 74 47-74h35l-64 92 68 98h-35" id="az"/><g id="r"><use transform="matrix(0.06172839506172839,0,0,0.06172839506172839,0,0)" xlink:href="#X"/><use transform="matrix(0.06172839506172839,0,0,0.06172839506172839,12.345679012345679,0)" xlink:href="#az"/><use transform="matrix(0.06172839506172839,0,0,0.06172839506172839,23.45679012345679,0)" xlink:href="#ae"/><use transform="matrix(0.06172839506172839,0,0,0.06172839506172839,29.62962962962963,0)" xlink:href="#aa"/><use transform="matrix(0.06172839506172839,0,0,0.06172839506172839,36.97530864197531,0)" xlink:href="#af"/><use transform="matrix(0.06172839506172839,0,0,0.06172839506172839,49.32098765432099,0)" xlink:href="#ad"/><use transform="matrix(0.06172839506172839,0,0,0.06172839506172839,60.4320987654321,0)" xlink:href="#ae"/><use transform="matrix(0.06172839506172839,0,0,0.06172839506172839,66.60493827160494,0)" xlink:href="#Z"/></g><path d="M136-208V0H84v-208H4v-40h212v40h-80" id="aA"/><path d="M23 0v-37h61v-169l-59 37v-38l62-41h46v211h57V0H23" id="aB"/><g id="s"><use transform="matrix(0.07407407407407408,0,0,0.07407407407407408,0,0)" xlink:href="#aA"/><use transform="matrix(0.07407407407407408,0,0,0.07407407407407408,16.222222222222225,0)" xlink:href="#aB"/></g><path d="M169-182c-1-43-94-46-97-3 18 66 151 10 154 114 3 95-165 93-204 36-6-8-10-19-12-30l50-8c3 46 112 56 116 5-17-69-150-10-154-114-4-87 153-88 188-35 5 8 8 18 10 28" id="aC"/><path d="M115-3C79 11 28 4 28-45v-112H4v-33h27l15-45h31v45h36v33H77v99c-1 23 16 31 38 25v30" id="aD"/><path d="M85 4C-2 5 27-109 22-190h50c7 57-23 150 33 157 60-5 35-97 40-157h50l1 190h-47c-2-12 1-28-3-38-12 25-28 42-61 42" id="aE"/><path d="M88-194c31-1 46 15 58 34l-1-101h50l1 261h-48c-2-10 0-23-3-31C134-8 116 4 84 4 32 4 16-41 15-95c0-56 19-97 73-99zm17 164c33 0 40-30 41-66 1-37-9-64-41-64s-38 30-39 65c0 43 13 65 39 65" id="aF"/><path d="M123 10C108 53 80 86 19 72V37c35 8 53-11 59-39L3-190h52l48 148c12-52 28-100 44-148h51" id="aG"/><g id="t"><use transform="matrix(0.07407407407407408,0,0,0.07407407407407408,0,0)" xlink:href="#aC"/><use transform="matrix(0.07407407407407408,0,0,0.07407407407407408,17.77777777777778,0)" xlink:href="#aD"/><use transform="matrix(0.07407407407407408,0,0,0.07407407407407408,26.592592592592595,0)" xlink:href="#aE"/><use transform="matrix(0.07407407407407408,0,0,0.07407407407407408,42.814814814814824,0)" xlink:href="#aF"/><use transform="matrix(0.07407407407407408,0,0,0.07407407407407408,59.03703703703705,0)" xlink:href="#aG"/></g><path d="M182-182c0 78-84 86-111 141h115V0H12c-6-101 99-100 120-180 1-22-12-31-33-32-23 0-32 14-35 34l-49-3c5-45 32-70 84-70 51 0 83 22 83 69" id="aH"/><path d="M86-200l42-18 12 35-44 11 32 37-32 21-26-44-26 44-32-21 33-37-44-11 12-35 42 18-3-48h38" id="aI"/><g id="u"><use transform="matrix(0.07407407407407408,0,0,0.07407407407407408,0,0)" xlink:href="#aA"/><use transform="matrix(0.07407407407407408,0,0,0.07407407407407408,16.222222222222225,0)" xlink:href="#aH"/><use transform="matrix(0.07407407407407408,0,0,0.07407407407407408,31.03703703703704,0)" xlink:href="#aI"/></g><path d="M14-72v-43h91v43H14" id="aJ"/><g id="v"><use transform="matrix(0.07407407407407408,0,0,0.07407407407407408,0,0)" xlink:href="#aA"/><use transform="matrix(0.07407407407407408,0,0,0.07407407407407408,16.222222222222225,0)" xlink:href="#aH"/><use transform="matrix(0.07407407407407408,0,0,0.07407407407407408,31.03703703703704,0)" xlink:href="#aI"/><use transform="matrix(0.07407407407407408,0,0,0.07407407407407408,41.40740740740741,0)" xlink:href="#aJ"/><use transform="matrix(0.07407407407407408,0,0,0.07407407407407408,50.22222222222223,0)" xlink:href="#aA"/><use transform="matrix(0.07407407407407408,0,0,0.07407407407407408,66.44444444444446,0)" xlink:href="#aB"/></g><path d="M230 0l2-204L168 0h-37L68-204 70 0H24v-248h70l56 185 57-185h69V0h-46" id="aK"/><path d="M25 0v-261h50V0H25" id="aL"/><path d="M25-224v-37h50v37H25zM25 0v-190h50V0H25" id="aM"/><g id="w"><use transform="matrix(0.07407407407407408,0,0,0.07407407407407408,0,0)" xlink:href="#aK"/><use transform="matrix(0.07407407407407408,0,0,0.07407407407407408,22.148148148148152,0)" xlink:href="#aE"/><use transform="matrix(0.07407407407407408,0,0,0.07407407407407408,38.37037037037038,0)" xlink:href="#aL"/><use transform="matrix(0.07407407407407408,0,0,0.07407407407407408,45.777777777777786,0)" xlink:href="#aD"/><use transform="matrix(0.07407407407407408,0,0,0.07407407407407408,54.5925925925926,0)" xlink:href="#aM"/><use transform="matrix(0.07407407407407408,0,0,0.07407407407407408,62.000000000000014,0)" xlink:href="#aC"/><use transform="matrix(0.07407407407407408,0,0,0.07407407407407408,79.7777777777778,0)" xlink:href="#aD"/><use transform="matrix(0.07407407407407408,0,0,0.07407407407407408,88.59259259259261,0)" xlink:href="#aE"/><use transform="matrix(0.07407407407407408,0,0,0.07407407407407408,104.81481481481485,0)" xlink:href="#aF"/><use transform="matrix(0.07407407407407408,0,0,0.07407407407407408,121.03703703703707,0)" xlink:href="#aG"/></g><path d="M127-220V0H93v-220H8v-28h204v28h-85" id="aN"/><path d="M27 0v-27h64v-190l-56 39v-29l58-41h29v221h61V0H27" id="aO"/><g id="x"><use transform="matrix(0.06172839506172839,0,0,0.06172839506172839,0,0)" xlink:href="#aN"/><use transform="matrix(0.06172839506172839,0,0,0.06172839506172839,13.518518518518517,0)" xlink:href="#aO"/></g><path d="M101-251c82-7 93 87 43 132L82-64C71-53 59-42 53-27h129V0H18c2-99 128-94 128-182 0-28-16-43-45-43s-46 15-49 41l-32-3c6-41 34-60 81-64" id="aP"/><path d="M80-196l47-18 7 23-49 13 32 44-20 13-27-46-27 45-21-12 33-44-49-13 8-23 47 19-2-53h23" id="aQ"/><g id="y"><use transform="matrix(0.06172839506172839,0,0,0.06172839506172839,0,0)" xlink:href="#aN"/><use transform="matrix(0.06172839506172839,0,0,0.06172839506172839,13.518518518518517,0)" xlink:href="#aP"/><use transform="matrix(0.06172839506172839,0,0,0.06172839506172839,25.864197530864196,0)" xlink:href="#aQ"/></g><g id="z"><use transform="matrix(0.06172839506172839,0,0,0.06172839506172839,0,0)" xlink:href="#ad"/><use transform="matrix(0.06172839506172839,0,0,0.06172839506172839,11.11111111111111,0)" xlink:href="#as"/><use transform="matrix(0.06172839506172839,0,0,0.06172839506172839,23.45679012345679,0)" xlink:href="#af"/><use transform="matrix(0.06172839506172839,0,0,0.06172839506172839,35.80246913580247,0)" xlink:href="#ac"/><use transform="matrix(0.06172839506172839,0,0,0.06172839506172839,48.148148148148145,0)" xlink:href="#ac"/><use transform="matrix(0.06172839506172839,0,0,0.06172839506172839,60.49382716049382,0)" xlink:href="#X"/><use transform="matrix(0.06172839506172839,0,0,0.06172839506172839,72.8395061728395,0)" xlink:href="#at"/><use transform="matrix(0.06172839506172839,0,0,0.06172839506172839,77.71604938271605,0)" xlink:href="#ag"/></g><path d="M190 0L58-211 59 0H30v-248h39L202-35l-2-213h31V0h-41" id="aR"/><g id="A"><use transform="matrix(0.06172839506172839,0,0,0.06172839506172839,0,0)" xlink:href="#aR"/><use transform="matrix(0.06172839506172839,0,0,0.06172839506172839,15.987654320987653,0)" xlink:href="#Z"/><use transform="matrix(0.06172839506172839,0,0,0.06172839506172839,22.160493827160494,0)" xlink:href="#aj"/><use transform="matrix(0.06172839506172839,0,0,0.06172839506172839,34.50617283950617,0)" xlink:href="#Z"/></g><g id="B"><use transform="matrix(0.06172839506172839,0,0,0.06172839506172839,0,0)" xlink:href="#aa"/><use transform="matrix(0.06172839506172839,0,0,0.06172839506172839,7.345679012345679,0)" xlink:href="#X"/><use transform="matrix(0.06172839506172839,0,0,0.06172839506172839,19.691358024691358,0)" xlink:href="#Y"/></g><path d="M137 0h-34L2-248h35l83 218 83-218h36" id="aS"/><g id="C"><use transform="matrix(0.06172839506172839,0,0,0.06172839506172839,0,0)" xlink:href="#aS"/><use transform="matrix(0.06172839506172839,0,0,0.06172839506172839,13.580246913580245,0)" xlink:href="#X"/><use transform="matrix(0.06172839506172839,0,0,0.06172839506172839,25.925925925925924,0)" xlink:href="#ak"/><use transform="matrix(0.06172839506172839,0,0,0.06172839506172839,30.80246913580247,0)" xlink:href="#ac"/></g><g id="D"><use transform="matrix(0.06172839506172839,0,0,0.06172839506172839,0,0)" xlink:href="#av"/><use transform="matrix(0.06172839506172839,0,0,0.06172839506172839,14.814814814814813,0)" xlink:href="#ae"/><use transform="matrix(0.06172839506172839,0,0,0.06172839506172839,20.98765432098765,0)" xlink:href="#at"/><use transform="matrix(0.06172839506172839,0,0,0.06172839506172839,25.864197530864196,0)" xlink:href="#af"/><use transform="matrix(0.06172839506172839,0,0,0.06172839506172839,38.20987654320987,0)" xlink:href="#ag"/></g><g id="E"><use transform="matrix(0.06172839506172839,0,0,0.06172839506172839,0,0)" xlink:href="#av"/><use transform="matrix(0.06172839506172839,0,0,0.06172839506172839,14.814814814814813,0)" xlink:href="#ae"/><use transform="matrix(0.06172839506172839,0,0,0.06172839506172839,20.98765432098765,0)" xlink:href="#at"/><use transform="matrix(0.06172839506172839,0,0,0.06172839506172839,25.864197530864196,0)" xlink:href="#af"/><use transform="matrix(0.06172839506172839,0,0,0.06172839506172839,38.20987654320987,0)" xlink:href="#ag"/></g><path d="M212-179c-10-28-35-45-73-45-59 0-87 40-87 99 0 60 29 101 89 101 43 0 62-24 78-52l27 14C228-24 195 4 139 4 59 4 22-46 18-125c-6-104 99-153 187-111 19 9 31 26 39 46" id="aT"/><g id="F"><use transform="matrix(0.06172839506172839,0,0,0.06172839506172839,0,0)" xlink:href="#aT"/><use transform="matrix(0.06172839506172839,0,0,0.06172839506172839,15.987654320987653,0)" xlink:href="#as"/><use transform="matrix(0.06172839506172839,0,0,0.06172839506172839,28.333333333333332,0)" xlink:href="#af"/><use transform="matrix(0.06172839506172839,0,0,0.06172839506172839,40.67901234567901,0)" xlink:href="#ac"/><use transform="matrix(0.06172839506172839,0,0,0.06172839506172839,53.02469135802469,0)" xlink:href="#ac"/><use transform="matrix(0.06172839506172839,0,0,0.06172839506172839,65.37037037037037,0)" xlink:href="#Z"/></g><g id="G"><use transform="matrix(0.06172839506172839,0,0,0.06172839506172839,0,0)" xlink:href="#aw"/><use transform="matrix(0.06172839506172839,0,0,0.06172839506172839,12.345679012345679,0)" xlink:href="#as"/><use transform="matrix(0.06172839506172839,0,0,0.06172839506172839,24.691358024691358,0)" xlink:href="#af"/><use transform="matrix(0.06172839506172839,0,0,0.06172839506172839,37.03703703703704,0)" xlink:href="#ag"/><use transform="matrix(0.06172839506172839,0,0,0.06172839506172839,48.14814814814815,0)" xlink:href="#X"/><use transform="matrix(0.06172839506172839,0,0,0.06172839506172839,60.49382716049383,0)" xlink:href="#ag"/></g><g id="H"><use transform="matrix(0.06172839506172839,0,0,0.06172839506172839,0,0)" xlink:href="#al"/><use transform="matrix(0.06172839506172839,0,0,0.06172839506172839,14.814814814814813,0)" xlink:href="#am"/><use transform="matrix(0.06172839506172839,0,0,0.06172839506172839,35.74074074074073,0)" xlink:href="#an"/></g><g id="I"><use transform="matrix(0.06172839506172839,0,0,0.06172839506172839,0,0)" xlink:href="#aT"/><use transform="matrix(0.06172839506172839,0,0,0.06172839506172839,15.987654320987653,0)" xlink:href="#ah"/><use transform="matrix(0.06172839506172839,0,0,0.06172839506172839,28.333333333333332,0)" xlink:href="#ai"/><use transform="matrix(0.06172839506172839,0,0,0.06172839506172839,46.79012345679012,0)" xlink:href="#aw"/><use transform="matrix(0.06172839506172839,0,0,0.06172839506172839,59.1358024691358,0)" xlink:href="#Z"/></g><g id="J"><use transform="matrix(0.06172839506172839,0,0,0.06172839506172839,0,0)" xlink:href="#aS"/><use transform="matrix(0.06172839506172839,0,0,0.06172839506172839,13.580246913580245,0)" xlink:href="#X"/><use transform="matrix(0.06172839506172839,0,0,0.06172839506172839,25.925925925925924,0)" xlink:href="#ak"/><use transform="matrix(0.06172839506172839,0,0,0.06172839506172839,30.80246913580247,0)" xlink:href="#ac"/><use transform="matrix(0.06172839506172839,0,0,0.06172839506172839,43.148148148148145,0)" xlink:href="#ag"/></g><g id="K"><use transform="matrix(0.06172839506172839,0,0,0.06172839506172839,0,0)" xlink:href="#aT"/><use transform="matrix(0.06172839506172839,0,0,0.06172839506172839,15.987654320987653,0)" xlink:href="#Z"/><use transform="matrix(0.06172839506172839,0,0,0.06172839506172839,22.160493827160494,0)" xlink:href="#aS"/><use transform="matrix(0.06172839506172839,0,0,0.06172839506172839,34.938271604938265,0)" xlink:href="#Z"/></g><g id="L"><use transform="matrix(0.06172839506172839,0,0,0.06172839506172839,0,0)" xlink:href="#an"/><use transform="matrix(0.06172839506172839,0,0,0.06172839506172839,6.172839506172839,0)" xlink:href="#ai"/><use transform="matrix(0.06172839506172839,0,0,0.06172839506172839,24.629629629629626,0)" xlink:href="#af"/><use transform="matrix(0.06172839506172839,0,0,0.06172839506172839,36.9753086419753,0)" xlink:href="#Y"/><use transform="matrix(0.06172839506172839,0,0,0.06172839506172839,49.32098765432098,0)" xlink:href="#X"/></g><g id="M"><use transform="matrix(0.06172839506172839,0,0,0.06172839506172839,0,0)" xlink:href="#ai"/><use transform="matrix(0.06172839506172839,0,0,0.06172839506172839,18.456790123456788,0)" xlink:href="#af"/><use transform="matrix(0.06172839506172839,0,0,0.06172839506172839,30.80246913580247,0)" xlink:href="#Y"/><use transform="matrix(0.06172839506172839,0,0,0.06172839506172839,43.148148148148145,0)" xlink:href="#ag"/><use transform="matrix(0.06172839506172839,0,0,0.06172839506172839,54.25925925925925,0)" xlink:href="#Z"/></g><g id="N"><use transform="matrix(0.06172839506172839,0,0,0.06172839506172839,0,0)" xlink:href="#aS"/><use transform="matrix(0.06172839506172839,0,0,0.06172839506172839,13.580246913580245,0)" xlink:href="#X"/><use transform="matrix(0.06172839506172839,0,0,0.06172839506172839,25.925925925925924,0)" xlink:href="#ak"/><use transform="matrix(0.06172839506172839,0,0,0.06172839506172839,30.80246913580247,0)" xlink:href="#ac"/></g><path d="M143 0L79-87 56-68V0H24v-261h32v163l83-92h37l-77 82L181 0h-38" id="aU"/><g id="O"><use transform="matrix(0.06172839506172839,0,0,0.06172839506172839,0,0)" xlink:href="#ao"/><use transform="matrix(0.06172839506172839,0,0,0.06172839506172839,18.456790123456788,0)" xlink:href="#af"/><use transform="matrix(0.06172839506172839,0,0,0.06172839506172839,30.80246913580247,0)" xlink:href="#ag"/><use transform="matrix(0.06172839506172839,0,0,0.06172839506172839,41.91358024691358,0)" xlink:href="#aU"/></g><g id="P"><use transform="matrix(0.06172839506172839,0,0,0.06172839506172839,0,0)" xlink:href="#aS"/><use transform="matrix(0.06172839506172839,0,0,0.06172839506172839,13.580246913580245,0)" xlink:href="#X"/><use transform="matrix(0.06172839506172839,0,0,0.06172839506172839,25.925925925925924,0)" xlink:href="#ak"/><use transform="matrix(0.06172839506172839,0,0,0.06172839506172839,30.80246913580247,0)" xlink:href="#ac"/></g><g id="Q"><use transform="matrix(0.06172839506172839,0,0,0.06172839506172839,0,0)" xlink:href="#ao"/><use transform="matrix(0.06172839506172839,0,0,0.06172839506172839,18.456790123456788,0)" xlink:href="#af"/><use transform="matrix(0.06172839506172839,0,0,0.06172839506172839,30.80246913580247,0)" xlink:href="#ag"/><use transform="matrix(0.06172839506172839,0,0,0.06172839506172839,41.91358024691358,0)" xlink:href="#aU"/></g><g id="R"><use transform="matrix(0.06172839506172839,0,0,0.06172839506172839,0,0)" xlink:href="#av"/><use transform="matrix(0.06172839506172839,0,0,0.06172839506172839,14.814814814814813,0)" xlink:href="#ae"/><use transform="matrix(0.06172839506172839,0,0,0.06172839506172839,20.98765432098765,0)" xlink:href="#at"/><use transform="matrix(0.06172839506172839,0,0,0.06172839506172839,25.864197530864196,0)" xlink:href="#af"/><use transform="matrix(0.06172839506172839,0,0,0.06172839506172839,38.20987654320987,0)" xlink:href="#ag"/></g><g id="S"><use transform="matrix(0.06172839506172839,0,0,0.06172839506172839,0,0)" xlink:href="#av"/><use transform="matrix(0.06172839506172839,0,0,0.06172839506172839,14.814814814814813,0)" xlink:href="#ae"/><use transform="matrix(0.06172839506172839,0,0,0.06172839506172839,20.98765432098765,0)" xlink:href="#at"/><use transform="matrix(0.06172839506172839,0,0,0.06172839506172839,25.864197530864196,0)" xlink:href="#af"/><use transform="matrix(0.06172839506172839,0,0,0.06172839506172839,38.20987654320987,0)" xlink:href="#ag"/></g><g id="T"><use transform="matrix(0.06172839506172839,0,0,0.06172839506172839,0,0)" xlink:href="#ae"/><use transform="matrix(0.06172839506172839,0,0,0.06172839506172839,6.172839506172839,0)" xlink:href="#aa"/><use transform="matrix(0.06172839506172839,0,0,0.06172839506172839,13.518518518518519,0)" xlink:href="#af"/><use transform="matrix(0.06172839506172839,0,0,0.06172839506172839,25.864197530864196,0)" xlink:href="#ac"/><use transform="matrix(0.06172839506172839,0,0,0.06172839506172839,38.20987654320987,0)" xlink:href="#ag"/><use transform="matrix(0.06172839506172839,0,0,0.06172839506172839,49.32098765432099,0)" xlink:href="#ab"/><use transform="matrix(0.06172839506172839,0,0,0.06172839506172839,55.49382716049383,0)" xlink:href="#ah"/><use transform="matrix(0.06172839506172839,0,0,0.06172839506172839,67.8395061728395,0)" xlink:href="#aa"/><use transform="matrix(0.06172839506172839,0,0,0.06172839506172839,75.18518518518519,0)" xlink:href="#ai"/></g><g id="U"><use transform="matrix(0.06172839506172839,0,0,0.06172839506172839,0,0)" xlink:href="#ar"/><use transform="matrix(0.06172839506172839,0,0,0.06172839506172839,15.987654320987653,0)" xlink:href="#af"/><use transform="matrix(0.06172839506172839,0,0,0.06172839506172839,28.333333333333332,0)" xlink:href="#aa"/><use transform="matrix(0.06172839506172839,0,0,0.06172839506172839,35.67901234567901,0)" xlink:href="#aw"/></g><g id="V"><use transform="matrix(0.06172839506172839,0,0,0.06172839506172839,0,0)" xlink:href="#au"/><use transform="matrix(0.06172839506172839,0,0,0.06172839506172839,14.814814814814813,0)" xlink:href="#aa"/><use transform="matrix(0.06172839506172839,0,0,0.06172839506172839,22.160493827160494,0)" xlink:href="#af"/><use transform="matrix(0.06172839506172839,0,0,0.06172839506172839,34.50617283950617,0)" xlink:href="#ak"/><use transform="matrix(0.06172839506172839,0,0,0.06172839506172839,39.382716049382715,0)" xlink:href="#ac"/></g></defs></g></svg>